<svg width="40" height="24" viewBox="0 0 40 24" fill="none" xmlns="http://www.w3.org/2000/svg">
<g opacity="0.75" clip-path="url(#clip0_9_2044)">
<g clip-path="url(#clip1_9_2044)">
<g clip-path="url(#clip2_9_2044)">
<path d="M24 2C21.2833 2 20.9442 2.0125 19.8775 2.06C18.8125 2.11 18.0875 2.2775 17.45 2.525C16.7925 2.78 16.2342 3.1225 15.6783 3.67833C15.1225 4.23417 14.7792 4.79167 14.525 5.45C14.2775 6.0875 14.1092 6.8125 14.06 7.8775C14.01 8.94417 14 9.28333 14 12C14 14.7167 14.0125 15.0558 14.06 16.1225C14.11 17.1867 14.2775 17.9125 14.525 18.55C14.78 19.2067 15.1225 19.7658 15.6783 20.3217C16.2342 20.8767 16.7917 21.2208 17.45 21.475C18.0883 21.7217 18.8133 21.8908 19.8775 21.94C20.9442 21.99 21.2833 22 24 22C26.7167 22 27.0558 21.9875 28.1225 21.94C29.1867 21.89 29.9125 21.7217 30.55 21.475C31.2067 21.22 31.7658 20.8767 32.3217 20.3217C32.8767 19.7658 33.2208 19.2092 33.475 18.55C33.7217 17.9125 33.8908 17.1867 33.94 16.1225C33.99 15.0558 34 14.7167 34 12C34 9.28333 33.9875 8.94417 33.94 7.8775C33.89 6.81333 33.7217 6.08667 33.475 5.45C33.22 4.7925 32.8767 4.23417 32.3217 3.67833C31.7658 3.1225 31.2092 2.77917 30.55 2.525C29.9125 2.2775 29.1867 2.10917 28.1225 2.06C27.0558 2.01 26.7167 2 24 2ZM24 3.8C26.6692 3.8 26.9875 3.81333 28.0417 3.85917C29.0167 3.905 29.5458 4.06667 29.8975 4.205C30.3658 4.38583 30.6975 4.6025 31.0492 4.95167C31.3983 5.30167 31.615 5.63417 31.7958 6.1025C31.9325 6.45417 32.0958 6.98333 32.14 7.95833C32.1875 9.01333 32.1983 9.33 32.1983 12C32.1983 14.67 32.1858 14.9875 32.1367 16.0417C32.0858 17.0167 31.9233 17.5458 31.7858 17.8975C31.5992 18.3658 31.3867 18.6975 31.0367 19.0492C30.6875 19.3983 30.35 19.615 29.8867 19.7958C29.5367 19.9325 28.9992 20.0958 28.0242 20.14C26.9625 20.1875 26.65 20.1983 23.975 20.1983C21.2992 20.1983 20.9867 20.1858 19.9258 20.1367C18.95 20.0858 18.4125 19.9233 18.0625 19.7858C17.5883 19.5992 17.2625 19.3867 16.9133 19.0367C16.5625 18.6875 16.3383 18.35 16.1633 17.8867C16.0258 17.5367 15.8642 16.9992 15.8133 16.0242C15.7758 14.9742 15.7625 14.65 15.7625 11.9875C15.7625 9.32417 15.7758 8.99917 15.8133 7.93667C15.8642 6.96167 16.0258 6.425 16.1633 6.075C16.3383 5.6 16.5625 5.275 16.9133 4.92417C17.2625 4.575 17.5883 4.35 18.0625 4.17583C18.4125 4.0375 18.9383 3.875 19.9133 3.825C20.9758 3.7875 21.2883 3.775 23.9625 3.775L24 3.8ZM24 6.865C21.1625 6.865 18.865 9.165 18.865 12C18.865 14.8375 21.165 17.135 24 17.135C26.8375 17.135 29.135 14.835 29.135 12C29.135 9.1625 26.835 6.865 24 6.865ZM24 15.3333C22.1583 15.3333 20.6667 13.8417 20.6667 12C20.6667 10.1583 22.1583 8.66667 24 8.66667C25.8417 8.66667 27.3333 10.1583 27.3333 12C27.3333 13.8417 25.8417 15.3333 24 15.3333ZM30.5383 6.6625C30.5383 7.325 30 7.8625 29.3383 7.8625C28.6758 7.8625 28.1383 7.32417 28.1383 6.6625C28.1383 6.00083 28.6767 5.46333 29.3383 5.46333C29.9992 5.4625 30.5383 6.00083 30.5383 6.6625Z" fill="#272929"/>
</g>
</g>
</g>
<defs>
<clipPath id="clip0_9_2044">
<rect width="20" height="20" fill="white" transform="translate(14 2)"/>
</clipPath>
<clipPath id="clip1_9_2044">
<rect width="20" height="20" fill="white" transform="translate(14 2)"/>
</clipPath>
<clipPath id="clip2_9_2044">
<rect width="20" height="20" fill="white" transform="translate(14 2)"/>
</clipPath>
</defs>
</svg>
