<svg width="40" height="24" viewBox="0 0 40 24" fill="none" xmlns="http://www.w3.org/2000/svg">
<g opacity="0.75" clip-path="url(#clip0_9_2042)">
<g clip-path="url(#clip1_9_2042)">
<g clip-path="url(#clip2_9_2042)">
<path d="M31.0392 19.0433H28.0775V14.4025C28.0775 13.2958 28.055 11.8717 26.5342 11.8717C24.99 11.8717 24.7542 13.0758 24.7542 14.3208V19.0433H21.7925V9.5H24.6375V10.8008H24.6758C25.0733 10.0508 26.04 9.25917 27.4842 9.25917C30.485 9.25917 31.04 11.2342 31.04 13.805L31.0392 19.0433ZM18.4475 8.19417C17.4942 8.19417 16.7283 7.4225 16.7283 6.47333C16.7283 5.525 17.495 4.75417 18.4475 4.75417C19.3975 4.75417 20.1675 5.525 20.1675 6.47333C20.1675 7.4225 19.3967 8.19417 18.4475 8.19417ZM19.9325 19.0433H16.9625V9.5H19.9325V19.0433ZM32.5208 2H15.4758C14.66 2 14 2.645 14 3.44083V20.5592C14 21.3558 14.66 22 15.4758 22H32.5183C33.3333 22 34 21.3558 34 20.5592V3.44083C34 2.645 33.3333 2 32.5183 2H32.5208Z" fill="#272929"/>
</g>
</g>
</g>
<defs>
<clipPath id="clip0_9_2042">
<rect width="20" height="20" fill="white" transform="translate(14 2)"/>
</clipPath>
<clipPath id="clip1_9_2042">
<rect width="20" height="20" fill="white" transform="translate(14 2)"/>
</clipPath>
<clipPath id="clip2_9_2042">
<rect width="20" height="20" fill="white" transform="translate(14 2)"/>
</clipPath>
</defs>
</svg>
