<svg width="110" height="111" viewBox="0 0 110 111" fill="none" xmlns="http://www.w3.org/2000/svg">
<path d="M52.1875 96.7419C51.6928 96.8372 51.2574 96.9323 50.8812 97.0272C50.5043 97.1262 50.1698 97.2369 49.8777 97.3592C49.5849 97.4856 49.3203 97.6317 49.084 97.7976C48.8476 97.9636 48.622 98.1652 48.407 98.4025C48.192 98.6398 47.976 98.9193 47.759 99.2408C47.5372 99.5658 47.2967 99.9488 47.0376 100.39C46.9437 99.887 46.8497 99.4455 46.7555 99.0652C46.6565 98.6883 46.5462 98.3518 46.4247 98.0555C46.3031 97.7593 46.1614 97.4934 45.9996 97.2578C45.8337 97.0215 45.6345 96.7942 45.402 96.5758C45.1647 96.3609 44.8876 96.1432 44.5709 95.9228C44.2493 95.7057 43.8721 95.4684 43.4392 95.2108C43.9346 95.1113 44.3704 95.0142 44.7466 94.9193C45.1186 94.8237 45.4531 94.713 45.7501 94.5873C46.0422 94.465 46.3064 94.3209 46.5428 94.155C46.775 93.9884 46.9986 93.7864 47.2135 93.5491C47.4285 93.3117 47.6469 93.0306 47.8688 92.7057C48.0858 92.3841 48.3239 92.0028 48.583 91.5617C48.681 92.0652 48.7774 92.5051 48.8723 92.8813C48.9665 93.2615 49.0743 93.5998 49.1959 93.896C49.3175 94.1922 49.4612 94.4585 49.6271 94.6948C49.793 94.9311 49.9926 95.1564 50.2258 95.3707C50.4583 95.589 50.7353 95.8067 51.0569 96.0237C51.3777 96.2448 51.7546 96.4842 52.1875 96.7419Z" fill="#222227"/>
<path d="M32.4816 95.5095L31.8481 96.4716L26.1497 92.7202L26.7832 91.7581L29.1032 93.2854L33.559 86.5182L34.6068 87.208L30.1509 93.9751L32.4816 95.5095Z" fill="#222227"/>
<path d="M27.8164 81.7928L28.6395 82.7394L21.6552 88.8109L20.8321 87.8643L23.8364 85.2526L20.8297 81.7946L17.8254 84.4063L17.0023 83.4597L23.9866 77.3881L24.8097 78.3347L21.7088 81.0304L24.7155 84.4884L27.8164 81.7928Z" fill="#222227"/>
<path d="M13.3475 77.4774L21.4448 72.9966L22.0522 74.0941L13.9549 78.5749L13.3475 77.4774Z" fill="#222227"/>
<path d="M19.3057 68.3848L19.6677 69.5858L10.8069 72.256L10.4449 71.055L15.9293 64.4559L9.07842 66.5204L8.71648 65.3194L17.5773 62.6491L17.9392 63.8502L12.4548 70.4493L19.3057 68.3848Z" fill="#222227"/>
<path d="M7.74618 56.954L12.9942 56.9535L7.74577 52.8324L7.74563 51.3348L11.6755 54.432L17 51.2827L17.0002 52.7419L12.738 55.2639L14.8758 56.9533L17.0006 56.9531L17.0007 58.2075L7.74631 58.2084L7.74618 56.954Z" fill="#222227"/>
<path d="M10.4688 39.3283L18.0299 42.2044L19.4773 38.4L20.566 38.8141L18.6726 43.7909L10.0228 40.5007L10.4688 39.3283Z" fill="#222227"/>
<path d="M25.2756 31.3215L22.096 35.9856L14.449 30.7734L17.6286 26.1093L18.5805 26.7582L16.1075 30.3858L18.4978 32.015L20.7257 28.747L21.6459 29.3742L19.418 32.6422L21.8401 34.2931L24.3131 30.6655L25.2756 31.3215Z" fill="#222227"/>
<path d="M22.9081 23.8087C21.8552 22.621 22.0999 20.9674 23.5272 19.7024C24.8491 18.5308 26.3555 18.5127 27.4935 19.6421L26.5451 20.4826C25.8859 19.8354 25.0407 19.8661 24.2648 20.5538C23.3931 21.3264 23.2185 22.2679 23.8214 22.948C24.3139 23.5035 24.9272 23.5586 25.7144 23.1345L27.0921 22.3924C28.4517 21.6492 29.5698 21.7528 30.4359 22.7298C31.5397 23.975 31.277 25.6275 29.8018 26.9349C28.3936 28.183 26.8011 28.2775 25.6907 27.1407L26.6487 26.2917C27.2537 26.9356 28.1829 26.8646 29.0546 26.0921C29.9742 25.277 30.1764 24.3281 29.5651 23.6385C29.0811 23.0925 28.4785 23.0109 27.6816 23.4434L26.3125 24.1951C24.9529 24.9383 23.7912 24.8049 22.9081 23.8087Z" fill="#222227"/>
<path d="M31.5351 16.96C30.8031 15.5517 31.443 14.0074 33.1353 13.128C34.7027 12.3135 36.1681 12.6627 36.9969 14.0351L35.8725 14.6195C35.3907 13.8312 34.5635 13.6552 33.6435 14.1333C32.6099 14.6704 32.2113 15.5411 32.6305 16.3475C32.9728 17.0062 33.5543 17.209 34.4211 16.9893L35.9379 16.605C37.4376 16.2151 38.4969 16.5879 39.099 17.7463C39.8664 19.2228 39.2092 20.7616 37.4601 21.6706C35.7905 22.5382 34.2229 22.2421 33.4227 20.8692L34.5585 20.279C34.9885 21.0508 35.907 21.2082 36.9406 20.6711C38.031 20.1045 38.4582 19.2334 38.0331 18.4156C37.6966 17.7683 37.132 17.5424 36.2539 17.7679L34.7429 18.1636C33.2433 18.5534 32.149 18.1412 31.5351 16.96Z" fill="#222227"/>
<path d="M47.7344 14.1375C48.1921 13.9271 48.5923 13.731 48.9351 13.5493C49.2775 13.3633 49.576 13.1762 49.8306 12.9878C50.0849 12.7953 50.3071 12.5904 50.4971 12.3729C50.6871 12.1555 50.8582 11.906 51.0104 11.6243C51.1627 11.3426 51.3059 11.0197 51.4401 10.6557C51.5782 10.2873 51.7205 9.85801 51.867 9.36789C52.078 9.83394 52.2745 10.2404 52.4565 10.5873C52.6425 10.9297 52.8298 11.2303 53.0184 11.4891C53.207 11.7478 53.408 11.9724 53.6213 12.1626C53.8387 12.3526 54.0863 12.526 54.3641 12.6827C54.6458 12.8349 54.9667 12.9804 55.3269 13.119C55.6909 13.2532 56.1138 13.3938 56.5956 13.541C56.1381 13.7555 55.738 13.9537 55.3953 14.1354C55.0567 14.3169 54.7582 14.504 54.4997 14.6968C54.2452 14.8852 54.0229 15.0881 53.8329 15.3055C53.647 15.5226 53.478 15.7721 53.3257 16.0538C53.1735 16.3355 53.0283 16.6605 52.8903 17.029C52.7561 17.393 52.6157 17.82 52.4691 18.3101C52.254 17.8444 52.0556 17.4401 51.8738 17.0974C51.6918 16.7505 51.5064 16.4477 51.3178 16.1889C51.1291 15.9302 50.9261 15.7058 50.7087 15.5158C50.4913 15.3258 50.2438 15.1546 49.9663 15.002C49.6884 14.8453 49.3675 14.6999 49.0035 14.5657C48.6392 14.4274 48.2162 14.2846 47.7344 14.1375Z" fill="#222227"/>
<path d="M69.124 20.1241C66.6754 19.1459 65.7498 16.7361 66.8136 14.0736C67.8727 11.423 70.2659 10.2977 72.7264 11.2806C74.6639 12.0546 75.6891 13.8012 75.3071 15.6885L74.059 15.1899C74.1845 13.9444 73.4924 12.8823 72.2443 12.3837C70.5089 11.6904 68.8453 12.542 68.0427 14.5508C67.2401 16.5596 67.8588 18.323 69.5942 19.0162C70.8542 19.5196 72.1234 19.2409 72.867 18.3113L74.1032 18.8051C73.0508 20.3695 71.0615 20.8981 69.124 20.1241Z" fill="#222227"/>
<path d="M77.275 24.4228L76.2971 23.6372L82.0938 16.4231L84.8179 18.6116C86.3646 19.8542 86.6252 21.4099 85.5429 22.7569C84.7411 23.7547 83.6649 24.0723 82.5343 23.6402L81.5559 27.8619L80.4682 26.9881L81.4141 23.0522L79.568 21.5691L77.275 24.4228ZM82.3661 18.0868L80.2655 20.701L82.0218 22.1119C82.9298 22.8414 83.8416 22.7694 84.5071 21.9412C85.1805 21.1031 85.0105 20.2112 84.1124 19.4897L82.3661 18.0868Z" fill="#222227"/>
<path d="M87.3514 35.191L84.0202 30.6339L91.4919 25.1733L94.8231 29.7304L93.893 30.4102L91.3021 26.8658L88.9665 28.5726L91.3006 31.7657L90.4015 32.4228L88.0675 29.2297L85.7009 30.9593L88.2918 34.5037L87.3514 35.191Z" fill="#222227"/>
<path d="M89.5771 38.5022L89.0924 37.2899L98.9402 36.9927L99.4582 38.2882L92.124 44.8727L91.6346 43.6485L93.4651 42.0208L92.0206 38.4077L89.5771 38.5022ZM97.2856 38.233L93.1735 38.3604L94.3376 41.2723L97.3997 38.5183C97.5423 38.3923 97.7206 38.2522 97.8418 38.1761C97.7135 38.1999 97.4877 38.2212 97.2856 38.233Z" fill="#222227"/>
<path d="M100.136 45.635L101.278 45.4813L102.188 52.2427L101.047 52.3964L100.676 49.6436L92.6461 50.7246L92.4787 49.4814L100.509 48.4004L100.136 45.635Z" fill="#222227"/>
<path d="M92.3464 62.2846L92.9635 56.6736L102.162 57.6851L101.545 63.2961L100.4 63.1702L100.88 58.8061L98.0047 58.4899L97.5724 62.4214L96.4654 62.2997L96.8978 58.3682L93.9842 58.0478L93.5042 62.4119L92.3464 62.2846Z" fill="#222227"/>
<path d="M89.2808 71.6611L89.9044 70.6023L97.879 75.2981L97.2554 76.3569L88.9318 75.1543L94.0204 81.8495L93.3838 82.9304L85.4093 78.2346L86.0329 77.1757L89.1874 79.0333C90.6765 79.9101 91.2104 80.2394 91.7405 80.6258L87.3646 74.9148L87.9622 73.9001L95.0508 74.9548C94.6323 74.7826 93.8031 74.324 92.689 73.6681L89.2808 71.6611Z" fill="#222227"/>
<path d="M78.6569 90.8125C76.8627 88.6421 77.0274 85.9486 79.0499 84.2769C81.0626 82.6133 83.7196 82.9745 85.5139 85.1449C87.3 87.3054 87.1533 90.0006 85.1406 91.6642C83.1181 93.336 80.4512 92.9828 78.6569 90.8125ZM79.6732 89.9725C81.0433 91.6299 82.9155 91.9258 84.3658 90.727C85.8161 89.5283 85.8678 87.6422 84.4977 85.9848C83.1275 84.3275 81.257 84.0136 79.8067 85.2123C78.3564 86.4111 78.3111 88.325 79.6732 89.9725Z" fill="#222227"/>
<path d="M70.9897 89.6055L72.1514 89.1324L75.6425 97.7031L72.4062 99.0211C70.5687 99.7694 69.0821 99.2415 68.4303 97.6411C67.9474 96.4557 68.1925 95.3608 69.1194 94.5825L65.904 91.6767L67.1962 91.1504L70.1775 93.889L72.3706 92.9959L70.9897 89.6055ZM74.0558 97.133L72.7907 94.0272L70.7043 94.8769C69.6255 95.3162 69.2457 96.1481 69.6465 97.132C70.0521 98.1278 70.9143 98.4124 71.9813 97.9779L74.0558 97.133Z" fill="#222227"/>
<path d="M56.683 93.1934L62.2845 92.4954L63.429 101.679L57.8275 102.377L57.6851 101.234L62.0418 100.691L61.684 97.8201L57.7592 98.3092L57.6214 97.2041L61.5463 96.7151L61.1838 93.8064L56.8271 94.3493L56.683 93.1934Z" fill="#222227"/>
</svg>
