<svg width="40" height="24" viewBox="0 0 40 24" fill="none" xmlns="http://www.w3.org/2000/svg">
<g opacity="0.75" clip-path="url(#clip0_9_2040)">
<g clip-path="url(#clip1_9_2040)">
<g clip-path="url(#clip2_9_2040)">
<mask id="mask0_9_2040" style="mask-type:luminance" maskUnits="userSpaceOnUse" x="14" y="2" width="20" height="20">
<path d="M34 2H14V22H34V2Z" fill="white"/>
</mask>
<g mask="url(#mask0_9_2040)">
<path d="M33.9617 5.80742C33.2242 6.13158 32.4367 6.35242 31.6075 6.45325C32.4525 5.94408 33.1025 5.14158 33.41 4.18408C32.6175 4.64658 31.7392 4.98325 30.8042 5.17075C30.0575 4.37158 28.9933 3.87158 27.8117 3.87158C25.5475 3.87158 23.7117 5.70742 23.7117 7.96908C23.7117 8.29408 23.7492 8.60658 23.8175 8.90575C20.4092 8.74492 17.3883 7.10825 15.3667 4.63408C15.0108 5.23575 14.8117 5.93492 14.8117 6.69658C14.8117 8.12158 15.5367 9.37408 16.635 10.1099C15.9625 10.0882 15.33 9.90325 14.7783 9.59658V9.64742C14.7783 11.6349 16.1892 13.2924 18.0667 13.6699C17.7225 13.7624 17.3592 13.8124 16.9867 13.8124C16.725 13.8124 16.4742 13.7874 16.2233 13.7408C16.7492 15.3683 18.2608 16.5549 20.06 16.5883C18.66 17.6874 16.8858 18.3424 14.975 18.3424C14.65 18.3424 14.3258 18.3233 14 18.2866C15.8242 19.4483 17.9733 20.1274 20.2975 20.1274C27.8425 20.1274 31.9633 13.8808 31.9633 8.47242C31.9633 8.29825 31.9633 8.12242 31.9508 7.94742C32.7517 7.37325 33.4508 6.64742 34.0008 5.82408L33.9617 5.80742Z" fill="#272929"/>
</g>
</g>
</g>
</g>
<defs>
<clipPath id="clip0_9_2040">
<rect width="20" height="20" fill="white" transform="translate(14 2)"/>
</clipPath>
<clipPath id="clip1_9_2040">
<rect width="20" height="20" fill="white" transform="translate(14 2)"/>
</clipPath>
<clipPath id="clip2_9_2040">
<rect width="20" height="20" fill="white" transform="translate(14 2)"/>
</clipPath>
</defs>
</svg>
