<svg width="66" height="60" viewBox="0 0 66 60" fill="none" xmlns="http://www.w3.org/2000/svg">
<g clip-path="url(#clip0_9_2081)">
<path d="M13.3259 9.4468C12.9817 8.57032 13.305 7.75209 14.4226 7.6415C14.762 7.60792 15.2382 7.73962 15.4348 8.01835C15.6654 8.34522 15.7918 8.67277 16.1886 8.86841C16.2371 8.893 16.232 8.95221 16.2331 8.99961C16.2168 9.019 16.2006 9.03839 16.1843 9.05781C15.8527 9.12629 15.3313 9.1888 15.004 9.24517C15.0077 9.40039 15.0107 9.64482 15.0573 9.78926C15.2202 10.3067 15.6188 11.0093 15.4554 11.5629C15.1875 12.4711 13.6339 13.2027 12.8154 13.659C12.9227 14.0404 12.8722 14.077 13.308 14.0848C13.8416 14.0944 13.9649 14.4112 13.8463 14.8564C15.2614 14.8811 16.7284 14.8684 18.148 14.8708L26.6594 14.8723L59.729 14.8561L59.7303 23.4564L35.4837 23.4278L35.4799 34.822L54.1169 34.8184C53.9716 34.2114 53.6752 32.8252 53.4178 32.312C53.1159 32.5116 52.8239 32.7599 52.5049 32.9683C51.7855 33.4384 50.4805 33.9213 49.5962 33.91C48.6454 33.3473 48.4205 31.4354 48.1132 30.516C47.8746 29.8018 47.3862 29.2387 46.9753 28.6098C46.6499 28.7275 46.5626 28.7461 46.2143 28.7362C46.0945 28.8151 45.9201 28.9247 45.7812 28.9635C45.5785 29.0218 45.3589 28.9977 45.1759 28.8973C43.9045 28.2107 44.3148 25.3012 46.2264 26.5564C46.4336 26.5247 46.6569 26.5014 46.8667 26.4761C47.1247 25.9666 47.2785 26.4085 47.7468 26.3208C47.8933 26.2933 48.0957 26.3164 48.2467 26.3341C48.1764 26.0982 48.1729 25.9484 48.1675 25.71C48.4691 25.5745 49.4249 25.2408 49.7544 25.3288C49.9311 25.3759 50.2209 25.8798 50.1939 26.0711C50.1424 26.1608 50.1456 26.1541 50.0474 26.1995L50.0734 26.2282C50.8894 26.2008 50.708 27.5465 50.9082 27.9769C50.939 28.0435 51.32 28.3629 51.3918 28.4514C51.7073 28.8388 51.9113 29.0693 52.2939 29.3953C52.3575 29.2931 52.4201 29.1904 52.4823 29.0875C52.3022 28.9205 52.2072 28.8034 52.0569 28.6088C51.5202 28.5102 51.5164 28.2309 51.5167 27.8007C51.5167 27.6918 51.2714 27.5633 51.191 27.4849C51.1204 27.0373 51.0019 26.3955 51.0623 25.9672L50.8958 25.7289L50.9072 25.6878C51.0922 25.0544 51.5056 24.6906 52.1023 24.3402C53.2109 23.6889 54.4829 23.9893 55.1505 25.0396C55.467 25.5378 55.4123 25.9317 55.2398 26.4714C55.6573 26.5327 55.6955 26.5782 55.8531 26.9289C56.792 27.1607 58.4688 27.8525 59.05 28.5901C59.7767 29.5129 60.1539 30.7699 60.7039 31.8096C61.471 33.2599 62.2444 34.71 62.9546 36.1859C63.0731 36.4324 63.4267 37.0055 63.3133 37.2292C62.8421 37.5255 62.041 35.7274 61.8659 35.4506C62.0092 35.9864 62.4315 36.7754 62.4493 37.3129C62.4525 37.4154 62.2116 37.5591 62.1119 37.6244C62.0258 38.4568 61.865 39.1746 61.4605 39.9253C60.8682 41.0235 60.225 42.089 60.3722 43.3692C60.4456 44.0068 60.7538 44.168 61.0633 44.6527C61.5418 45.4019 61.7363 46.389 61.9543 47.2306C62.0569 47.63 62.0553 48.0574 62.2008 48.4458C62.3013 48.7136 62.6832 48.8217 62.7823 49.0946C62.9393 49.5342 62.7502 49.9077 62.7277 50.3318C62.7058 50.7921 63.1128 51.7076 62.9256 52.1103C62.7035 52.5872 61.4198 52.5724 60.9804 52.3826C60.7141 52.2674 60.4303 52.0987 60.164 52.0186C59.7198 51.8849 59.2476 51.8442 58.8279 51.6373C58.4834 51.476 58.1142 51.0282 58.35 50.6665C58.6016 50.2801 59.2514 50.1572 59.6896 50.0452C59.7208 49.876 59.7344 49.7925 59.7967 49.6271C59.7424 49.5606 59.6016 49.3978 59.5787 49.3275C59.3935 48.7638 59.4914 48.2878 59.2607 47.6912C58.94 46.863 58.5943 46.0315 58.2086 45.2282C58.0462 44.8899 57.71 44.5639 57.5947 44.1885C57.4511 43.7205 57.4269 43.2062 57.4018 42.7224C57.2636 42.8614 56.5642 43.5491 56.4991 43.6834C56.309 44.0733 56.2916 44.2105 56.0129 44.6316C56.0984 45.0292 56.0069 45.1866 56.0453 45.5724C56.1689 46.8184 56.3993 48.1847 56.4257 49.4314C56.9226 50.1313 57.4123 50.4628 56.6573 51.1974C56.6398 51.737 56.745 52.2089 56.7885 52.7369C56.7968 52.8364 56.7174 52.9712 56.6239 53.0321C56.1225 53.3596 55.3389 53.4327 54.7454 53.3412C54.3978 53.2581 54.0918 53.1227 53.7368 53.057C52.8738 52.8973 50.7623 53.1461 50.959 51.8315C51.0439 51.2634 52.0832 51.2485 52.5281 51.1176C52.7871 51.0412 52.9215 50.994 53.1563 50.8432L53.1941 50.8185C53.292 50.6 53.3622 50.5049 53.5087 50.3175C53.1213 49.8041 53.1811 49.7322 53.4483 49.1929C53.4779 49.133 53.4718 48.8084 53.4702 48.7285C53.4486 47.6965 53.3746 46.6664 53.2894 45.6377C53.2589 45.2804 53.0108 44.8481 53.0336 44.4576C53.0479 44.2019 53.2675 44.013 53.3714 43.7918C53.4461 43.6329 53.4747 43.4102 53.5284 43.2394C53.5706 43.1052 53.61 42.9641 53.6517 42.8278C51.7648 42.7845 49.6788 42.8424 47.771 42.8471L35.4663 42.8652L2.12109 42.8554L2.11914 34.8098C4.77739 34.7697 7.58552 34.8065 10.2582 34.8071L28.1162 34.8169L28.1205 23.4281L5.56241 23.4328C5.50073 20.6346 5.5449 17.6656 5.55027 14.8583C7.35279 14.8339 9.18636 14.9041 10.9899 14.8418C11.0075 14.8412 11.0695 14.6596 11.0772 14.6505C11.1694 14.5404 11.409 14.4715 11.4957 14.3737C11.2148 14.2018 11.1897 14.0879 11.0148 13.804L10.4676 13.9646C10.2144 14.0371 8.45461 14.431 8.40898 13.9728C8.37482 13.6298 9.01401 12.7261 9.23225 12.3845C10.1938 10.8792 11.4545 9.83015 13.3259 9.4468Z" fill="#020202"/>
<path d="M49.1376 25.9606C49.6694 25.7708 49.6873 25.79 50.2539 25.763L50.2802 25.7913C49.8263 25.8202 49.7841 25.9655 49.1376 25.9606Z" fill="#FDFCF9"/>
<path d="M55.8691 35.0607C55.9164 35.1064 56.5026 36.4948 56.6493 36.6838C56.7266 36.7834 56.8404 37.0488 57.0296 37.147C57.5333 37.4089 58.3218 37.5293 58.8878 37.6978C58.3358 37.7188 57.2121 37.633 56.8101 37.2724C56.3994 36.9041 55.8842 35.5916 55.8691 35.0607Z" fill="#020202"/>
<path d="M50.7922 14.8962C53.6846 14.8443 56.7563 14.8811 59.659 14.8871L59.6538 22.7411L50.7958 22.7347L50.7922 14.8962Z" fill="#FDFCF9"/>
<path d="M52.3227 16.169L53.2182 16.1697C53.798 16.9218 54.4238 17.633 54.9997 18.3979C55.3097 18.0019 55.6293 17.6112 55.9361 17.214C56.2008 16.8714 56.4376 16.5217 56.7118 16.182C56.9669 16.1671 57.3008 16.1726 57.562 16.1701L57.5613 21.6465L56.4769 21.643C56.4814 21.0277 56.4798 20.4123 56.4721 19.797L56.4731 18.1458C56.2439 18.4737 55.5101 19.4749 55.257 19.7382C55.1023 19.7501 54.9444 19.7465 54.7888 19.7461C54.3337 19.2092 53.8853 18.6957 53.4755 18.1278C53.5033 19.274 53.4714 20.4928 53.4669 21.6438L52.3167 21.6426L52.3227 16.169Z" fill="#020202"/>
<path d="M52.7999 16.5083C53.1138 16.6309 54.6268 18.6251 55.0186 19.0217C55.4539 18.5831 55.8521 18.0141 56.2491 17.5403C56.4063 17.3527 56.9158 16.5618 57.1229 16.5691C57.1574 16.6862 57.1609 17.4444 57.1497 17.5626C57.1021 18.0563 57.2549 21.0801 57.0551 21.2346L57.0046 21.2104C56.964 21.0586 56.9791 20.3293 56.9778 20.117C56.9663 19.1716 56.9624 18.2261 56.9663 17.2806L56.9497 16.9159C56.8336 17.0473 56.7269 17.1846 56.6221 17.3235C56.1158 17.9921 55.5782 18.6387 55.0368 19.2837C54.3123 18.4948 53.6213 17.6806 52.9652 16.8429C52.9454 18.2222 52.9875 19.6237 52.9732 21.0059C52.9719 21.1329 52.9812 21.1671 52.9003 21.2408L52.8559 21.2224C52.8162 21.1422 52.792 21.0439 52.7932 20.9559C52.8194 19.4825 52.7431 17.9778 52.7999 16.5083Z" fill="#FDFCF9"/>
<path d="M36.5024 14.8972C38.7655 14.8893 41.0286 14.893 43.2917 14.9082C43.3403 17.4698 43.2965 20.1375 43.3026 22.7094L42.4592 22.7096L35.6206 22.7126L35.604 14.9034L36.5024 14.8972Z" fill="#FDFCF9"/>
<path d="M40.8387 16.1271L41.9004 16.117L41.8995 20.1147C41.8988 20.3252 41.9282 21.5389 41.8627 21.631L41.7799 21.6391L40.839 21.6372L40.8419 19.2485L38.4973 19.248C38.4845 20.0324 38.4919 20.8354 38.49 21.6214L37.4292 21.6209L37.4388 16.1234C37.7926 16.1193 38.155 16.1233 38.5095 16.1237C38.4864 16.841 38.5008 17.621 38.5002 18.3431L40.8342 18.3483L40.8387 16.1271Z" fill="#020202"/>
<path d="M37.8779 16.4766C37.9565 16.4806 37.969 16.4839 38.0457 16.5016C38.1032 16.6693 38.0636 18.4272 38.0633 18.7334C39.1371 18.728 40.211 18.7278 41.2849 18.7328C41.2817 18.0785 41.2622 17.244 41.2858 16.5773C41.2878 16.5278 41.2964 16.5344 41.351 16.5019L41.4137 16.5234C41.514 16.6481 41.4249 19.705 41.4699 20.1142C41.4865 20.2635 41.5035 21.1695 41.4079 21.2777C41.39 21.2714 41.3606 21.2619 41.3456 21.2519C41.2257 21.171 41.2814 19.1526 41.282 18.8966L38.0649 18.8962C38.0652 19.2139 38.0962 21.0942 38.015 21.2416L37.9639 21.2356C37.9089 21.167 37.8699 21.0816 37.8722 20.997C37.8837 20.5457 37.8814 20.0872 37.8811 19.6367L37.8779 16.4766Z" fill="#FDFCF9"/>
<path d="M20.6271 14.8957C23.1242 14.8985 25.7 14.863 28.1888 14.8977L28.1855 22.7172L20.571 22.7133C20.5766 20.8275 20.5636 16.9773 20.5876 14.943C20.6008 14.9272 20.6139 14.9114 20.6271 14.8957Z" fill="#FDFCF9"/>
<path d="M22.2246 16.1709C23.0927 16.167 24.3626 16.0785 25.1724 16.3096C26.2289 16.6112 26.4231 18.0276 25.8702 18.7871C25.6388 19.1051 25.3967 19.2193 25.0273 19.3584C25.5685 20.0162 26.1817 20.9359 26.6798 21.6438C26.2651 21.6371 25.8504 21.6383 25.4357 21.6472C24.9236 21.0068 24.4018 20.18 23.9181 19.5079C23.7211 19.4967 23.512 19.4978 23.3135 19.4956C23.3287 20.213 23.3284 20.9307 23.3125 21.6482L22.2347 21.6477C22.2632 19.8314 22.1907 17.9856 22.2246 16.1709Z" fill="#020202"/>
<path d="M22.6841 16.5457C23.8607 16.5255 25.8137 16.2958 25.7189 17.8574C25.6682 18.692 25.2231 18.9188 24.4632 19.1678C24.6039 19.575 25.846 21.091 25.8378 21.2517C25.7536 21.2913 25.7986 21.282 25.6969 21.2613C25.5695 21.1588 25.4107 20.8921 25.315 20.747C24.8927 20.1562 24.5996 19.7556 24.2354 19.1262L22.8715 19.1318C22.8722 19.476 22.9283 21.033 22.8094 21.2432L22.7616 21.2564C22.6425 21.099 22.6873 19.8662 22.6869 19.5686L22.6841 16.5457Z" fill="#FDFCF9"/>
<path d="M22.8727 16.6892C23.8276 16.6882 25.5754 16.4929 25.543 17.7687C25.5331 18.1601 25.4854 18.3489 25.2046 18.65C24.6121 19.098 23.6367 18.9803 22.8669 18.9729L22.8727 16.6892Z" fill="#020202"/>
<path d="M23.2963 17.0768C23.7347 17.0738 24.4397 17.0266 24.8164 17.2452C25.2476 17.4955 25.1274 18.0475 24.8635 18.3832C24.4535 18.6741 23.8196 18.6004 23.3023 18.5945L23.2963 17.0768Z" fill="#FDFCF9"/>
<path d="M13.0477 14.8802C15.4055 14.9242 17.8638 14.8879 20.2308 14.8952L20.2293 22.7185L13.063 22.7099L13.0477 14.8802Z" fill="#FDFCF9"/>
<path d="M14.6767 16.1518C15.5001 16.1489 16.547 16.0857 17.3411 16.237C18.1642 16.3939 18.5743 17.2409 18.4387 17.9481C18.3586 18.366 18.151 18.5548 17.7875 18.7928C17.8359 18.8127 17.8837 18.8336 17.9309 18.8557C18.2702 19.0141 18.5254 19.2914 18.6385 19.6247C18.7796 20.0463 18.7068 20.4798 18.4929 20.8679C17.8909 21.7242 16.9419 21.6514 15.9615 21.6518L14.6692 21.6505C14.6951 19.8296 14.6646 17.978 14.6767 16.1518Z" fill="#020202"/>
<path d="M15.1186 16.5289C15.8301 16.525 16.7 16.4578 17.3648 16.6912C18.2884 17.0155 18.1486 18.3291 17.3901 18.7431C17.2483 18.8205 17.1237 18.8566 16.9681 18.904C17.9226 19.0581 18.3325 19.494 18.1794 20.3897C17.9223 21.5115 16.0821 21.2694 15.1182 21.2679L15.1186 16.5289Z" fill="#FDFCF9"/>
<path d="M15.3127 18.9393C16.0731 18.9437 17.0599 18.8404 17.6875 19.2908C18.2196 19.6726 18.09 20.3821 17.7078 20.8198C17.134 21.2084 16.0411 21.1097 15.3132 21.1025L15.3127 18.9393Z" fill="#020202"/>
<path d="M15.7689 19.3092C16.2209 19.3085 17.0382 19.2721 17.3983 19.5527C17.712 19.7972 17.6175 20.2666 17.3664 20.532C16.9856 20.7688 16.2327 20.7081 15.7735 20.7031L15.7689 19.3092Z" fill="#FDFCF9"/>
<path d="M15.3299 16.6836C16.0811 16.6991 17.7014 16.4873 17.7973 17.4743C17.8369 17.8812 17.753 18.19 17.4697 18.5084C16.945 18.912 15.9966 18.8071 15.3084 18.8001C15.3108 18.4629 15.2704 16.8932 15.3299 16.6836Z" fill="#020202"/>
<path d="M15.7461 17.0991C16.1875 17.0955 16.7197 17.0467 17.1111 17.268C17.5142 17.4959 17.4496 17.8841 17.1871 18.1988C16.8214 18.492 16.2336 18.4174 15.7538 18.4099L15.7461 17.0991Z" fill="#FDFCF9"/>
<path d="M6.86353 14.8975C8.78159 14.8979 10.7829 14.9318 12.6912 14.8916L12.6892 22.7115L11.7134 22.7126L5.85138 22.7165L5.84937 14.9003L6.86353 14.8975Z" fill="#FDFCF9"/>
<path d="M7.43867 16.1676L11.0933 16.1664C11.0881 16.4636 11.0928 16.761 11.1074 17.058C10.2441 17.0673 9.38067 17.0684 8.5173 17.0612L8.51768 18.3035L10.7756 18.3019L10.7734 19.2263L8.50112 19.2172L8.50065 19.6729L8.50266 20.7118L11.2229 20.7176L11.2197 21.6511L7.42017 21.6497L7.43867 16.1676Z" fill="#020202"/>
<path d="M7.87048 16.5353C7.89564 16.534 7.92079 16.5329 7.94594 16.532C8.8197 16.5055 9.71747 16.5327 10.5928 16.5217C10.6575 16.521 10.7034 16.5502 10.7485 16.5882L10.7397 16.6422C10.5973 16.7213 8.39994 16.6874 8.05579 16.6867L8.0547 18.6853L9.4723 18.6847C9.74307 18.6834 10.3114 18.6256 10.521 18.7807C10.3613 18.8569 8.39648 18.828 8.05681 18.8276L8.05397 19.1092L8.05512 21.098L9.7375 21.0999C10.0377 21.0991 10.6803 21.0373 10.9 21.2111C10.7145 21.3117 8.27785 21.2673 7.87566 21.266L7.87048 16.5353Z" fill="#FDFCF9"/>
<path d="M43.7033 14.8962C45.9409 14.8994 48.2107 14.8732 50.4447 14.8991L50.4543 20.4358C50.4546 20.7476 50.4818 22.5743 50.4249 22.7185C48.1759 22.6945 45.899 22.7084 43.649 22.7093L43.6449 17.4655C43.642 16.6689 43.6084 15.7056 43.6397 14.9293L43.7033 14.8962Z" fill="#FDFCF9"/>
<path d="M45.7507 16.1708L48.2985 16.1693L48.2998 17.018L47.5836 17.0189L47.5874 20.8509L48.2589 20.8535C48.264 21.0141 48.3046 21.6168 48.227 21.7211L45.7699 21.7257C45.7689 21.436 45.7721 21.1464 45.7798 20.8568L46.5056 20.8502L46.5062 17.0222L45.7459 17.0178C45.7414 16.7393 45.7481 16.4502 45.7507 16.1708Z" fill="#020202"/>
<path d="M46.1169 16.535C46.4541 16.4928 47.5692 16.495 47.8959 16.5803L47.8859 16.6213C47.6127 16.6574 47.4158 16.6559 47.1374 16.658L47.1425 21.193C47.3509 21.1952 47.629 21.1548 47.8271 21.2079C47.8799 21.222 47.8754 21.2535 47.9054 21.319C47.6402 21.3454 46.5606 21.3457 46.2432 21.3094C46.2087 21.3055 46.208 21.2645 46.1972 21.2264C46.278 21.1737 46.8082 21.1928 46.9524 21.1922L46.9553 16.6513C46.7424 16.6553 46.4174 16.672 46.2068 16.6362C46.1476 16.6262 46.1559 16.6039 46.1169 16.535Z" fill="#FDFCF9"/>
<path d="M28.7346 14.8976C30.8927 14.8733 33.0997 14.8981 35.2621 14.898C35.2598 15.6644 35.3062 22.5894 35.2343 22.7058L35.1004 22.7148L28.5367 22.7189L28.539 16.5814C28.5391 16.1753 28.5379 15.7689 28.5394 15.3629C28.5399 15.2446 28.5138 14.9888 28.5871 14.9078L28.7346 14.8976Z" fill="#FDFCF9"/>
<path d="M31.4825 16.1655L32.154 16.1648L33.6992 19.8703C33.9389 20.4462 34.2119 21.0639 34.4222 21.6439L33.2876 21.6452C33.1137 21.1762 32.9552 20.7619 32.7283 20.3118L32.192 20.3119L30.8232 20.314C30.6256 20.7204 30.4366 21.2053 30.2626 21.6257C29.8891 21.6224 29.5155 21.6245 29.142 21.6319C29.3102 21.1342 29.5905 20.5791 29.7983 20.0795C30.3472 18.7704 30.9086 17.4656 31.4825 16.1655Z" fill="#020202"/>
<path d="M31.8054 16.5416C31.9691 16.7583 33.7726 21.0963 33.7682 21.2657L33.7174 21.2906C33.6886 21.2758 33.6601 21.261 33.6317 21.2461C33.4534 20.9074 33.2105 20.2696 33.0682 19.9394C32.6579 19.9323 32.2283 19.9376 31.8164 19.9371C31.4634 19.9398 30.8576 19.9562 30.5359 19.8951C30.4229 20.1618 30.0719 21.1035 29.8793 21.2352L29.8358 21.2249C29.8335 21.214 29.8298 21.2034 29.8288 21.1923C29.8149 21.0396 31.5681 16.8526 31.8054 16.5416Z" fill="#FDFCF9"/>
<path d="M31.7748 16.8909C31.9313 17.0239 32.8762 19.4603 32.9963 19.7928L31.8595 19.7964C31.4368 19.7986 31.0141 19.7951 30.5914 19.786C30.9704 18.8132 31.3805 17.8588 31.7748 16.8909Z" fill="#020202"/>
<path d="M31.7982 17.9144C31.9074 18.024 32.3313 19.1934 32.4086 19.4037L31.8495 19.4031L31.2032 19.4001C31.3717 18.8996 31.6006 18.4098 31.7982 17.9144Z" fill="#FDFCF9"/>
<path d="M28.5433 34.5691L35.0939 34.5747L35.1003 40.1839C35.1003 40.425 35.1301 41.7844 35.0521 41.8892C32.8845 41.8784 30.7171 41.8778 28.5496 41.8878C28.5762 39.4482 28.5741 37.0087 28.5433 34.5691Z" fill="#FDFCF9"/>
<path d="M33.501 35.7269L33.5511 35.7258C33.6336 35.8295 33.5949 36.4684 33.592 36.6375L31.0745 36.6398L31.0673 37.7083L33.2622 37.7057V38.5843L31.0768 38.5831L31.0726 39.8045C31.8246 39.8115 32.5968 39.8015 33.3504 39.7995C33.4562 39.7966 33.5479 39.7816 33.6377 39.8262C33.6687 40.04 33.6512 40.495 33.6489 40.7279C32.4293 40.7218 31.2099 40.7232 29.9903 40.7323L29.9791 35.7407C31.1531 35.7457 32.3271 35.741 33.501 35.7269Z" fill="#020202"/>
<path d="M30.4242 36.1032C31.1226 36.0768 31.8328 36.1184 32.5324 36.0926C32.7254 36.0856 33.1048 36.0727 33.2448 36.2069C33.0706 36.2889 30.9931 36.257 30.6259 36.2561C30.6173 36.8599 30.6252 37.4757 30.6264 38.0804C31.301 38.0789 32.1997 38.0537 32.8561 38.1027L32.8926 38.1481L32.9408 38.1238L32.8923 38.1079L32.8967 38.1487C32.2511 38.3379 31.1775 38.081 30.6305 38.2395L30.6314 40.1924L32.1776 40.1921C32.4544 40.1907 33.0652 40.1318 33.2739 40.2917C33.0773 40.3673 30.8125 40.3345 30.4257 40.3336L30.4242 36.1032Z" fill="#FDFCF9"/>
<path d="M21.7245 34.5724C23.8416 34.5404 26.0669 34.573 28.1942 34.5738L28.2016 41.8907L21.729 41.8793L21.7245 34.5724Z" fill="#FDFCF9"/>
<path d="M24.9678 35.6944C25.7322 35.5872 26.6687 35.7689 27.3162 36.1734C27.2329 36.457 27.1342 36.7515 26.9971 37.0166C26.3202 36.682 25.5881 36.4731 24.8093 36.6612C23.3025 37.0257 23.0969 39.0812 24.4654 39.7219C24.9346 39.9413 25.6079 39.9507 26.1103 39.789C26.1302 39.5115 26.1182 39.0812 26.1182 38.7932C25.7092 38.7932 25.3003 38.7979 24.8914 38.8066C24.8892 38.5564 24.8725 38.1478 24.9052 37.911C24.9961 37.868 25.0535 37.8838 25.1665 37.8844L27.2599 37.8899C27.262 38.719 27.2571 39.5481 27.245 40.3775C26.1499 40.9441 24.5101 40.969 23.4823 40.2589C22.2998 39.4418 22.1859 37.6743 23.0716 36.6346C23.5659 36.0545 24.1863 35.7791 24.9678 35.6944Z" fill="#020202"/>
<path d="M25.3 36.0478C25.7196 36.0199 26.6554 36.1327 26.9448 36.4445C26.8739 36.5552 26.6705 36.4726 26.5671 36.4321C25.9573 36.1922 25.2933 36.1011 24.6488 36.2821C24.1017 36.4333 23.6442 36.7802 23.3799 37.2446C23.0874 37.7514 23.0351 38.388 23.2242 38.9329C23.3887 39.4201 23.7631 39.8247 24.2606 40.0529C25.0487 40.4154 25.7785 40.2905 26.5686 40.0538L26.5851 38.4202C26.3352 38.3921 25.4143 38.4695 25.3112 38.3476L25.3543 38.3007C25.5213 38.243 26.5236 38.2673 26.7826 38.2679C26.7789 38.8195 26.7562 39.5854 26.8043 40.1221C25.8469 40.5325 24.5783 40.592 23.7208 39.9355C22.3407 38.879 22.8243 36.5133 24.6417 36.1313C24.8797 36.0812 25.0533 36.0627 25.3 36.0478Z" fill="#FDFCF9"/>
<path d="M42.0861 34.5709L48.514 34.5791L48.5143 41.8822L42.0708 41.8948L42.0861 34.5709Z" fill="#FDFCF9"/>
<path d="M43.2323 35.7158L44.565 35.7129C45.5123 35.712 46.2187 35.7322 46.9598 36.3387C48.1577 37.3187 47.9404 39.0003 46.9604 40.0149C45.885 40.9201 44.628 40.725 43.223 40.7291C43.2358 39.058 43.2387 37.3869 43.2323 35.7158Z" fill="#020202"/>
<path d="M43.69 36.0914C44.2528 36.0876 44.9303 36.056 45.4817 36.1096C46.5386 36.2124 47.2433 36.9821 47.3143 37.9395C47.3692 38.5872 47.135 39.2277 46.6655 39.7143C45.8649 40.4696 44.7383 40.3439 43.6868 40.3433L43.69 36.0914Z" fill="#FDFCF9"/>
<path d="M44.509 36.225C44.8085 36.2191 45.0933 36.2147 45.3915 36.244C47.4337 36.445 47.6856 38.8518 46.2048 39.8552C45.4621 40.2689 44.7376 40.1824 43.8788 40.1821L43.8801 36.2326L44.509 36.225Z" fill="#020202"/>
<path d="M44.3094 36.5895C44.9201 36.5815 45.6117 36.5364 46.1228 36.907C46.6722 37.3055 46.8029 38.0807 46.6102 38.671C46.5197 38.9487 46.3868 39.128 46.1899 39.3478C45.5763 39.8634 45.1122 39.7893 44.3199 39.7913C44.2851 38.7814 44.2979 37.6025 44.3094 36.5895Z" fill="#FDFCF9"/>
<path d="M35.4496 34.5706L41.74 34.5723L41.7323 41.8945L35.448 41.8957L35.4496 34.5706Z" fill="#FDFCF9"/>
<path d="M39.6945 35.7179H40.7479C40.8071 37.3026 40.7665 39.119 40.7761 40.7238L39.8454 40.7259C39.6344 40.4848 39.3778 40.1197 39.1736 39.859C38.5721 39.092 37.9783 38.32 37.3921 37.5431C37.418 38.6036 37.426 39.6645 37.4158 40.7253L36.3726 40.7247L36.3668 35.7208L37.3793 35.7205C38.1096 36.7758 38.9543 37.8029 39.7051 38.8975C39.6929 37.8378 39.6894 36.7778 39.6945 35.7179Z" fill="#020202"/>
<path d="M40.1328 40.1614C40.173 38.9628 40.0979 37.7195 40.1078 36.5174C40.1088 36.3695 40.0784 36.1606 40.2433 36.0826L40.2874 36.1222C40.3453 36.303 40.3258 37.2847 40.3264 37.5205L40.3344 40.3653C40.2644 40.3764 40.1011 40.3556 40.0554 40.2988C39.0058 38.9918 38.0509 37.5516 36.969 36.2696L36.9754 39.0492C36.976 39.3405 37.0045 40.1157 36.9476 40.3448C36.8782 40.3975 36.9198 40.3802 36.8082 40.3717C36.7555 40.2829 36.784 36.477 36.7846 36.0947C36.8639 36.0947 36.969 36.0873 37.0451 36.1067C37.1748 36.1395 39.8752 39.724 40.1328 40.1614Z" fill="#FDFCF9"/>
<path d="M8.69482 34.5659L14.9079 34.5709C14.9545 36.9806 14.9207 39.4708 14.9359 41.891L8.71835 41.8904L8.69482 34.5659Z" fill="#FDFCF9"/>
<path d="M10.1764 35.7355L13.5823 35.7399L13.5774 36.6311H11.2191L11.2186 37.7019L13.2128 37.7031C13.2195 37.989 13.2125 38.2913 13.2111 38.5782L11.2205 38.579L11.22 38.9795L11.2225 39.8362L13.6549 39.8353L13.6482 40.7385L10.1858 40.7426L10.1764 35.7355Z" fill="#020202"/>
<path d="M10.6114 36.1008L12.3402 36.1051C12.5445 36.106 13.0858 36.0597 13.23 36.1591L13.2333 36.2217C13.1322 36.2798 11.0818 36.2628 10.7817 36.2631C10.7666 36.8537 10.7806 37.4844 10.7826 38.0777C11.3287 38.0953 12.3129 38.0452 12.8108 38.1143L12.8168 38.1454C12.5203 38.2936 11.1906 38.2283 10.782 38.2309L10.7771 38.5406L10.7901 40.2143C11.1806 40.2216 13.1134 40.1472 13.3158 40.2682L13.3252 40.3192C13.2108 40.3966 10.9379 40.3646 10.6057 40.3643L10.6114 36.1008Z" fill="#FDFCF9"/>
<path d="M15.2635 34.5674C17.2733 34.5451 19.3551 34.5624 21.3674 34.5703L21.372 41.8831L15.2695 41.8834C15.2833 39.4447 15.2813 37.0061 15.2635 34.5674Z" fill="#FDFCF9"/>
<path d="M16.6942 35.7404L17.7218 35.741C17.7911 36.9849 17.7075 38.5462 17.7318 39.8358L20.2868 39.8437C20.2907 40.1426 20.2875 40.4411 20.2772 40.7396L16.6903 40.7417C16.6607 39.1101 16.6936 37.3822 16.6942 35.7404Z" fill="#020202"/>
<path d="M17.1593 36.0741L17.2432 36.0981C17.2578 36.1125 17.2724 36.1271 17.287 36.1415C17.308 36.9636 17.2993 39.5727 17.3002 40.2164C17.6286 40.219 19.7724 40.1815 19.8953 40.2442L19.926 40.3684C19.0341 40.3746 18.0094 40.3904 17.126 40.3564L17.1223 37.4763C17.1225 37.1944 17.1032 36.2938 17.1593 36.0741Z" fill="#FDFCF9"/>
<path d="M2.38933 34.5688C4.36128 34.539 6.39322 34.5609 8.36724 34.5633L8.37325 39.4895C8.37137 40.2375 8.40125 41.1668 8.36107 41.8945L2.38635 41.8799L2.38933 34.5688Z" fill="#FDFCF9"/>
<path d="M48.8681 34.5715L54.4205 34.5615C54.735 35.6059 54.9945 36.6624 55.2978 37.7092C55.364 37.9377 55.4302 38.1674 55.5168 38.39C55.2451 39.1017 54.7488 40.1068 54.4282 40.8404C54.2831 41.1694 54.1521 41.5271 54.022 41.8629L48.8658 41.8717L48.8681 34.5715Z" fill="#FDFCF9"/>
<path d="M49.4099 35.7161C49.8148 35.7105 50.2316 35.7146 50.6375 35.7143C51.0949 36.4471 51.5119 36.946 51.9565 37.7253C52.2099 37.3031 52.999 36.0583 53.3091 35.7146C53.7066 35.7132 54.0943 35.7105 54.4919 35.7243C54.1439 36.2927 53.5782 37.0558 53.1847 37.6213L52.5104 38.5643L52.503 40.7554L51.4106 40.7631C51.417 40.0394 51.4167 39.3161 51.4097 38.5925C50.9824 37.9746 50.549 37.3605 50.1092 36.75C49.8932 36.4438 49.5867 36.0299 49.4099 35.7161Z" fill="#020202"/>
<path d="M50.1332 36.0246C50.1578 36.026 50.2978 36.0384 50.3022 36.0419C50.8139 36.4673 51.6168 38.0455 51.9757 38.4099C52.1559 38.1322 53.4344 36.1514 53.5938 36.0662L53.6597 36.0829L53.6897 36.1339C53.5926 36.3307 53.0495 37.0693 52.8699 37.3511C52.6398 37.6901 52.3132 38.1943 52.0594 38.501C52.0345 39.0577 52.0527 39.6583 52.0527 40.217C52.0527 40.3175 52.0434 40.3424 51.9808 40.3968L51.9214 40.3889C51.9047 40.3687 51.8881 40.3485 51.8715 40.3283C51.8645 39.9436 51.8696 38.8459 51.8702 38.5148C51.6465 38.2271 51.3777 37.8029 51.1655 37.4947L50.1332 36.0246Z" fill="#FDFCF9"/>
<path d="M28.5371 23.0286L35.2719 23.0292L35.2758 28.9674L28.5395 28.971L28.5371 23.0286Z" fill="#FDFCF9"/>
<path d="M61.147 37.5897C61.2212 37.6729 61.1739 38.2453 61.1771 38.4135C61.2509 38.2644 61.3091 38.0719 61.3637 37.9134L61.9761 37.914C61.4679 39.6167 60.1499 40.7634 60.3065 42.578C59.7539 42.5452 59.3803 42.4799 58.8433 42.3818C59.0945 42.5206 59.3279 42.6469 59.6085 42.7357C59.7836 42.791 60.3042 42.755 60.3579 42.9106C60.138 43.0773 58.7212 42.9264 58.3911 42.8783C59.2543 43.2894 59.6516 43.2844 60.605 43.244C59.9421 43.5252 59.4848 43.5117 58.7778 43.4763C59.4084 43.7942 59.9083 43.754 60.5481 43.4698C60.7562 43.7517 61.0154 44.0772 61.1822 44.3681C61.7814 45.4137 61.8847 46.5993 62.1368 47.7328C62.2353 48.1761 62.8118 48.2326 62.8176 48.7647C62.8262 49.5642 62.1701 49.7282 61.434 49.7282C61.0352 49.7259 60.6206 49.5469 60.3343 49.2935C60.2985 49.2618 60.3221 49.2152 60.3288 49.1663C60.3752 49.1482 60.6264 49.2475 60.7117 49.2736L60.7248 49.2475C60.5925 49.0934 60.4356 48.9902 60.2729 48.8581C60.7226 49.0652 61.0943 49.227 61.6121 49.0603C61.7287 49.0231 61.9432 48.9457 61.9988 48.8382C61.8671 48.7321 61.4919 48.8903 61.2471 48.9032C61.0163 48.9152 60.7856 48.8819 60.5701 48.8054C60.1307 48.6469 60.0652 48.4102 60.0418 48.0082C60.0265 47.7445 60.0153 47.4659 59.9393 47.2113C59.6251 46.1616 59.1243 45.1708 58.6385 44.1809L58.6624 44.1932C58.8785 44.3019 59.1035 44.4029 59.3544 44.3379C59.339 44.2234 58.8085 44.1073 58.6679 44.0183C58.4815 43.9005 58.448 43.8765 58.3058 43.7086L58.2792 43.6767C58.0095 43.2366 57.9967 42.3604 57.9516 41.8395C58.3294 41.3959 59.5049 39.7904 59.829 39.5707C60.5126 40.1356 61.3714 39.1084 61.6335 38.5931L61.2624 38.9194C60.7958 39.3226 60.534 39.4805 59.8977 39.4623C60.108 39.223 60.2681 39.0358 60.4142 38.7589C59.4346 39.3522 58.6219 40.4698 57.9369 41.3177C57.6474 41.6763 57.2936 41.9865 56.9695 42.3237C56.7247 42.5783 56.447 42.9568 56.1127 43.1016C55.8435 43.2182 55.5259 43.0339 55.3347 43.0819C55.3654 43.3881 56.0874 43.3433 56.3249 43.3067C56.2833 43.3948 56.2299 43.4842 56.181 43.5694C55.6301 43.5762 55.3421 43.4813 54.8263 43.3154C54.9704 43.4359 55.2369 43.6371 55.4143 43.7089C55.584 43.7778 55.9126 43.7367 56.0535 43.8794C55.8685 44.1557 54.9551 44.0561 54.8231 44.1196C55.0343 44.4557 55.7496 44.3156 56.074 44.2749L56.0938 44.3142C55.8573 44.7179 54.4216 44.4308 54.2727 44.0575C54.3101 43.66 56.0654 40.9954 56.4099 40.4192C56.794 39.7907 57.1514 39.1488 57.4812 38.4949C59.1422 38.8075 59.7606 38.2465 61.147 37.5897Z" fill="#3C3C3C"/>
<path d="M60.197 47.5649C60.3642 47.6147 60.6838 47.8717 60.8541 47.9739C61.5374 48.3841 61.6518 48.0867 62.1655 47.9985L62.1865 48.041L62.145 48.1391C61.5272 48.8144 60.5083 48.2434 60.197 47.5649Z" fill="#020202"/>
<path d="M58.9854 39.4673L59.0129 39.4705L59.0135 39.4995C58.6856 39.7049 58.2967 39.8625 57.8943 39.8265C57.8093 39.7878 57.8058 39.7934 57.7495 39.7257L57.7728 39.687C57.831 39.6724 57.8547 39.6668 57.9163 39.6674C58.2746 39.6709 58.6383 39.5581 58.9854 39.4673Z" fill="#020202"/>
<path d="M28.5382 29.2678L35.2786 29.2656L35.271 34.2636L28.537 34.2715L28.5382 29.2678Z" fill="#FDFCF9"/>
<path d="M13.3947 9.5293C13.626 9.76992 13.503 10.6288 13.3069 10.9006C12.8361 11.5532 12.2498 12.0979 11.6861 12.6785C10.9964 13.3887 9.86411 13.5792 8.87698 13.5944C8.77152 13.5785 8.80667 13.6033 8.75256 13.5396C8.82988 13.2716 9.2025 12.7221 9.37259 12.4633C10.3922 10.9117 11.4166 9.95422 13.3947 9.5293Z" fill="#FDFCF9"/>
<path d="M14.413 7.7711C15.2119 7.75941 15.2145 8.1371 15.6186 8.64971C15.3733 8.68434 14.8798 8.6885 14.7509 8.71999C14.3483 9.12423 15.1943 10.5524 15.1537 11.0739C15.0689 12.1609 13.1894 12.599 12.4834 13.2879C12.4771 13.3978 12.4884 13.5321 12.4941 13.6438C12.0882 13.6995 12.0628 13.5434 11.7814 13.9309C11.6064 13.7645 11.4605 13.5811 11.3206 13.3899C12.1169 12.7549 12.9388 11.9577 13.5181 11.1584C14.0711 10.4043 13.7796 9.59825 13.5517 8.79968C13.3818 8.20419 13.826 7.86555 14.413 7.7711Z" fill="#FDFCF9"/>
<path d="M52.13 25.1438C52.1987 25.2242 52.2089 25.7087 52.3444 25.9194C52.5144 26.183 52.7535 26.2329 52.8874 26.4639C52.9306 26.5381 52.7746 26.7275 52.828 26.8597C53.0581 26.9404 53.169 26.7593 53.2777 26.6125C53.2374 26.4358 53.0936 26.1168 53.1163 25.9659L53.1639 25.9528L53.2326 25.9904C53.5589 26.6753 53.2847 26.7194 53.2141 27.1829C53.2799 27.2713 53.2371 27.2473 53.3361 27.2714C53.7775 27.1287 53.6525 26.5929 53.5874 26.2797C54.4222 26.2794 54.6257 26.1206 55.3589 26.0427L54.9549 26.2187C54.4113 26.4867 53.7005 27.012 53.3131 27.4538C53.1217 27.6723 52.9389 27.9917 52.7203 28.2363C52.4764 28.2724 51.9788 27.2653 51.9459 27.0247C51.7877 26.9054 51.5707 26.7048 51.6176 26.4982C51.6573 26.325 51.8596 26.2997 51.9449 26.1822C51.8174 26.1269 51.7004 26.1364 51.5566 26.1321C51.3108 25.5289 51.5873 25.4191 52.13 25.1438Z" fill="#3C3C3C"/>
<path d="M47.3005 26.0915C47.3283 26.0948 47.3561 26.0987 47.384 26.1032C47.9695 26.1998 47.8183 27.2637 48.3968 27.3554C48.7122 27.2578 48.4434 26.4605 48.5115 26.355C48.5847 26.3512 48.6921 26.3405 48.7359 26.3957C49.0296 26.765 49.1657 27.6716 49.1587 28.0927C49.1111 28.276 49.0778 28.403 49.0516 28.5904C48.5559 28.6313 48.4661 28.6105 48.1325 28.9312C47.7787 28.678 47.5601 28.3127 47.4079 27.9334C47.6441 27.1533 47.8106 26.8278 47.3005 26.0915Z" fill="#3C3C3C"/>
<path d="M60.1492 49.5445C60.27 49.5179 60.3247 49.609 60.4132 49.6781C60.6069 49.8299 60.8383 49.9356 61.0872 49.986C61.6644 50.1058 62.1582 50.0171 62.6536 49.7273L62.8914 50.7419C62.6316 50.722 62.3449 50.7179 62.0825 50.7091C61.5772 50.6625 59.0734 50.402 58.9299 50.0027C59.0597 49.7944 59.8744 49.6195 60.1492 49.5445Z" fill="#3C3C3C"/>
<path d="M49.5291 28.4567C49.5068 28.4475 50.5698 29.2 50.6247 29.2583C50.7587 29.4012 51.1463 29.9736 51.1038 30.2092C51.0818 30.3311 50.9015 30.426 50.7775 30.5215C50.642 30.6856 50.6037 30.6358 50.3496 30.7447C50.168 30.4116 49.9616 30.1623 49.7605 29.8535C49.5959 29.5606 49.5934 29.2169 49.5218 28.9018C49.463 28.6422 49.3393 28.6852 49.5291 28.4567Z" fill="#FDFCF9"/>
<path d="M51.5042 51.3899C51.7081 51.4529 51.8758 51.5197 52.0913 51.5561C52.8855 51.6911 53.6995 51.7269 54.5004 51.8256C54.7705 51.8587 55.0489 51.8792 55.3202 51.8692C55.7683 51.8531 56.2026 51.7854 56.6411 51.7069C56.7018 51.6958 56.7153 51.7424 56.7437 51.7816C56.744 51.9234 56.7648 51.8622 56.6916 51.9759C56.3356 52.1783 55.3451 52.3934 54.9987 52.2492C54.0389 51.8496 53.1073 51.9352 52.1044 51.745C51.858 51.6984 51.6361 51.5933 51.5042 51.3899Z" fill="#FDFCF9"/>
<path d="M45.382 26.3656C46.048 26.316 46.1733 27.1183 46.1474 27.5805C46.1346 27.8099 46.0193 27.9334 45.8278 28.0675C45.1324 27.9312 44.7751 26.8376 45.382 26.3656Z" fill="#FDFCF9"/>
<path d="M58.886 50.3021C59.6466 50.6777 61.3322 50.8646 62.2386 50.9976C62.3163 51.0091 62.7986 50.9763 62.9015 50.9695L62.9312 51.0179C62.9187 51.1307 62.8996 51.1456 62.8337 51.2391C62.0491 51.6811 61.344 51.3152 60.624 51.0073C60.1107 50.7876 59.2321 50.7557 58.886 50.3021Z" fill="#FDFCF9"/>
<path d="M51.6292 28.4681C51.6861 28.4867 52.3023 29.0224 52.4001 29.0983C52.122 29.3842 51.9584 29.5219 51.6046 29.717L51.2492 29.8983C51.1361 29.6727 51.0121 29.3584 50.9098 29.1219C51.1342 28.8925 51.3854 28.6808 51.6292 28.4681Z" fill="#3C3C3C"/>
<path d="M55.4056 26.2505C55.5858 26.2353 55.7789 26.2429 55.8543 26.4149L55.8172 26.4596C54.9978 26.7043 54.1991 27.6883 53.5819 27.9059L53.1744 28.0367C53.6625 27.336 54.55 26.5738 55.4056 26.2505Z" fill="#3C3C3C"/>
<path d="M50.7688 27.5866C51.0223 27.8571 51.3355 28.0441 51.603 28.3608C51.2783 28.5153 51.0616 28.7367 50.7816 28.9554C50.757 28.955 50.7324 28.9545 50.7078 28.954C50.2811 28.7638 50.1187 28.6319 49.757 28.3452C50.2277 28.3078 50.3543 28.2215 50.6995 27.937L50.7688 27.5866Z" fill="#3C3C3C"/>
<path d="M61.3701 32.5746C61.6009 32.8394 63.1052 35.7958 63.2213 36.1866C62.8524 35.874 62.6469 35.2265 62.3813 34.8507C61.8444 34.0901 61.6424 33.4418 61.3701 32.5746Z" fill="#3C3C3C"/>
<path d="M53.899 48.7324C54.2783 48.972 54.4225 49.5674 54.4819 49.95C54.4941 50.0282 54.7085 50.2306 54.5407 50.3642L54.473 50.3393C54.2898 50.2292 54.0987 50.1257 53.945 49.984L54.0632 49.5433C53.9114 49.1707 53.6222 49.1121 53.899 48.7324Z" fill="#3C3C3C"/>
<path d="M48.8305 28.8396C49.0181 28.8371 49.4176 28.8221 49.2156 29.1312C49.1226 29.1777 48.8145 29.1877 48.6304 29.2233C48.4684 29.278 48.338 29.3403 48.2114 29.1982C48.23 28.8938 48.5703 28.8587 48.8305 28.8396Z" fill="#3C3C3C"/>
<path d="M55.8297 26.7248C56.0004 26.7155 56.101 26.7358 56.2669 26.7606L56.2282 26.7677C55.5104 26.9087 55.3279 27.3815 54.7568 27.6357L54.363 27.7235C54.712 27.436 55.4264 26.8918 55.8297 26.7248Z" fill="#3C3C3C"/>
<path d="M45.2723 26.1199C45.3484 26.1111 45.4248 26.1051 45.5015 26.1021C46.598 26.0662 46.8796 28.3083 45.6507 28.295C45.6233 28.2729 45.6054 28.2513 45.5814 28.2258C45.9384 28.1988 46.1963 28.1736 46.3043 27.8042C46.4175 27.3762 46.3286 26.9089 46.1148 26.5207C45.8764 26.087 45.5983 26.2447 45.2723 26.1199Z" fill="#3C3C3C"/>
<path d="M62.0008 37.2L62.0517 37.2246C62.0635 37.3849 62.0344 37.5709 62.0162 37.7332L61.4898 37.7402C61.4096 37.6904 61.4409 37.7238 61.4089 37.6254C61.4716 37.4361 61.7864 37.3181 62.0008 37.2Z" fill="#3C3C3C"/>
<path d="M49.5648 25.2014C49.7112 25.1823 49.7608 25.1665 49.8864 25.2357C49.8033 25.3303 49.0726 25.5336 48.8588 25.617C48.7412 25.6661 48.6891 25.7032 48.5648 25.6774L48.5172 25.5941L48.5111 25.6452L48.5456 25.5655C48.7035 25.4482 49.3504 25.2463 49.5648 25.2014Z" fill="#3C3C3C"/>
<path d="M49.8982 26.2066C50.4696 26.2332 50.4367 26.9613 50.4211 27.3421C50.3309 27.2697 50.2124 26.6406 50.1066 26.4796C50.0251 26.3557 50.0033 26.3249 49.8982 26.2066Z" fill="#3C3C3C"/>
<path d="M12.77 13.9797L12.8118 13.9799L12.8401 14.0809C12.7541 14.2109 12.5604 14.1901 12.4455 14.2707C12.379 14.3173 12.3458 14.504 12.2586 14.5573L12.2302 14.5315L12.2343 14.4656C12.3093 14.1907 12.1636 14.1389 11.9554 13.97C12.3174 14.0334 12.4493 14.1354 12.77 13.9797Z" fill="#FDFCF9"/>
<path d="M12.5671 14.3908C12.7149 14.3924 13.0149 14.3506 13.116 14.4218C13.1131 14.5181 13.1265 14.4727 13.0636 14.5594C12.9038 14.5594 12.5948 14.6213 12.5156 14.4928L12.5671 14.3908Z" fill="#FDFCF9"/>
<path d="M47.0857 26.3238C47.4379 26.5028 47.3711 26.9406 47.3538 27.2537C47.3471 27.2439 47.1193 26.4229 47.0857 26.3238Z" fill="#3C3C3C"/>
<path d="M49.7391 25.5818L49.7713 25.5884C49.7256 25.6444 48.9071 25.89 48.7726 25.9266L48.7173 25.8892C48.7985 25.8033 49.5684 25.6259 49.7391 25.5818Z" fill="#9D9E9F"/>
<path d="M48.0477 26.0511C48.1807 26.0595 48.4875 26.0686 48.5776 26.1424C48.4188 26.1747 48.1839 26.1395 48.0477 26.0511Z" fill="#646263"/>
</g>
<defs>
<clipPath id="clip0_9_2081">
<rect width="65.4545" height="60" fill="white"/>
</clipPath>
</defs>
</svg>
