<svg width="20" height="20" viewBox="0 0 20 20" fill="none" xmlns="http://www.w3.org/2000/svg">
<g opacity="0.75" clip-path="url(#clip0_55_207)">
<g clip-path="url(#clip1_55_207)">
<path d="M16.16 2.19774C12.0681 1.48943 7.89194 1.48943 3.8 2.19774C1.46 2.70815 0 4.28107 0 6.33315V13.6248C0 15.7082 1.46 17.2603 3.84 17.7915C5.87551 18.1485 7.93585 18.3297 10 18.3332C12.0705 18.3327 14.1374 18.155 16.18 17.8019C18.5 17.3436 20 15.7186 20 13.6353V6.34357C20 4.27065 18.5 2.64565 16.16 2.19774ZM13.26 10.4686L8.26 13.5936C8.18178 13.6433 8.09157 13.6685 8 13.6665C7.91318 13.6658 7.82767 13.6444 7.75 13.604C7.67137 13.5543 7.60681 13.4838 7.56288 13.3996C7.51897 13.3154 7.49727 13.2206 7.5 13.1248V6.87482C7.50075 6.78257 7.52411 6.69205 7.56787 6.61184C7.61162 6.53163 7.67431 6.46439 7.75 6.41649C7.82843 6.37272 7.91602 6.34982 8.005 6.34982C8.09398 6.34982 8.18157 6.37272 8.26 6.41649L13.26 9.5415C13.3322 9.5895 13.3918 9.65567 13.433 9.734C13.4742 9.81225 13.4958 9.90009 13.4958 9.98942C13.4958 10.0787 13.4742 10.1665 13.433 10.2448C13.3918 10.3231 13.3322 10.3893 13.26 10.4373V10.4686Z" fill="#333333"/>
</g>
</g>
<defs>
<clipPath id="clip0_55_207">
<rect width="20" height="20" fill="white"/>
</clipPath>
<clipPath id="clip1_55_207">
<rect width="20" height="20" fill="white"/>
</clipPath>
</defs>
</svg>
