<svg width="1000" height="752" viewBox="0 0 1000 752" fill="none" xmlns="http://www.w3.org/2000/svg">
<g clip-path="url(#clip0_112_8674)">
<rect width="1000" height="752" rx="24" fill="#E7E7E7"/>
<g clip-path="url(#clip1_112_8674)">
<path d="M65.0568 73.8125V71.5455H78.5653V73.8125H73.1193V89H70.4943V73.8125H65.0568ZM81.4567 93.9091C81.076 93.9091 80.7294 93.8778 80.4169 93.8153C80.1044 93.7585 79.8714 93.696 79.718 93.6278L80.3317 91.5398C80.7976 91.6648 81.2124 91.7188 81.576 91.7017C81.9396 91.6847 82.2607 91.5483 82.5391 91.2926C82.8232 91.0369 83.0732 90.6193 83.2891 90.0398L83.6044 89.1705L78.8146 75.9091H81.5419L84.8572 86.0682H84.9936L88.3089 75.9091H91.0447L85.6499 90.7472C85.3999 91.429 85.0817 92.0057 84.6953 92.4773C84.3089 92.9545 83.8487 93.3125 83.3146 93.5511C82.7805 93.7898 82.1612 93.9091 81.4567 93.9091ZM93.4396 93.9091V75.9091H95.9283V78.0312H96.1413C96.2891 77.7585 96.5021 77.4432 96.7805 77.0852C97.0589 76.7273 97.4453 76.4148 97.9396 76.1477C98.4339 75.875 99.0874 75.7386 99.8999 75.7386C100.957 75.7386 101.9 76.0057 102.729 76.5398C103.559 77.0739 104.21 77.8437 104.681 78.8494C105.158 79.8551 105.397 81.0653 105.397 82.4801C105.397 83.8949 105.161 85.108 104.69 86.1193C104.218 87.125 103.57 87.9006 102.746 88.446C101.923 88.9858 100.982 89.2557 99.9254 89.2557C99.13 89.2557 98.4794 89.1222 97.9737 88.8551C97.4737 88.5881 97.0817 88.2756 96.7976 87.9176C96.5135 87.5597 96.2947 87.2415 96.1413 86.9631H95.9879V93.9091H93.4396ZM95.9368 82.4545C95.9368 83.375 96.0703 84.1818 96.3374 84.875C96.6044 85.5682 96.9908 86.1108 97.4964 86.5028C98.0021 86.8892 98.6214 87.0824 99.3544 87.0824C100.116 87.0824 100.752 86.8807 101.263 86.4773C101.775 86.0682 102.161 85.5142 102.423 84.8153C102.69 84.1165 102.823 83.3295 102.823 82.4545C102.823 81.5909 102.692 80.8153 102.431 80.1278C102.175 79.4403 101.789 78.8977 101.272 78.5C100.761 78.1023 100.121 77.9034 99.3544 77.9034C98.6158 77.9034 97.9908 78.0937 97.4794 78.4744C96.9737 78.8551 96.5902 79.3864 96.3288 80.0682C96.0675 80.75 95.9368 81.5455 95.9368 82.4545ZM113.894 89.2642C112.604 89.2642 111.494 88.9886 110.562 88.4375C109.636 87.8807 108.92 87.0994 108.414 86.0938C107.914 85.0824 107.664 83.8977 107.664 82.5398C107.664 81.1989 107.914 80.017 108.414 78.9943C108.92 77.9716 109.624 77.1733 110.528 76.5994C111.437 76.0256 112.499 75.7386 113.715 75.7386C114.454 75.7386 115.17 75.8608 115.863 76.1051C116.556 76.3494 117.178 76.733 117.729 77.2557C118.281 77.7784 118.715 78.4574 119.033 79.2926C119.352 80.1222 119.511 81.1307 119.511 82.3182V83.2216H109.104V81.3125H117.013C117.013 80.642 116.877 80.0483 116.604 79.5312C116.332 79.0085 115.948 78.5966 115.454 78.2955C114.965 77.9943 114.391 77.8438 113.732 77.8438C113.016 77.8438 112.391 78.0199 111.857 78.3722C111.329 78.7187 110.92 79.1733 110.63 79.7358C110.346 80.2926 110.204 80.8977 110.204 81.5511V83.0426C110.204 83.9176 110.357 84.6619 110.664 85.2756C110.977 85.8892 111.411 86.358 111.968 86.6818C112.525 87 113.175 87.1591 113.92 87.1591C114.403 87.1591 114.843 87.0909 115.241 86.9545C115.638 86.8125 115.982 86.6023 116.272 86.3239C116.562 86.0455 116.783 85.7017 116.937 85.2926L119.349 85.7273C119.156 86.4375 118.809 87.0597 118.309 87.5938C117.815 88.1222 117.192 88.5341 116.442 88.8295C115.698 89.1193 114.849 89.2642 113.894 89.2642ZM128.894 89V71.5455H139.718V73.8125H131.528V79.1307H138.942V81.3892H131.528V89H128.894ZM146.515 89.2898C145.685 89.2898 144.935 89.1364 144.265 88.8295C143.594 88.517 143.063 88.0653 142.671 87.4744C142.285 86.8835 142.092 86.1591 142.092 85.3011C142.092 84.5625 142.234 83.9545 142.518 83.4773C142.802 83 143.185 82.6222 143.668 82.3438C144.151 82.0653 144.691 81.8551 145.288 81.7131C145.884 81.571 146.492 81.4631 147.112 81.3892C147.896 81.2983 148.532 81.2244 149.021 81.1676C149.509 81.1051 149.864 81.0057 150.086 80.8693C150.308 80.733 150.418 80.5114 150.418 80.2045V80.1449C150.418 79.4006 150.208 78.8239 149.788 78.4148C149.373 78.0057 148.754 77.8011 147.93 77.8011C147.072 77.8011 146.396 77.9915 145.901 78.3722C145.413 78.7472 145.075 79.1648 144.887 79.625L142.492 79.0795C142.776 78.2841 143.191 77.642 143.737 77.1534C144.288 76.6591 144.921 76.3011 145.637 76.0795C146.353 75.8523 147.106 75.7386 147.896 75.7386C148.418 75.7386 148.972 75.8011 149.558 75.9261C150.148 76.0455 150.7 76.267 151.211 76.5909C151.728 76.9148 152.151 77.3778 152.481 77.9801C152.81 78.5767 152.975 79.3523 152.975 80.3068V89H150.487V87.2102H150.384C150.219 87.5398 149.972 87.8636 149.643 88.1818C149.313 88.5 148.89 88.7642 148.373 88.9744C147.856 89.1847 147.237 89.2898 146.515 89.2898ZM147.069 87.2443C147.773 87.2443 148.376 87.1051 148.876 86.8267C149.381 86.5483 149.765 86.1847 150.026 85.7358C150.293 85.2812 150.427 84.7955 150.427 84.2784V82.5909C150.336 82.6818 150.16 82.767 149.898 82.8466C149.643 82.9205 149.35 82.9858 149.021 83.0426C148.691 83.0937 148.37 83.142 148.058 83.1875C147.745 83.2273 147.484 83.2614 147.273 83.2898C146.779 83.3523 146.327 83.4574 145.918 83.6051C145.515 83.7528 145.191 83.9659 144.947 84.2443C144.708 84.517 144.589 84.8807 144.589 85.3352C144.589 85.9659 144.822 86.4432 145.288 86.767C145.754 87.0852 146.347 87.2443 147.069 87.2443ZM161.884 89.2642C160.616 89.2642 159.526 88.9773 158.611 88.4034C157.702 87.8239 157.003 87.0256 156.514 86.0085C156.026 84.9915 155.781 83.8267 155.781 82.5142C155.781 81.1847 156.031 80.0114 156.531 78.9943C157.031 77.9716 157.736 77.1733 158.645 76.5994C159.554 76.0256 160.625 75.7386 161.858 75.7386C162.852 75.7386 163.739 75.9233 164.517 76.2926C165.295 76.6562 165.923 77.1676 166.401 77.8267C166.884 78.4858 167.17 79.2557 167.261 80.1364H164.781C164.645 79.5227 164.332 78.9943 163.844 78.5511C163.361 78.108 162.713 77.8864 161.901 77.8864C161.19 77.8864 160.568 78.0739 160.034 78.4489C159.506 78.8182 159.094 79.3466 158.798 80.0341C158.503 80.7159 158.355 81.5227 158.355 82.4545C158.355 83.4091 158.5 84.233 158.79 84.9261C159.08 85.6193 159.489 86.1562 160.017 86.5369C160.551 86.9176 161.179 87.108 161.901 87.108C162.384 87.108 162.821 87.0199 163.213 86.8438C163.611 86.6619 163.943 86.4034 164.21 86.0682C164.483 85.733 164.673 85.3295 164.781 84.858H167.261C167.17 85.7045 166.895 86.4602 166.435 87.125C165.974 87.7898 165.358 88.3125 164.585 88.6932C163.818 89.0739 162.918 89.2642 161.884 89.2642ZM175.629 89.2642C174.339 89.2642 173.228 88.9886 172.296 88.4375C171.37 87.8807 170.654 87.0994 170.148 86.0938C169.648 85.0824 169.398 83.8977 169.398 82.5398C169.398 81.1989 169.648 80.017 170.148 78.9943C170.654 77.9716 171.359 77.1733 172.262 76.5994C173.171 76.0256 174.234 75.7386 175.45 75.7386C176.188 75.7386 176.904 75.8608 177.597 76.1051C178.29 76.3494 178.913 76.733 179.464 77.2557C180.015 77.7784 180.45 78.4574 180.768 79.2926C181.086 80.1222 181.245 81.1307 181.245 82.3182V83.2216H170.839V81.3125H178.748C178.748 80.642 178.612 80.0483 178.339 79.5312C178.066 79.0085 177.683 78.5966 177.188 78.2955C176.7 77.9943 176.126 77.8438 175.467 77.8438C174.751 77.8438 174.126 78.0199 173.592 78.3722C173.063 78.7187 172.654 79.1733 172.364 79.7358C172.08 80.2926 171.938 80.8977 171.938 81.5511V83.0426C171.938 83.9176 172.092 84.6619 172.398 85.2756C172.711 85.8892 173.146 86.358 173.702 86.6818C174.259 87 174.91 87.1591 175.654 87.1591C176.137 87.1591 176.577 87.0909 176.975 86.9545C177.373 86.8125 177.717 86.6023 178.006 86.3239C178.296 86.0455 178.518 85.7017 178.671 85.2926L181.083 85.7273C180.89 86.4375 180.543 87.0597 180.043 87.5938C179.549 88.1222 178.927 88.5341 178.177 88.8295C177.433 89.1193 176.583 89.2642 175.629 89.2642Z" fill="#666D80"/>
<path d="M76.1364 112.455V159H69.1136V112.455H76.1364ZM92.1136 138.273V159H85.3182V124.091H91.8409V129.773H92.2727C93.0758 127.924 94.3333 126.439 96.0455 125.318C97.7727 124.197 99.947 123.636 102.568 123.636C104.947 123.636 107.03 124.136 108.818 125.136C110.606 126.121 111.992 127.591 112.977 129.545C113.962 131.5 114.455 133.917 114.455 136.795V159H107.659V137.614C107.659 135.083 107 133.106 105.682 131.682C104.364 130.242 102.553 129.523 100.25 129.523C98.6742 129.523 97.2727 129.864 96.0455 130.545C94.8333 131.227 93.8712 132.227 93.1591 133.545C92.4621 134.848 92.1136 136.424 92.1136 138.273ZM139.364 124.091V129.545H120.295V124.091H139.364ZM125.409 115.727H132.205V148.75C132.205 150.068 132.402 151.061 132.795 151.727C133.189 152.379 133.697 152.826 134.318 153.068C134.955 153.295 135.644 153.409 136.386 153.409C136.932 153.409 137.409 153.371 137.818 153.295C138.227 153.22 138.545 153.159 138.773 153.114L140 158.727C139.606 158.879 139.045 159.03 138.318 159.182C137.591 159.348 136.682 159.439 135.591 159.455C133.803 159.485 132.136 159.167 130.591 158.5C129.045 157.833 127.795 156.803 126.841 155.409C125.886 154.015 125.409 152.265 125.409 150.159V115.727ZM161.051 159.705C157.612 159.705 154.65 158.97 152.165 157.5C149.695 156.015 147.786 153.932 146.438 151.25C145.104 148.553 144.438 145.394 144.438 141.773C144.438 138.197 145.104 135.045 146.438 132.318C147.786 129.591 149.665 127.462 152.074 125.932C154.498 124.402 157.331 123.636 160.574 123.636C162.544 123.636 164.453 123.962 166.301 124.614C168.15 125.265 169.809 126.288 171.278 127.682C172.748 129.076 173.907 130.886 174.756 133.114C175.604 135.326 176.028 138.015 176.028 141.182V143.591H148.278V138.5H169.369C169.369 136.712 169.006 135.129 168.278 133.75C167.551 132.356 166.528 131.258 165.21 130.455C163.907 129.652 162.377 129.25 160.619 129.25C158.71 129.25 157.044 129.72 155.619 130.659C154.21 131.583 153.119 132.795 152.347 134.295C151.589 135.78 151.21 137.394 151.21 139.136V143.114C151.21 145.447 151.619 147.432 152.438 149.068C153.271 150.705 154.43 151.955 155.915 152.818C157.4 153.667 159.134 154.091 161.119 154.091C162.407 154.091 163.581 153.909 164.642 153.545C165.703 153.167 166.619 152.606 167.392 151.864C168.165 151.121 168.756 150.205 169.165 149.114L175.597 150.273C175.081 152.167 174.157 153.826 172.824 155.25C171.506 156.659 169.847 157.758 167.847 158.545C165.862 159.318 163.597 159.705 161.051 159.705ZM183.068 159V124.091H189.636V129.636H190C190.636 127.758 191.758 126.28 193.364 125.205C194.985 124.114 196.818 123.568 198.864 123.568C199.288 123.568 199.788 123.583 200.364 123.614C200.955 123.644 201.417 123.682 201.75 123.727V130.227C201.477 130.152 200.992 130.068 200.295 129.977C199.598 129.871 198.902 129.818 198.205 129.818C196.598 129.818 195.167 130.159 193.909 130.841C192.667 131.508 191.682 132.439 190.955 133.636C190.227 134.818 189.864 136.167 189.864 137.682V159H183.068Z" fill="#0A0D11"/>
<path d="M68.5227 234H64.7955L73.1705 210.727H77.2273L85.6023 234H81.875L75.2955 214.955H75.1136L68.5227 234ZM69.1477 224.886H81.2386V227.841H69.1477V224.886ZM93.7699 234.386C92.6638 234.386 91.6638 234.182 90.7699 233.773C89.8759 233.356 89.1676 232.754 88.6449 231.966C88.1297 231.178 87.8722 230.212 87.8722 229.068C87.8722 228.083 88.0616 227.273 88.4403 226.636C88.8191 226 89.3305 225.496 89.9744 225.125C90.6184 224.754 91.3381 224.473 92.1335 224.284C92.929 224.095 93.7396 223.951 94.5653 223.852C95.6108 223.731 96.4593 223.633 97.1108 223.557C97.7623 223.473 98.2358 223.341 98.5312 223.159C98.8267 222.977 98.9744 222.682 98.9744 222.273V222.193C98.9744 221.201 98.6941 220.432 98.1335 219.886C97.5805 219.341 96.7547 219.068 95.6562 219.068C94.5123 219.068 93.6108 219.322 92.9517 219.83C92.3002 220.33 91.8494 220.886 91.5994 221.5L88.4062 220.773C88.785 219.712 89.3381 218.856 90.0653 218.205C90.8002 217.545 91.6449 217.068 92.5994 216.773C93.554 216.47 94.5578 216.318 95.6108 216.318C96.3078 216.318 97.0464 216.402 97.8267 216.568C98.6146 216.727 99.3494 217.023 100.031 217.455C100.721 217.886 101.285 218.504 101.724 219.307C102.164 220.102 102.384 221.136 102.384 222.409V234H99.0653V231.614H98.929C98.7093 232.053 98.3797 232.485 97.9403 232.909C97.5009 233.333 96.9366 233.686 96.2472 233.966C95.5578 234.246 94.732 234.386 93.7699 234.386ZM94.5085 231.659C95.4479 231.659 96.2509 231.473 96.9176 231.102C97.5919 230.731 98.1032 230.246 98.4517 229.648C98.8078 229.042 98.9858 228.394 98.9858 227.705V225.455C98.8646 225.576 98.6297 225.689 98.2812 225.795C97.9403 225.894 97.5502 225.981 97.1108 226.057C96.6714 226.125 96.2434 226.189 95.8267 226.25C95.41 226.303 95.0616 226.348 94.7812 226.386C94.1222 226.47 93.5199 226.61 92.9744 226.807C92.4366 227.004 92.0047 227.288 91.679 227.659C91.3608 228.023 91.2017 228.508 91.2017 229.114C91.2017 229.955 91.5123 230.591 92.1335 231.023C92.7547 231.447 93.5464 231.659 94.5085 231.659ZM107.182 234V210.727H115.705C117.356 210.727 118.723 211 119.807 211.545C120.89 212.083 121.701 212.814 122.239 213.739C122.777 214.655 123.045 215.689 123.045 216.841C123.045 217.811 122.867 218.629 122.511 219.295C122.155 219.955 121.678 220.485 121.08 220.886C120.489 221.28 119.837 221.568 119.125 221.75V221.977C119.898 222.015 120.652 222.265 121.386 222.727C122.129 223.182 122.742 223.83 123.227 224.67C123.712 225.511 123.955 226.534 123.955 227.739C123.955 228.928 123.674 229.996 123.114 230.943C122.561 231.883 121.705 232.629 120.545 233.182C119.386 233.727 117.905 234 116.102 234H107.182ZM110.693 230.989H115.761C117.443 230.989 118.648 230.663 119.375 230.011C120.102 229.36 120.466 228.545 120.466 227.568C120.466 226.833 120.28 226.159 119.909 225.545C119.538 224.932 119.008 224.443 118.318 224.08C117.636 223.716 116.826 223.534 115.886 223.534H110.693V230.989ZM110.693 220.795H115.398C116.186 220.795 116.894 220.644 117.523 220.341C118.159 220.038 118.663 219.614 119.034 219.068C119.413 218.515 119.602 217.864 119.602 217.114C119.602 216.152 119.265 215.345 118.591 214.693C117.917 214.042 116.883 213.716 115.489 213.716H110.693V220.795ZM128.119 234V210.727H131.517V219.375H131.722C131.919 219.011 132.203 218.591 132.574 218.114C132.945 217.636 133.46 217.22 134.119 216.864C134.778 216.5 135.65 216.318 136.733 216.318C138.142 216.318 139.4 216.674 140.506 217.386C141.612 218.098 142.479 219.125 143.108 220.466C143.744 221.807 144.062 223.42 144.062 225.307C144.062 227.193 143.748 228.811 143.119 230.159C142.491 231.5 141.627 232.534 140.528 233.261C139.43 233.981 138.176 234.341 136.767 234.341C135.706 234.341 134.839 234.163 134.165 233.807C133.498 233.451 132.975 233.034 132.597 232.557C132.218 232.08 131.926 231.655 131.722 231.284H131.438V234H128.119ZM131.449 225.273C131.449 226.5 131.627 227.576 131.983 228.5C132.339 229.424 132.854 230.148 133.528 230.67C134.203 231.186 135.028 231.443 136.006 231.443C137.021 231.443 137.869 231.174 138.551 230.636C139.233 230.091 139.748 229.352 140.097 228.42C140.453 227.489 140.631 226.439 140.631 225.273C140.631 224.121 140.456 223.087 140.108 222.17C139.767 221.254 139.252 220.53 138.562 220C137.881 219.47 137.028 219.205 136.006 219.205C135.021 219.205 134.188 219.458 133.506 219.966C132.831 220.473 132.32 221.182 131.972 222.091C131.623 223 131.449 224.061 131.449 225.273ZM167.48 218.295H163.935C163.798 217.538 163.545 216.871 163.173 216.295C162.802 215.72 162.348 215.231 161.81 214.83C161.272 214.428 160.67 214.125 160.003 213.92C159.344 213.716 158.643 213.614 157.901 213.614C156.56 213.614 155.359 213.951 154.298 214.625C153.245 215.299 152.412 216.288 151.798 217.591C151.192 218.894 150.889 220.485 150.889 222.364C150.889 224.258 151.192 225.856 151.798 227.159C152.412 228.462 153.249 229.447 154.31 230.114C155.37 230.78 156.563 231.114 157.889 231.114C158.624 231.114 159.321 231.015 159.98 230.818C160.647 230.614 161.249 230.314 161.787 229.92C162.325 229.527 162.779 229.045 163.151 228.477C163.529 227.902 163.791 227.242 163.935 226.5L167.48 226.511C167.291 227.655 166.923 228.708 166.378 229.67C165.84 230.625 165.147 231.451 164.298 232.148C163.457 232.837 162.495 233.371 161.412 233.75C160.329 234.129 159.147 234.318 157.866 234.318C155.851 234.318 154.056 233.841 152.48 232.886C150.904 231.924 149.662 230.549 148.753 228.761C147.851 226.973 147.401 224.841 147.401 222.364C147.401 219.879 147.855 217.746 148.764 215.966C149.673 214.178 150.916 212.807 152.491 211.852C154.067 210.89 155.859 210.409 157.866 210.409C159.101 210.409 160.253 210.587 161.321 210.943C162.397 211.292 163.363 211.807 164.219 212.489C165.075 213.163 165.783 213.989 166.344 214.966C166.904 215.936 167.283 217.045 167.48 218.295ZM178.761 234.352C177.072 234.352 175.617 233.97 174.398 233.205C173.186 232.432 172.254 231.367 171.602 230.011C170.951 228.655 170.625 227.102 170.625 225.352C170.625 223.58 170.958 222.015 171.625 220.659C172.292 219.295 173.231 218.231 174.443 217.466C175.655 216.701 177.083 216.318 178.727 216.318C180.053 216.318 181.235 216.564 182.273 217.057C183.311 217.542 184.148 218.223 184.784 219.102C185.428 219.981 185.811 221.008 185.932 222.182H182.625C182.443 221.364 182.027 220.659 181.375 220.068C180.731 219.477 179.867 219.182 178.784 219.182C177.837 219.182 177.008 219.432 176.295 219.932C175.591 220.424 175.042 221.129 174.648 222.045C174.254 222.955 174.057 224.03 174.057 225.273C174.057 226.545 174.25 227.644 174.636 228.568C175.023 229.492 175.568 230.208 176.273 230.716C176.985 231.223 177.822 231.477 178.784 231.477C179.428 231.477 180.011 231.36 180.534 231.125C181.064 230.883 181.508 230.538 181.864 230.091C182.227 229.644 182.481 229.106 182.625 228.477H185.932C185.811 229.606 185.443 230.614 184.83 231.5C184.216 232.386 183.394 233.083 182.364 233.591C181.341 234.098 180.14 234.352 178.761 234.352ZM75.0682 246.727V270H71.5455V250.25H71.4091L65.8409 253.886V250.523L71.6477 246.727H75.0682ZM81.3636 270V267.455L89.2386 259.295C90.0795 258.409 90.7727 257.633 91.3182 256.966C91.8712 256.292 92.2841 255.652 92.5568 255.045C92.8295 254.439 92.9659 253.795 92.9659 253.114C92.9659 252.341 92.7841 251.674 92.4205 251.114C92.0568 250.545 91.5606 250.11 90.9318 249.807C90.303 249.496 89.5947 249.341 88.8068 249.341C87.9735 249.341 87.2462 249.511 86.625 249.852C86.0038 250.193 85.5265 250.674 85.1932 251.295C84.8598 251.917 84.6932 252.644 84.6932 253.477H81.3409C81.3409 252.061 81.6667 250.822 82.3182 249.761C82.9697 248.701 83.8636 247.879 85 247.295C86.1364 246.705 87.428 246.409 88.875 246.409C90.3371 246.409 91.625 246.701 92.7386 247.284C93.8598 247.86 94.7348 248.648 95.3636 249.648C95.9924 250.64 96.3068 251.761 96.3068 253.011C96.3068 253.875 96.1439 254.72 95.8182 255.545C95.5 256.371 94.9432 257.292 94.1477 258.307C93.3523 259.314 92.2462 260.538 90.8295 261.977L86.2045 266.818V266.989H96.6818V270H81.3636ZM109.091 270.318C107.53 270.318 106.136 270.049 104.909 269.511C103.689 268.973 102.723 268.227 102.011 267.273C101.307 266.311 100.928 265.197 100.875 263.932H104.443C104.489 264.621 104.72 265.22 105.136 265.727C105.561 266.227 106.114 266.614 106.795 266.886C107.477 267.159 108.235 267.295 109.068 267.295C109.985 267.295 110.795 267.136 111.5 266.818C112.212 266.5 112.769 266.057 113.17 265.489C113.572 264.913 113.773 264.25 113.773 263.5C113.773 262.72 113.572 262.034 113.17 261.443C112.777 260.845 112.197 260.375 111.432 260.034C110.674 259.693 109.758 259.523 108.682 259.523H106.716V256.659H108.682C109.545 256.659 110.303 256.504 110.955 256.193C111.614 255.883 112.129 255.451 112.5 254.898C112.871 254.337 113.057 253.682 113.057 252.932C113.057 252.212 112.894 251.587 112.568 251.057C112.25 250.519 111.795 250.098 111.205 249.795C110.621 249.492 109.932 249.341 109.136 249.341C108.379 249.341 107.67 249.481 107.011 249.761C106.36 250.034 105.83 250.428 105.42 250.943C105.011 251.451 104.792 252.061 104.761 252.773H101.364C101.402 251.515 101.773 250.409 102.477 249.455C103.189 248.5 104.129 247.754 105.295 247.216C106.462 246.678 107.758 246.409 109.182 246.409C110.674 246.409 111.962 246.701 113.045 247.284C114.136 247.86 114.977 248.629 115.568 249.591C116.167 250.553 116.462 251.606 116.455 252.75C116.462 254.053 116.098 255.159 115.364 256.068C114.636 256.977 113.667 257.587 112.455 257.898V258.08C114 258.314 115.197 258.928 116.045 259.92C116.902 260.913 117.326 262.144 117.318 263.614C117.326 264.894 116.97 266.042 116.25 267.057C115.538 268.072 114.564 268.871 113.33 269.455C112.095 270.03 110.682 270.318 109.091 270.318ZM121.125 265.455V262.614L131.182 246.727H133.42V250.909H132L124.807 262.295V262.477H138.591V265.455H121.125ZM132.159 270V264.591L132.182 263.295V246.727H135.511V270H132.159ZM150.233 270.318C148.809 270.318 147.528 270.045 146.392 269.5C145.263 268.947 144.362 268.189 143.688 267.227C143.013 266.265 142.653 265.167 142.608 263.932H146.017C146.1 264.932 146.544 265.754 147.347 266.398C148.15 267.042 149.112 267.364 150.233 267.364C151.127 267.364 151.919 267.159 152.608 266.75C153.305 266.333 153.85 265.761 154.244 265.034C154.646 264.307 154.847 263.477 154.847 262.545C154.847 261.598 154.642 260.754 154.233 260.011C153.824 259.269 153.259 258.686 152.54 258.261C151.828 257.837 151.009 257.621 150.085 257.614C149.381 257.614 148.672 257.735 147.96 257.977C147.248 258.22 146.672 258.538 146.233 258.932L143.017 258.455L144.324 246.727H157.119V249.739H147.244L146.506 256.25H146.642C147.097 255.811 147.699 255.443 148.449 255.148C149.206 254.852 150.017 254.705 150.881 254.705C152.297 254.705 153.559 255.042 154.665 255.716C155.778 256.39 156.653 257.311 157.29 258.477C157.934 259.636 158.252 260.97 158.244 262.477C158.252 263.985 157.911 265.33 157.222 266.511C156.54 267.693 155.593 268.625 154.381 269.307C153.176 269.981 151.794 270.318 150.233 270.318ZM170.52 270.318C169.482 270.303 168.459 270.114 167.452 269.75C166.452 269.386 165.543 268.78 164.724 267.932C163.906 267.083 163.251 265.943 162.759 264.511C162.274 263.08 162.031 261.292 162.031 259.148C162.031 257.117 162.232 255.314 162.634 253.739C163.043 252.163 163.63 250.833 164.395 249.75C165.16 248.659 166.084 247.83 167.168 247.261C168.251 246.693 169.467 246.409 170.815 246.409C172.202 246.409 173.433 246.682 174.509 247.227C175.584 247.773 176.455 248.527 177.122 249.489C177.796 250.451 178.224 251.545 178.406 252.773H174.94C174.705 251.803 174.24 251.011 173.543 250.398C172.846 249.784 171.937 249.477 170.815 249.477C169.111 249.477 167.781 250.22 166.827 251.705C165.88 253.189 165.402 255.254 165.395 257.898H165.565C165.967 257.239 166.459 256.678 167.043 256.216C167.634 255.746 168.293 255.386 169.02 255.136C169.755 254.879 170.527 254.75 171.338 254.75C172.687 254.75 173.906 255.08 174.997 255.739C176.096 256.39 176.971 257.292 177.622 258.443C178.274 259.595 178.599 260.913 178.599 262.398C178.599 263.883 178.262 265.227 177.588 266.432C176.921 267.636 175.982 268.591 174.77 269.295C173.558 269.992 172.141 270.333 170.52 270.318ZM170.509 267.364C171.402 267.364 172.202 267.144 172.906 266.705C173.611 266.265 174.168 265.674 174.577 264.932C174.986 264.189 175.19 263.36 175.19 262.443C175.19 261.549 174.99 260.735 174.588 260C174.194 259.265 173.649 258.682 172.952 258.25C172.262 257.818 171.474 257.602 170.588 257.602C169.914 257.602 169.289 257.731 168.713 257.989C168.145 258.246 167.645 258.602 167.213 259.057C166.781 259.511 166.44 260.034 166.19 260.625C165.948 261.208 165.827 261.826 165.827 262.477C165.827 263.348 166.027 264.155 166.429 264.898C166.838 265.64 167.395 266.239 168.099 266.693C168.812 267.14 169.615 267.364 170.509 267.364ZM183.523 270L193.682 249.909V249.739H181.932V246.727H197.318V249.841L187.193 270H183.523ZM208.665 270.318C207.036 270.318 205.597 270.038 204.347 269.477C203.104 268.917 202.131 268.144 201.426 267.159C200.722 266.174 200.373 265.053 200.381 263.795C200.373 262.811 200.574 261.905 200.983 261.08C201.4 260.246 201.964 259.553 202.676 259C203.388 258.439 204.184 258.083 205.062 257.932V257.795C203.903 257.515 202.975 256.894 202.278 255.932C201.581 254.97 201.237 253.864 201.244 252.614C201.237 251.424 201.551 250.364 202.188 249.432C202.831 248.492 203.714 247.754 204.835 247.216C205.956 246.678 207.233 246.409 208.665 246.409C210.081 246.409 211.347 246.682 212.46 247.227C213.581 247.765 214.464 248.504 215.108 249.443C215.752 250.375 216.078 251.432 216.085 252.614C216.078 253.864 215.722 254.97 215.017 255.932C214.313 256.894 213.396 257.515 212.267 257.795V257.932C213.138 258.083 213.922 258.439 214.619 259C215.324 259.553 215.884 260.246 216.301 261.08C216.725 261.905 216.941 262.811 216.949 263.795C216.941 265.053 216.585 266.174 215.881 267.159C215.176 268.144 214.199 268.917 212.949 269.477C211.706 270.038 210.278 270.318 208.665 270.318ZM208.665 267.443C209.627 267.443 210.46 267.284 211.165 266.966C211.869 266.64 212.415 266.189 212.801 265.614C213.188 265.03 213.384 264.348 213.392 263.568C213.384 262.758 213.172 262.042 212.756 261.42C212.347 260.799 211.79 260.311 211.085 259.955C210.381 259.598 209.574 259.42 208.665 259.42C207.748 259.42 206.934 259.598 206.222 259.955C205.509 260.311 204.949 260.799 204.54 261.42C204.131 262.042 203.93 262.758 203.938 263.568C203.93 264.348 204.116 265.03 204.494 265.614C204.881 266.189 205.43 266.64 206.142 266.966C206.854 267.284 207.695 267.443 208.665 267.443ZM208.665 256.614C209.438 256.614 210.123 256.458 210.722 256.148C211.32 255.837 211.79 255.405 212.131 254.852C212.479 254.299 212.657 253.652 212.665 252.909C212.657 252.182 212.483 251.545 212.142 251C211.809 250.455 211.343 250.034 210.744 249.739C210.146 249.436 209.453 249.284 208.665 249.284C207.862 249.284 207.157 249.436 206.551 249.739C205.953 250.034 205.487 250.455 205.153 251C204.82 251.545 204.657 252.182 204.665 252.909C204.657 253.652 204.824 254.299 205.165 254.852C205.506 255.405 205.975 255.837 206.574 256.148C207.18 256.458 207.877 256.614 208.665 256.614ZM228.759 246.409C229.796 246.417 230.819 246.606 231.827 246.977C232.834 247.348 233.743 247.955 234.554 248.795C235.372 249.636 236.024 250.773 236.509 252.205C237.001 253.629 237.251 255.402 237.259 257.523C237.259 259.561 237.054 261.375 236.645 262.966C236.236 264.549 235.649 265.886 234.884 266.977C234.126 268.068 233.205 268.898 232.122 269.466C231.039 270.034 229.819 270.318 228.463 270.318C227.077 270.318 225.846 270.045 224.77 269.5C223.694 268.955 222.819 268.201 222.145 267.239C221.471 266.269 221.05 265.155 220.884 263.898H224.349C224.577 264.898 225.039 265.708 225.736 266.33C226.44 266.943 227.349 267.25 228.463 267.25C230.168 267.25 231.497 266.508 232.452 265.023C233.406 263.53 233.887 261.447 233.895 258.773H233.713C233.319 259.424 232.827 259.985 232.236 260.455C231.652 260.924 230.997 261.288 230.27 261.545C229.543 261.803 228.766 261.932 227.94 261.932C226.599 261.932 225.38 261.602 224.281 260.943C223.183 260.284 222.308 259.379 221.656 258.227C221.005 257.076 220.679 255.761 220.679 254.284C220.679 252.814 221.012 251.481 221.679 250.284C222.353 249.087 223.293 248.14 224.497 247.443C225.709 246.739 227.13 246.394 228.759 246.409ZM228.77 249.364C227.884 249.364 227.084 249.583 226.372 250.023C225.668 250.455 225.111 251.042 224.702 251.784C224.293 252.519 224.088 253.337 224.088 254.239C224.088 255.14 224.285 255.958 224.679 256.693C225.08 257.42 225.626 258 226.315 258.432C227.012 258.856 227.808 259.068 228.702 259.068C229.368 259.068 229.99 258.939 230.565 258.682C231.141 258.424 231.645 258.068 232.077 257.614C232.509 257.152 232.846 256.629 233.088 256.045C233.33 255.462 233.452 254.848 233.452 254.205C233.452 253.348 233.247 252.553 232.838 251.818C232.437 251.083 231.884 250.492 231.179 250.045C230.474 249.591 229.671 249.364 228.77 249.364ZM249.466 270.386C247.67 270.379 246.136 269.905 244.864 268.966C243.591 268.027 242.617 266.659 241.943 264.864C241.269 263.068 240.932 260.905 240.932 258.375C240.932 255.852 241.269 253.697 241.943 251.909C242.625 250.121 243.602 248.758 244.875 247.818C246.155 246.879 247.686 246.409 249.466 246.409C251.246 246.409 252.773 246.883 254.045 247.83C255.318 248.769 256.292 250.133 256.966 251.92C257.648 253.701 257.989 255.852 257.989 258.375C257.989 260.913 257.652 263.08 256.977 264.875C256.303 266.663 255.33 268.03 254.057 268.977C252.784 269.917 251.254 270.386 249.466 270.386ZM249.466 267.352C251.042 267.352 252.273 266.583 253.159 265.045C254.053 263.508 254.5 261.284 254.5 258.375C254.5 256.443 254.295 254.811 253.886 253.477C253.485 252.136 252.905 251.121 252.148 250.432C251.398 249.735 250.504 249.386 249.466 249.386C247.898 249.386 246.667 250.159 245.773 251.705C244.879 253.25 244.428 255.473 244.42 258.375C244.42 260.314 244.621 261.955 245.023 263.295C245.432 264.629 246.011 265.64 246.761 266.33C247.511 267.011 248.413 267.352 249.466 267.352ZM80.2955 312.33C77.947 312.33 75.8636 312.008 74.0455 311.364C72.2348 310.727 70.7083 309.788 69.4659 308.545C68.2235 307.311 67.2803 305.795 66.6364 304C65.9924 302.205 65.6705 300.155 65.6705 297.852C65.6705 295.61 65.9962 293.595 66.6477 291.807C67.2992 290.019 68.2462 288.496 69.4886 287.239C70.7386 285.973 72.2576 285.008 74.0455 284.341C75.8333 283.674 77.8636 283.341 80.1364 283.341C82.3106 283.341 84.2273 283.682 85.8864 284.364C87.5455 285.045 88.9394 285.981 90.0682 287.17C91.2045 288.36 92.0606 289.723 92.6364 291.261C93.2121 292.799 93.5 294.424 93.5 296.136C93.5 297.333 93.4242 298.504 93.2727 299.648C93.1212 300.784 92.8409 301.814 92.4318 302.739C92.0303 303.655 91.447 304.39 90.6818 304.943C89.9242 305.489 88.9394 305.773 87.7273 305.795C87.0833 305.818 86.4583 305.742 85.8523 305.568C85.2462 305.394 84.7311 305.114 84.3068 304.727C83.8826 304.333 83.625 303.833 83.5341 303.227H83.3977C83.2159 303.674 82.9129 304.091 82.4886 304.477C82.0644 304.856 81.5227 305.159 80.8636 305.386C80.2121 305.606 79.4545 305.697 78.5909 305.659C77.6364 305.621 76.7765 305.405 76.0114 305.011C75.2462 304.617 74.5909 304.072 74.0455 303.375C73.5076 302.678 73.0947 301.852 72.8068 300.898C72.5189 299.943 72.375 298.883 72.375 297.716C72.375 296.595 72.5379 295.591 72.8636 294.705C73.1894 293.811 73.6326 293.042 74.1932 292.398C74.7614 291.746 75.4129 291.231 76.1477 290.852C76.8826 290.473 77.6591 290.235 78.4773 290.136C79.2727 290.045 80.0038 290.068 80.6705 290.205C81.3371 290.341 81.8902 290.549 82.3295 290.83C82.7765 291.11 83.0568 291.417 83.1705 291.75H83.3182V290.477H86.1136V301.023C86.1136 301.621 86.2689 302.129 86.5795 302.545C86.8977 302.962 87.3485 303.17 87.9318 303.17C88.6212 303.17 89.1591 302.917 89.5455 302.409C89.9394 301.902 90.2159 301.121 90.375 300.068C90.5417 299.015 90.625 297.667 90.625 296.023C90.625 294.871 90.4697 293.788 90.1591 292.773C89.8561 291.75 89.4053 290.826 88.8068 290C88.2159 289.167 87.4886 288.451 86.625 287.852C85.7614 287.254 84.7765 286.792 83.6705 286.466C82.572 286.14 81.3561 285.977 80.0227 285.977C78.2121 285.977 76.6023 286.258 75.1932 286.818C73.7841 287.371 72.5947 288.17 71.625 289.216C70.6629 290.261 69.9318 291.515 69.4318 292.977C68.9394 294.432 68.6932 296.064 68.6932 297.875C68.6932 299.761 68.947 301.436 69.4545 302.898C69.9621 304.352 70.7121 305.58 71.7045 306.58C72.697 307.58 73.9242 308.337 75.3864 308.852C76.8485 309.375 78.5341 309.636 80.4432 309.636C81.2917 309.636 82.125 309.561 82.9432 309.409C83.7614 309.265 84.4886 309.098 85.125 308.909C85.7689 308.727 86.25 308.58 86.5682 308.466L87.3636 310.955C86.8939 311.174 86.2689 311.39 85.4886 311.602C84.7159 311.814 83.875 311.989 82.9659 312.125C82.0644 312.261 81.1742 312.33 80.2955 312.33ZM79.25 302.875C80.2348 302.875 81.0265 302.678 81.625 302.284C82.2311 301.89 82.6667 301.303 82.9318 300.523C83.2045 299.735 83.3409 298.75 83.3409 297.568C83.3333 296.417 83.1856 295.5 82.8977 294.818C82.6174 294.129 82.178 293.636 81.5795 293.341C80.9886 293.038 80.2273 292.886 79.2955 292.886C78.4394 292.886 77.7083 293.095 77.1023 293.511C76.5038 293.928 76.0455 294.492 75.7273 295.205C75.4167 295.917 75.2576 296.708 75.25 297.58C75.2576 298.496 75.3864 299.36 75.6364 300.17C75.8939 300.973 76.3106 301.625 76.8864 302.125C77.4697 302.625 78.2576 302.875 79.25 302.875ZM105.98 306L109.798 282.727H112.526L108.707 306H105.98ZM95.446 299.773L95.8892 297.045H113.526L113.082 299.773H95.446ZM97.7983 306L101.616 282.727H104.344L100.526 306H97.7983ZM96.7983 291.682L97.2415 288.955H114.878L114.435 291.682H96.7983ZM124.764 308.909V279.818H126.628V308.909H124.764ZM130.594 288.841C130.473 287.765 129.973 286.932 129.094 286.341C128.215 285.742 127.109 285.443 125.776 285.443C124.821 285.443 123.995 285.595 123.298 285.898C122.601 286.193 122.06 286.602 121.673 287.125C121.295 287.64 121.105 288.227 121.105 288.886C121.105 289.439 121.234 289.917 121.491 290.318C121.757 290.72 122.101 291.057 122.526 291.33C122.957 291.595 123.42 291.818 123.912 292C124.404 292.174 124.878 292.318 125.332 292.432L127.605 293.023C128.348 293.205 129.109 293.451 129.889 293.761C130.67 294.072 131.393 294.481 132.06 294.989C132.726 295.496 133.264 296.125 133.673 296.875C134.09 297.625 134.298 298.523 134.298 299.568C134.298 300.886 133.957 302.057 133.276 303.08C132.601 304.102 131.62 304.909 130.332 305.5C129.052 306.091 127.503 306.386 125.685 306.386C123.942 306.386 122.435 306.11 121.162 305.557C119.889 305.004 118.893 304.22 118.173 303.205C117.454 302.182 117.056 300.97 116.98 299.568H120.503C120.571 300.409 120.844 301.11 121.321 301.67C121.806 302.223 122.423 302.636 123.173 302.909C123.931 303.174 124.76 303.307 125.662 303.307C126.654 303.307 127.537 303.152 128.31 302.841C129.09 302.523 129.704 302.083 130.151 301.523C130.598 300.955 130.821 300.292 130.821 299.534C130.821 298.845 130.624 298.28 130.23 297.841C129.844 297.402 129.317 297.038 128.651 296.75C127.991 296.462 127.245 296.208 126.412 295.989L123.662 295.239C121.798 294.731 120.321 293.985 119.23 293C118.147 292.015 117.605 290.712 117.605 289.091C117.605 287.75 117.969 286.58 118.696 285.58C119.423 284.58 120.408 283.803 121.651 283.25C122.893 282.689 124.295 282.409 125.855 282.409C127.431 282.409 128.821 282.686 130.026 283.239C131.238 283.792 132.192 284.553 132.889 285.523C133.586 286.485 133.95 287.591 133.98 288.841H130.594ZM145.358 308.909V279.818H147.222V308.909H145.358ZM151.188 288.841C151.066 287.765 150.566 286.932 149.688 286.341C148.809 285.742 147.703 285.443 146.369 285.443C145.415 285.443 144.589 285.595 143.892 285.898C143.195 286.193 142.653 286.602 142.267 287.125C141.888 287.64 141.699 288.227 141.699 288.886C141.699 289.439 141.828 289.917 142.085 290.318C142.35 290.72 142.695 291.057 143.119 291.33C143.551 291.595 144.013 291.818 144.506 292C144.998 292.174 145.472 292.318 145.926 292.432L148.199 293.023C148.941 293.205 149.703 293.451 150.483 293.761C151.263 294.072 151.987 294.481 152.653 294.989C153.32 295.496 153.858 296.125 154.267 296.875C154.684 297.625 154.892 298.523 154.892 299.568C154.892 300.886 154.551 302.057 153.869 303.08C153.195 304.102 152.214 304.909 150.926 305.5C149.646 306.091 148.097 306.386 146.278 306.386C144.536 306.386 143.028 306.11 141.756 305.557C140.483 305.004 139.487 304.22 138.767 303.205C138.047 302.182 137.65 300.97 137.574 299.568H141.097C141.165 300.409 141.438 301.11 141.915 301.67C142.4 302.223 143.017 302.636 143.767 302.909C144.525 303.174 145.354 303.307 146.256 303.307C147.248 303.307 148.131 303.152 148.903 302.841C149.684 302.523 150.297 302.083 150.744 301.523C151.191 300.955 151.415 300.292 151.415 299.534C151.415 298.845 151.218 298.28 150.824 297.841C150.438 297.402 149.911 297.038 149.244 296.75C148.585 296.462 147.839 296.208 147.006 295.989L144.256 295.239C142.392 294.731 140.915 293.985 139.824 293C138.741 292.015 138.199 290.712 138.199 289.091C138.199 287.75 138.563 286.58 139.29 285.58C140.017 284.58 141.002 283.803 142.244 283.25C143.487 282.689 144.888 282.409 146.449 282.409C148.025 282.409 149.415 282.686 150.619 283.239C151.831 283.792 152.786 284.553 153.483 285.523C154.18 286.485 154.544 287.591 154.574 288.841H151.188ZM170.918 301.636V300.409C170.918 299.53 171.099 298.727 171.463 298C171.834 297.265 172.372 296.678 173.077 296.239C173.789 295.792 174.649 295.568 175.656 295.568C176.687 295.568 177.55 295.788 178.247 296.227C178.944 296.667 179.471 297.254 179.827 297.989C180.19 298.723 180.372 299.53 180.372 300.409V301.636C180.372 302.515 180.19 303.322 179.827 304.057C179.463 304.784 178.929 305.371 178.224 305.818C177.527 306.258 176.671 306.477 175.656 306.477C174.634 306.477 173.77 306.258 173.065 305.818C172.361 305.371 171.827 304.784 171.463 304.057C171.099 303.322 170.918 302.515 170.918 301.636ZM173.565 300.409V301.636C173.565 302.288 173.721 302.879 174.031 303.409C174.342 303.939 174.884 304.205 175.656 304.205C176.421 304.205 176.955 303.939 177.259 303.409C177.562 302.879 177.713 302.288 177.713 301.636V300.409C177.713 299.758 177.565 299.167 177.27 298.636C176.982 298.106 176.444 297.841 175.656 297.841C174.899 297.841 174.361 298.106 174.043 298.636C173.724 299.167 173.565 299.758 173.565 300.409ZM159.213 288.318V287.091C159.213 286.212 159.395 285.405 159.759 284.67C160.13 283.936 160.668 283.348 161.372 282.909C162.084 282.47 162.944 282.25 163.952 282.25C164.982 282.25 165.846 282.47 166.543 282.909C167.24 283.348 167.766 283.936 168.122 284.67C168.478 285.405 168.656 286.212 168.656 287.091V288.318C168.656 289.197 168.474 290.004 168.111 290.739C167.755 291.466 167.224 292.053 166.52 292.5C165.823 292.939 164.967 293.159 163.952 293.159C162.921 293.159 162.054 292.939 161.349 292.5C160.652 292.053 160.122 291.466 159.759 290.739C159.395 290.004 159.213 289.197 159.213 288.318ZM161.872 287.091V288.318C161.872 288.97 162.024 289.561 162.327 290.091C162.637 290.621 163.179 290.886 163.952 290.886C164.709 290.886 165.24 290.621 165.543 290.091C165.853 289.561 166.009 288.97 166.009 288.318V287.091C166.009 286.439 165.861 285.848 165.565 285.318C165.27 284.788 164.732 284.523 163.952 284.523C163.194 284.523 162.656 284.788 162.338 285.318C162.027 285.848 161.872 286.439 161.872 287.091ZM160.293 306L176.293 282.727H179.009L163.009 306H160.293ZM190.224 284.898H191.043V286.068H190.224V284.898ZM184.236 293.273L188.952 283.386H192.315L197.031 293.273H194.02L190.509 285.614H190.759L187.281 293.273H184.236ZM206.213 306.33C204.652 306.33 203.308 306.045 202.179 305.477C201.058 304.909 200.194 304.136 199.588 303.159C198.982 302.174 198.679 301.061 198.679 299.818C198.679 298.871 198.876 298.03 199.27 297.295C199.664 296.553 200.213 295.867 200.918 295.239C201.622 294.61 202.437 293.977 203.361 293.341L207.111 290.693C207.747 290.277 208.243 289.837 208.599 289.375C208.955 288.905 209.134 288.326 209.134 287.636C209.134 287.091 208.899 286.568 208.429 286.068C207.959 285.568 207.33 285.318 206.543 285.318C205.997 285.318 205.516 285.451 205.099 285.716C204.69 285.981 204.368 286.322 204.134 286.739C203.906 287.148 203.793 287.58 203.793 288.034C203.793 288.564 203.937 289.098 204.224 289.636C204.52 290.174 204.899 290.731 205.361 291.307C205.823 291.875 206.308 292.466 206.815 293.08L217.622 306H213.781L204.838 295.489C204.088 294.602 203.391 293.769 202.747 292.989C202.103 292.201 201.58 291.405 201.179 290.602C200.785 289.792 200.588 288.917 200.588 287.977C200.588 286.909 200.83 285.962 201.315 285.136C201.808 284.303 202.493 283.652 203.372 283.182C204.251 282.712 205.281 282.477 206.463 282.477C207.66 282.477 208.687 282.712 209.543 283.182C210.406 283.644 211.069 284.261 211.531 285.034C212.001 285.799 212.236 286.636 212.236 287.545C212.236 288.652 211.959 289.629 211.406 290.477C210.861 291.318 210.107 292.091 209.145 292.795L204.474 296.239C203.565 296.905 202.933 297.564 202.577 298.216C202.228 298.86 202.054 299.364 202.054 299.727C202.054 300.394 202.224 301.011 202.565 301.58C202.914 302.148 203.399 302.602 204.02 302.943C204.649 303.284 205.384 303.455 206.224 303.455C207.088 303.455 207.929 303.269 208.747 302.898C209.573 302.519 210.319 301.977 210.986 301.273C211.66 300.568 212.194 299.723 212.588 298.739C212.982 297.754 213.179 296.652 213.179 295.432H216.247C216.247 296.932 216.077 298.201 215.736 299.239C215.395 300.269 214.982 301.11 214.497 301.761C214.02 302.405 213.569 302.909 213.145 303.273C213.009 303.394 212.88 303.515 212.759 303.636C212.637 303.758 212.509 303.879 212.372 304C211.584 304.795 210.63 305.383 209.509 305.761C208.395 306.14 207.296 306.33 206.213 306.33ZM225.114 295.818L225.33 291.023L221.284 293.625L220.045 291.466L224.341 289.273L220.045 287.08L221.284 284.92L225.33 287.523L225.114 282.727H227.58L227.364 287.523L231.409 284.92L232.648 287.08L228.352 289.273L232.648 291.466L231.409 293.625L227.364 291.023L227.58 295.818H225.114ZM237.96 296.341C237.96 293.492 238.335 290.871 239.085 288.477C239.835 286.083 240.93 283.875 242.369 281.852H245.483C244.922 282.602 244.4 283.523 243.915 284.614C243.43 285.705 243.006 286.902 242.642 288.205C242.278 289.5 241.994 290.845 241.79 292.239C241.585 293.625 241.483 294.992 241.483 296.341C241.483 298.144 241.661 299.97 242.017 301.818C242.373 303.667 242.854 305.383 243.46 306.966C244.066 308.549 244.741 309.841 245.483 310.841H242.369C240.93 308.818 239.835 306.61 239.085 304.216C238.335 301.822 237.96 299.197 237.96 296.341ZM255.599 296.341C255.599 299.197 255.224 301.822 254.474 304.216C253.724 306.61 252.63 308.818 251.19 310.841H248.077C248.637 310.091 249.16 309.17 249.645 308.08C250.13 306.989 250.554 305.795 250.918 304.5C251.281 303.197 251.565 301.848 251.77 300.455C251.974 299.061 252.077 297.689 252.077 296.341C252.077 294.545 251.899 292.723 251.543 290.875C251.187 289.027 250.705 287.311 250.099 285.727C249.493 284.144 248.819 282.852 248.077 281.852H251.19C252.63 283.875 253.724 286.083 254.474 288.477C255.224 290.871 255.599 293.492 255.599 296.341ZM273.625 306V308.886H258.841V306H273.625ZM282.719 304.523V289.159H285.776V304.523H282.719ZM276.571 298.364V295.307H291.935V298.364H276.571Z" fill="#0A0D11"/>
<mask id="path-5-inside-1_112_8674" fill="white">
<path d="M64 384H936V432H64V384Z"/>
</mask>
<path d="M936 432V430H64V432V434H936V432Z" fill="black" mask="url(#path-5-inside-1_112_8674)"/>
<path d="M65.598 407V392.455H67.7926V398.776H75.044V392.455H77.2457V407H75.044V400.658H67.7926V407H65.598ZM84.973 407.22C83.8982 407.22 82.9725 406.991 82.196 406.531C81.4242 406.067 80.8277 405.416 80.4062 404.578C79.9896 403.735 79.7812 402.748 79.7812 401.616C79.7812 400.499 79.9896 399.514 80.4062 398.662C80.8277 397.81 81.4148 397.144 82.1676 396.666C82.9252 396.188 83.8106 395.949 84.8239 395.949C85.4394 395.949 86.036 396.051 86.6136 396.254C87.1913 396.458 87.7098 396.777 88.169 397.213C88.6283 397.649 88.9905 398.214 89.2557 398.911C89.5208 399.602 89.6534 400.442 89.6534 401.432V402.185H80.9815V400.594H87.5724C87.5724 400.035 87.4588 399.54 87.2315 399.109C87.0043 398.674 86.6847 398.33 86.2727 398.08C85.8655 397.829 85.3873 397.703 84.8381 397.703C84.2415 397.703 83.7206 397.85 83.2756 398.143C82.8352 398.432 82.4943 398.811 82.2528 399.28C82.0161 399.744 81.8977 400.248 81.8977 400.793V402.036C81.8977 402.765 82.0256 403.385 82.2812 403.896C82.5417 404.408 82.9039 404.798 83.3679 405.068C83.8319 405.333 84.3741 405.466 84.9943 405.466C85.3968 405.466 85.7637 405.409 86.0952 405.295C86.4266 405.177 86.7131 405.002 86.9545 404.77C87.196 404.538 87.3807 404.251 87.5085 403.911L89.5185 404.273C89.3575 404.865 89.0687 405.383 88.652 405.828C88.2401 406.268 87.7216 406.612 87.0966 406.858C86.4763 407.099 85.7685 407.22 84.973 407.22ZM95.1843 407.241C94.493 407.241 93.868 407.114 93.3093 406.858C92.7506 406.598 92.3079 406.221 91.9812 405.729C91.6592 405.236 91.4982 404.633 91.4982 403.918C91.4982 403.302 91.6166 402.795 91.8533 402.398C92.0901 402 92.4097 401.685 92.8121 401.453C93.2146 401.221 93.6644 401.046 94.1616 400.928C94.6587 400.809 95.1654 400.719 95.6815 400.658C96.3349 400.582 96.8652 400.52 97.2724 400.473C97.6796 400.421 97.9755 400.338 98.1602 400.224C98.3448 400.111 98.4371 399.926 98.4371 399.67V399.621C98.4371 399 98.262 398.52 97.9116 398.179C97.5659 397.838 97.0498 397.668 96.3633 397.668C95.6483 397.668 95.0849 397.826 94.6729 398.143C94.2657 398.456 93.984 398.804 93.8278 399.188L91.832 398.733C92.0688 398.07 92.4144 397.535 92.869 397.128C93.3282 396.716 93.8562 396.418 94.4528 396.233C95.0494 396.044 95.6767 395.949 96.3349 395.949C96.7705 395.949 97.2321 396.001 97.7198 396.105C98.2122 396.205 98.6715 396.389 99.0977 396.659C99.5285 396.929 99.8813 397.315 100.156 397.817C100.431 398.314 100.568 398.96 100.568 399.756V407H98.494V405.509H98.4087C98.2714 405.783 98.0655 406.053 97.7908 406.318C97.5162 406.583 97.1635 406.804 96.7326 406.979C96.3017 407.154 95.7856 407.241 95.1843 407.241ZM95.646 405.537C96.2331 405.537 96.735 405.421 97.1516 405.189C97.573 404.957 97.8926 404.654 98.1104 404.28C98.333 403.901 98.4442 403.496 98.4442 403.065V401.659C98.3685 401.735 98.2217 401.806 98.0039 401.872C97.7908 401.934 97.547 401.988 97.2724 402.036C96.9978 402.078 96.7302 402.118 96.4698 402.156C96.2094 402.189 95.9916 402.218 95.8164 402.241C95.4045 402.294 95.0281 402.381 94.6871 402.504C94.351 402.627 94.0811 402.805 93.8775 403.037C93.6786 403.264 93.5792 403.567 93.5792 403.946C93.5792 404.472 93.7733 404.869 94.1616 405.139C94.5498 405.404 95.0446 405.537 95.646 405.537ZM107.48 407.213C106.599 407.213 105.813 406.988 105.122 406.538C104.436 406.084 103.896 405.437 103.503 404.599C103.115 403.757 102.92 402.746 102.92 401.567C102.92 400.388 103.117 399.379 103.51 398.541C103.908 397.703 104.452 397.062 105.143 396.616C105.835 396.171 106.618 395.949 107.494 395.949C108.171 395.949 108.716 396.062 109.128 396.29C109.545 396.512 109.866 396.773 110.094 397.071C110.326 397.369 110.506 397.632 110.634 397.859H110.761V392.455H112.885V407H110.811V405.303H110.634C110.506 405.535 110.321 405.8 110.08 406.098C109.843 406.396 109.516 406.657 109.099 406.879C108.683 407.102 108.143 407.213 107.48 407.213ZM107.949 405.402C108.56 405.402 109.076 405.241 109.497 404.919C109.923 404.592 110.245 404.14 110.463 403.562C110.686 402.985 110.797 402.312 110.797 401.545C110.797 400.788 110.688 400.125 110.47 399.557C110.252 398.989 109.933 398.546 109.511 398.229C109.09 397.911 108.569 397.753 107.949 397.753C107.31 397.753 106.777 397.919 106.351 398.25C105.925 398.581 105.603 399.034 105.385 399.607C105.172 400.179 105.065 400.826 105.065 401.545C105.065 402.275 105.174 402.93 105.392 403.513C105.61 404.095 105.932 404.557 106.358 404.898C106.789 405.234 107.319 405.402 107.949 405.402ZM118.039 392.455V407H115.916V392.455H118.039ZM120.896 407V396.091H123.02V407H120.896ZM121.969 394.408C121.599 394.408 121.282 394.285 121.017 394.038C120.757 393.787 120.626 393.489 120.626 393.143C120.626 392.793 120.757 392.495 121.017 392.249C121.282 391.998 121.599 391.872 121.969 391.872C122.338 391.872 122.653 391.998 122.913 392.249C123.179 392.495 123.311 392.793 123.311 393.143C123.311 393.489 123.179 393.787 122.913 394.038C122.653 394.285 122.338 394.408 121.969 394.408ZM128 400.523V407H125.877V396.091H127.915V397.866H128.05C128.301 397.289 128.694 396.825 129.229 396.474C129.769 396.124 130.448 395.949 131.267 395.949C132.011 395.949 132.662 396.105 133.221 396.418C133.779 396.725 134.212 397.185 134.52 397.795C134.828 398.406 134.982 399.161 134.982 400.061V407H132.858V400.317C132.858 399.526 132.652 398.908 132.24 398.463C131.828 398.013 131.263 397.788 130.543 397.788C130.051 397.788 129.613 397.895 129.229 398.108C128.85 398.321 128.55 398.634 128.327 399.045C128.109 399.453 128 399.945 128 400.523ZM142.532 407.22C141.457 407.22 140.531 406.991 139.755 406.531C138.983 406.067 138.386 405.416 137.965 404.578C137.548 403.735 137.34 402.748 137.34 401.616C137.34 400.499 137.548 399.514 137.965 398.662C138.386 397.81 138.973 397.144 139.726 396.666C140.484 396.188 141.369 395.949 142.382 395.949C142.998 395.949 143.595 396.051 144.172 396.254C144.75 396.458 145.268 396.777 145.728 397.213C146.187 397.649 146.549 398.214 146.814 398.911C147.079 399.602 147.212 400.442 147.212 401.432V402.185H138.54V400.594H145.131C145.131 400.035 145.017 399.54 144.79 399.109C144.563 398.674 144.243 398.33 143.831 398.08C143.424 397.829 142.946 397.703 142.397 397.703C141.8 397.703 141.279 397.85 140.834 398.143C140.394 398.432 140.053 398.811 139.811 399.28C139.575 399.744 139.456 400.248 139.456 400.793V402.036C139.456 402.765 139.584 403.385 139.84 403.896C140.1 404.408 140.462 404.798 140.926 405.068C141.391 405.333 141.933 405.466 142.553 405.466C142.955 405.466 143.322 405.409 143.654 405.295C143.985 405.177 144.272 405.002 144.513 404.77C144.755 404.538 144.939 404.251 145.067 403.911L147.077 404.273C146.916 404.865 146.627 405.383 146.211 405.828C145.799 406.268 145.28 406.612 144.655 406.858C144.035 407.099 143.327 407.22 142.532 407.22ZM157.743 398.754L155.818 399.095C155.738 398.849 155.61 398.615 155.435 398.392C155.264 398.17 155.032 397.987 154.739 397.845C154.445 397.703 154.078 397.632 153.638 397.632C153.036 397.632 152.535 397.767 152.132 398.037C151.73 398.302 151.528 398.645 151.528 399.067C151.528 399.431 151.663 399.725 151.933 399.947C152.203 400.17 152.639 400.352 153.24 400.494L154.973 400.892C155.977 401.124 156.725 401.482 157.217 401.964C157.71 402.447 157.956 403.075 157.956 403.847C157.956 404.5 157.767 405.082 157.388 405.594C157.014 406.1 156.491 406.498 155.818 406.787C155.151 407.076 154.376 407.22 153.496 407.22C152.274 407.22 151.277 406.96 150.506 406.439C149.734 405.913 149.26 405.168 149.085 404.202L151.138 403.889C151.266 404.424 151.528 404.829 151.926 405.104C152.324 405.374 152.842 405.509 153.482 405.509C154.178 405.509 154.734 405.364 155.151 405.075C155.567 404.782 155.776 404.424 155.776 404.003C155.776 403.662 155.648 403.375 155.392 403.143C155.141 402.911 154.755 402.736 154.234 402.618L152.388 402.213C151.37 401.981 150.617 401.612 150.129 401.105C149.646 400.598 149.405 399.957 149.405 399.18C149.405 398.536 149.585 397.973 149.945 397.49C150.304 397.007 150.802 396.631 151.436 396.361C152.071 396.086 152.797 395.949 153.616 395.949C154.795 395.949 155.723 396.205 156.401 396.716C157.078 397.223 157.525 397.902 157.743 398.754Z" fill="#0A0D11"/>
<path d="M455.031 396.276C454.955 395.603 454.643 395.082 454.094 394.713C453.545 394.339 452.853 394.152 452.02 394.152C451.423 394.152 450.907 394.247 450.472 394.436C450.036 394.621 449.697 394.876 449.456 395.203C449.219 395.525 449.101 395.892 449.101 396.304C449.101 396.65 449.181 396.948 449.342 397.199C449.508 397.45 449.723 397.661 449.989 397.831C450.259 397.997 450.547 398.136 450.855 398.25C451.163 398.359 451.459 398.449 451.743 398.52L453.163 398.889C453.627 399.003 454.103 399.157 454.591 399.351C455.079 399.545 455.531 399.801 455.947 400.118C456.364 400.435 456.7 400.828 456.956 401.297C457.216 401.766 457.347 402.327 457.347 402.98C457.347 403.804 457.134 404.536 456.707 405.175C456.286 405.814 455.673 406.318 454.868 406.688C454.068 407.057 453.099 407.241 451.963 407.241C450.874 407.241 449.932 407.069 449.136 406.723C448.341 406.377 447.718 405.887 447.268 405.253C446.819 404.614 446.57 403.856 446.523 402.98H448.724C448.767 403.506 448.938 403.944 449.236 404.294C449.539 404.64 449.925 404.898 450.393 405.068C450.867 405.234 451.385 405.317 451.949 405.317C452.569 405.317 453.121 405.22 453.604 405.026C454.091 404.827 454.475 404.552 454.754 404.202C455.034 403.847 455.173 403.432 455.173 402.959C455.173 402.528 455.05 402.175 454.804 401.901C454.563 401.626 454.233 401.399 453.817 401.219C453.405 401.039 452.938 400.88 452.418 400.743L450.699 400.274C449.534 399.957 448.611 399.491 447.929 398.875C447.252 398.259 446.913 397.445 446.913 396.432C446.913 395.594 447.141 394.862 447.595 394.237C448.05 393.612 448.665 393.127 449.442 392.781C450.218 392.431 451.094 392.256 452.07 392.256C453.054 392.256 453.923 392.429 454.676 392.774C455.434 393.12 456.03 393.596 456.466 394.202C456.902 394.803 457.129 395.494 457.148 396.276H455.031ZM459.799 407V396.091H461.922V407H459.799ZM460.871 394.408C460.502 394.408 460.185 394.285 459.919 394.038C459.659 393.787 459.529 393.489 459.529 393.143C459.529 392.793 459.659 392.495 459.919 392.249C460.185 391.998 460.502 391.872 460.871 391.872C461.24 391.872 461.555 391.998 461.816 392.249C462.081 392.495 462.213 392.793 462.213 393.143C462.213 393.489 462.081 393.787 461.816 394.038C461.555 394.285 461.24 394.408 460.871 394.408ZM464.552 407V405.544L470.461 398.037V397.938H464.744V396.091H473.11V397.639L467.428 405.054V405.153H473.309V407H464.552ZM480.203 407.22C479.129 407.22 478.203 406.991 477.426 406.531C476.655 406.067 476.058 405.416 475.637 404.578C475.22 403.735 475.012 402.748 475.012 401.616C475.012 400.499 475.22 399.514 475.637 398.662C476.058 397.81 476.645 397.144 477.398 396.666C478.156 396.188 479.041 395.949 480.054 395.949C480.67 395.949 481.266 396.051 481.844 396.254C482.422 396.458 482.94 396.777 483.4 397.213C483.859 397.649 484.221 398.214 484.486 398.911C484.751 399.602 484.884 400.442 484.884 401.432V402.185H476.212V400.594H482.803C482.803 400.035 482.689 399.54 482.462 399.109C482.235 398.674 481.915 398.33 481.503 398.08C481.096 397.829 480.618 397.703 480.069 397.703C479.472 397.703 478.951 397.85 478.506 398.143C478.066 398.432 477.725 398.811 477.483 399.28C477.247 399.744 477.128 400.248 477.128 400.793V402.036C477.128 402.765 477.256 403.385 477.512 403.896C477.772 404.408 478.134 404.798 478.598 405.068C479.062 405.333 479.605 405.466 480.225 405.466C480.627 405.466 480.994 405.409 481.326 405.295C481.657 405.177 481.944 405.002 482.185 404.77C482.426 404.538 482.611 404.251 482.739 403.911L484.749 404.273C484.588 404.865 484.299 405.383 483.882 405.828C483.471 406.268 482.952 406.612 482.327 406.858C481.707 407.099 480.999 407.22 480.203 407.22Z" fill="#0A0D11"/>
<path d="M828.598 407V392.455H830.793V405.111H837.384V407H828.598ZM839.717 407V396.091H841.84V407H839.717ZM840.789 394.408C840.42 394.408 840.103 394.285 839.837 394.038C839.577 393.787 839.447 393.489 839.447 393.143C839.447 392.793 839.577 392.495 839.837 392.249C840.103 391.998 840.42 391.872 840.789 391.872C841.158 391.872 841.473 391.998 841.734 392.249C841.999 392.495 842.131 392.793 842.131 393.143C842.131 393.489 841.999 393.787 841.734 394.038C841.473 394.285 841.158 394.408 840.789 394.408ZM846.821 400.523V407H844.697V396.091H846.735V397.866H846.87C847.121 397.289 847.514 396.825 848.049 396.474C848.589 396.124 849.269 395.949 850.088 395.949C850.831 395.949 851.482 396.105 852.041 396.418C852.6 396.725 853.033 397.185 853.341 397.795C853.648 398.406 853.802 399.161 853.802 400.061V407H851.679V400.317C851.679 399.526 851.473 398.908 851.061 398.463C850.649 398.013 850.083 397.788 849.363 397.788C848.871 397.788 848.433 397.895 848.049 398.108C847.671 398.321 847.37 398.634 847.147 399.045C846.93 399.453 846.821 399.945 846.821 400.523ZM861.352 407.22C860.277 407.22 859.351 406.991 858.575 406.531C857.803 406.067 857.207 405.416 856.785 404.578C856.368 403.735 856.16 402.748 856.16 401.616C856.16 400.499 856.368 399.514 856.785 398.662C857.207 397.81 857.794 397.144 858.547 396.666C859.304 396.188 860.19 395.949 861.203 395.949C861.818 395.949 862.415 396.051 862.993 396.254C863.57 396.458 864.089 396.777 864.548 397.213C865.007 397.649 865.369 398.214 865.635 398.911C865.9 399.602 866.032 400.442 866.032 401.432V402.185H857.36V400.594H863.951C863.951 400.035 863.838 399.54 863.61 399.109C863.383 398.674 863.064 398.33 862.652 398.08C862.244 397.829 861.766 397.703 861.217 397.703C860.62 397.703 860.1 397.85 859.654 398.143C859.214 398.432 858.873 398.811 858.632 399.28C858.395 399.744 858.277 400.248 858.277 400.793V402.036C858.277 402.765 858.404 403.385 858.66 403.896C858.921 404.408 859.283 404.798 859.747 405.068C860.211 405.333 860.753 405.466 861.373 405.466C861.776 405.466 862.143 405.409 862.474 405.295C862.806 405.177 863.092 405.002 863.333 404.77C863.575 404.538 863.76 404.251 863.887 403.911L865.897 404.273C865.736 404.865 865.448 405.383 865.031 405.828C864.619 406.268 864.1 406.612 863.475 406.858C862.855 407.099 862.147 407.22 861.352 407.22ZM873.852 407V392.455H876.047V398.776H883.298V392.455H885.5V407H883.298V400.658H876.047V407H873.852ZM893.227 407.22C892.152 407.22 891.226 406.991 890.45 406.531C889.678 406.067 889.082 405.416 888.66 404.578C888.243 403.735 888.035 402.748 888.035 401.616C888.035 400.499 888.243 399.514 888.66 398.662C889.082 397.81 889.669 397.144 890.422 396.666C891.179 396.188 892.065 395.949 893.078 395.949C893.693 395.949 894.29 396.051 894.868 396.254C895.445 396.458 895.964 396.777 896.423 397.213C896.882 397.649 897.244 398.214 897.51 398.911C897.775 399.602 897.907 400.442 897.907 401.432V402.185H889.235V400.594H895.826C895.826 400.035 895.713 399.54 895.485 399.109C895.258 398.674 894.939 398.33 894.527 398.08C894.119 397.829 893.641 397.703 893.092 397.703C892.495 397.703 891.975 397.85 891.529 398.143C891.089 398.432 890.748 398.811 890.507 399.28C890.27 399.744 890.152 400.248 890.152 400.793V402.036C890.152 402.765 890.279 403.385 890.535 403.896C890.796 404.408 891.158 404.798 891.622 405.068C892.086 405.333 892.628 405.466 893.248 405.466C893.651 405.466 894.018 405.409 894.349 405.295C894.681 405.177 894.967 405.002 895.208 404.77C895.45 404.538 895.635 404.251 895.762 403.911L897.772 404.273C897.611 404.865 897.323 405.383 896.906 405.828C896.494 406.268 895.975 406.612 895.35 406.858C894.73 407.099 894.022 407.22 893.227 407.22ZM900.263 407V396.091H902.387V407H900.263ZM901.336 394.408C900.967 394.408 900.649 394.285 900.384 394.038C900.124 393.787 899.994 393.489 899.994 393.143C899.994 392.793 900.124 392.495 900.384 392.249C900.649 391.998 900.967 391.872 901.336 391.872C901.705 391.872 902.02 391.998 902.281 392.249C902.546 392.495 902.678 392.793 902.678 393.143C902.678 393.489 902.546 393.787 902.281 394.038C902.02 394.285 901.705 394.408 901.336 394.408ZM909.818 411.318C908.951 411.318 908.206 411.205 907.581 410.977C906.96 410.75 906.454 410.449 906.061 410.075C905.668 409.701 905.374 409.292 905.18 408.847L907.005 408.094C907.133 408.302 907.304 408.522 907.517 408.754C907.734 408.991 908.028 409.192 908.397 409.358C908.771 409.524 909.252 409.607 909.839 409.607C910.644 409.607 911.309 409.41 911.835 409.017C912.36 408.629 912.623 408.009 912.623 407.156V405.011H912.488C912.36 405.243 912.176 405.501 911.934 405.786C911.698 406.07 911.371 406.316 910.954 406.524C910.538 406.732 909.995 406.837 909.328 406.837C908.466 406.837 907.69 406.635 906.998 406.233C906.312 405.826 905.767 405.227 905.365 404.436C904.967 403.641 904.768 402.663 904.768 401.503C904.768 400.343 904.965 399.348 905.358 398.52C905.755 397.691 906.3 397.057 906.991 396.616C907.682 396.171 908.466 395.949 909.342 395.949C910.019 395.949 910.566 396.062 910.983 396.29C911.399 396.512 911.724 396.773 911.956 397.071C912.192 397.369 912.375 397.632 912.502 397.859H912.659V396.091H914.74V407.241C914.74 408.179 914.522 408.948 914.086 409.55C913.651 410.151 913.061 410.596 912.318 410.885C911.579 411.174 910.746 411.318 909.818 411.318ZM909.797 405.075C910.407 405.075 910.923 404.933 911.345 404.649C911.771 404.36 912.093 403.948 912.311 403.413C912.533 402.874 912.645 402.227 912.645 401.474C912.645 400.741 912.536 400.094 912.318 399.536C912.1 398.977 911.78 398.541 911.359 398.229C910.938 397.911 910.417 397.753 909.797 397.753C909.157 397.753 908.625 397.919 908.199 398.25C907.772 398.577 907.45 399.022 907.233 399.585C907.02 400.149 906.913 400.778 906.913 401.474C906.913 402.189 907.022 402.817 907.24 403.357C907.458 403.896 907.779 404.318 908.206 404.621C908.636 404.924 909.167 405.075 909.797 405.075ZM919.711 400.523V407H917.588V392.455H919.683V397.866H919.818C920.074 397.279 920.464 396.813 920.99 396.467C921.515 396.122 922.202 395.949 923.049 395.949C923.797 395.949 924.451 396.103 925.01 396.411C925.573 396.718 926.009 397.178 926.316 397.788C926.629 398.394 926.785 399.152 926.785 400.061V407H924.662V400.317C924.662 399.517 924.456 398.896 924.044 398.456C923.632 398.011 923.059 397.788 922.325 397.788C921.823 397.788 921.373 397.895 920.975 398.108C920.583 398.321 920.272 398.634 920.045 399.045C919.823 399.453 919.711 399.945 919.711 400.523ZM934.711 396.091V397.795H928.752V396.091H934.711ZM930.35 393.477H932.474V403.797C932.474 404.209 932.536 404.519 932.659 404.727C932.782 404.931 932.94 405.071 933.135 405.146C933.333 405.217 933.549 405.253 933.781 405.253C933.951 405.253 934.1 405.241 934.228 405.217C934.356 405.194 934.456 405.175 934.527 405.161L934.91 406.915C934.787 406.962 934.612 407.009 934.385 407.057C934.157 407.109 933.873 407.137 933.532 407.142C932.974 407.152 932.453 407.052 931.97 406.844C931.487 406.635 931.096 406.313 930.798 405.878C930.5 405.442 930.35 404.895 930.35 404.237V393.477Z" fill="#0A0D11"/>
<mask id="path-10-inside-2_112_8674" fill="white">
<path d="M64 464H936V512H64V464Z"/>
</mask>
<path d="M936 512V511H64V512V513H936V512Z" fill="black" fill-opacity="0.1" mask="url(#path-10-inside-2_112_8674)"/>
<path d="M65.2784 486V474.364H67.0341V479.42H72.8352V474.364H74.5966V486H72.8352V480.926H67.0341V486H65.2784ZM81.4091 474.364V486H79.6477V476.125H79.5795L76.7955 477.943V476.261L79.6989 474.364H81.4091Z" fill="#0A0D11"/>
<path d="M446.375 483.727V482.307L451.403 474.364H452.523V476.455H451.812L448.216 482.148V482.239H455.108V483.727H446.375ZM451.892 486V483.295L451.903 482.648V474.364H453.568V486H451.892ZM461.02 486.159C460.205 486.159 459.486 486.019 458.861 485.739C458.24 485.458 457.753 485.072 457.401 484.58C457.048 484.087 456.874 483.527 456.878 482.898C456.874 482.405 456.974 481.953 457.179 481.54C457.387 481.123 457.67 480.777 458.026 480.5C458.382 480.22 458.779 480.042 459.219 479.966V479.898C458.639 479.758 458.175 479.447 457.827 478.966C457.478 478.485 457.306 477.932 457.31 477.307C457.306 476.712 457.463 476.182 457.781 475.716C458.103 475.246 458.545 474.877 459.105 474.608C459.666 474.339 460.304 474.205 461.02 474.205C461.728 474.205 462.361 474.341 462.918 474.614C463.478 474.883 463.92 475.252 464.241 475.722C464.563 476.187 464.726 476.716 464.73 477.307C464.726 477.932 464.548 478.485 464.196 478.966C463.844 479.447 463.385 479.758 462.821 479.898V479.966C463.257 480.042 463.649 480.22 463.997 480.5C464.349 480.777 464.63 481.123 464.838 481.54C465.05 481.953 465.158 482.405 465.162 482.898C465.158 483.527 464.98 484.087 464.628 484.58C464.276 485.072 463.787 485.458 463.162 485.739C462.541 486.019 461.827 486.159 461.02 486.159ZM461.02 484.722C461.501 484.722 461.918 484.642 462.27 484.483C462.622 484.32 462.895 484.095 463.088 483.807C463.281 483.515 463.38 483.174 463.384 482.784C463.38 482.379 463.274 482.021 463.065 481.71C462.861 481.4 462.582 481.155 462.23 480.977C461.878 480.799 461.474 480.71 461.02 480.71C460.562 480.71 460.154 480.799 459.798 480.977C459.442 481.155 459.162 481.4 458.957 481.71C458.753 482.021 458.652 482.379 458.656 482.784C458.652 483.174 458.745 483.515 458.935 483.807C459.128 484.095 459.402 484.32 459.759 484.483C460.115 484.642 460.535 484.722 461.02 484.722ZM461.02 479.307C461.406 479.307 461.749 479.229 462.048 479.074C462.348 478.919 462.582 478.703 462.753 478.426C462.927 478.15 463.016 477.826 463.02 477.455C463.016 477.091 462.929 476.773 462.759 476.5C462.592 476.227 462.359 476.017 462.06 475.869C461.76 475.718 461.414 475.642 461.02 475.642C460.618 475.642 460.266 475.718 459.963 475.869C459.664 476.017 459.431 476.227 459.264 476.5C459.098 476.773 459.016 477.091 459.02 477.455C459.016 477.826 459.099 478.15 459.27 478.426C459.44 478.703 459.675 478.919 459.974 479.074C460.277 479.229 460.626 479.307 461.02 479.307ZM467.22 489.273V477.273H468.879V478.688H469.021C469.12 478.506 469.262 478.295 469.447 478.057C469.633 477.818 469.891 477.61 470.22 477.432C470.55 477.25 470.985 477.159 471.527 477.159C472.232 477.159 472.86 477.337 473.413 477.693C473.966 478.049 474.4 478.562 474.714 479.233C475.033 479.903 475.192 480.71 475.192 481.653C475.192 482.597 475.035 483.405 474.72 484.08C474.406 484.75 473.974 485.267 473.425 485.631C472.875 485.991 472.249 486.17 471.544 486.17C471.014 486.17 470.58 486.081 470.243 485.903C469.91 485.725 469.648 485.517 469.459 485.278C469.269 485.04 469.124 484.828 469.021 484.642H468.919V489.273H467.22ZM468.885 481.636C468.885 482.25 468.974 482.788 469.152 483.25C469.33 483.712 469.588 484.074 469.925 484.335C470.262 484.593 470.675 484.722 471.163 484.722C471.671 484.722 472.095 484.587 472.436 484.318C472.777 484.045 473.035 483.676 473.209 483.21C473.387 482.744 473.476 482.22 473.476 481.636C473.476 481.061 473.389 480.544 473.214 480.085C473.044 479.627 472.786 479.265 472.442 479C472.101 478.735 471.675 478.602 471.163 478.602C470.671 478.602 470.254 478.729 469.913 478.983C469.576 479.237 469.321 479.591 469.146 480.045C468.972 480.5 468.885 481.03 468.885 481.636ZM478.092 477.273L480.018 480.67L481.962 477.273H483.82L481.098 481.636L483.842 486H481.984L480.018 482.739L478.058 486H476.195L478.911 481.636L476.229 477.273H478.092Z" fill="#0A0D11"/>
<path d="M902.523 486.159C901.811 486.159 901.17 486.023 900.602 485.75C900.038 485.473 899.587 485.095 899.25 484.614C898.913 484.133 898.733 483.583 898.71 482.966H900.415C900.456 483.466 900.678 483.877 901.08 484.199C901.481 484.521 901.962 484.682 902.523 484.682C902.97 484.682 903.366 484.58 903.71 484.375C904.059 484.167 904.331 483.881 904.528 483.517C904.729 483.153 904.83 482.739 904.83 482.273C904.83 481.799 904.727 481.377 904.523 481.006C904.318 480.634 904.036 480.343 903.676 480.131C903.32 479.919 902.911 479.811 902.449 479.807C902.097 479.807 901.742 479.867 901.386 479.989C901.03 480.11 900.742 480.269 900.523 480.466L898.915 480.227L899.568 474.364H905.966V475.869H901.028L900.659 479.125H900.727C900.955 478.905 901.256 478.722 901.631 478.574C902.009 478.426 902.415 478.352 902.847 478.352C903.555 478.352 904.186 478.521 904.739 478.858C905.295 479.195 905.733 479.655 906.051 480.239C906.373 480.818 906.532 481.485 906.528 482.239C906.532 482.992 906.362 483.665 906.017 484.256C905.676 484.847 905.203 485.312 904.597 485.653C903.994 485.991 903.303 486.159 902.523 486.159ZM912.666 486.159C912.147 486.152 911.636 486.057 911.132 485.875C910.632 485.693 910.178 485.39 909.768 484.966C909.359 484.542 909.032 483.972 908.786 483.256C908.543 482.54 908.422 481.646 908.422 480.574C908.422 479.559 908.522 478.657 908.723 477.869C908.928 477.081 909.221 476.417 909.604 475.875C909.986 475.33 910.448 474.915 910.99 474.631C911.532 474.347 912.14 474.205 912.814 474.205C913.507 474.205 914.123 474.341 914.661 474.614C915.198 474.886 915.634 475.263 915.967 475.744C916.304 476.225 916.518 476.773 916.609 477.386H914.876C914.759 476.902 914.526 476.506 914.178 476.199C913.829 475.892 913.375 475.739 912.814 475.739C911.962 475.739 911.297 476.11 910.82 476.852C910.346 477.595 910.107 478.627 910.104 479.949H910.189C910.39 479.619 910.636 479.339 910.928 479.108C911.223 478.873 911.553 478.693 911.916 478.568C912.284 478.439 912.67 478.375 913.075 478.375C913.75 478.375 914.359 478.54 914.905 478.869C915.454 479.195 915.892 479.646 916.217 480.222C916.543 480.797 916.706 481.456 916.706 482.199C916.706 482.941 916.537 483.614 916.2 484.216C915.867 484.818 915.397 485.295 914.791 485.648C914.185 485.996 913.477 486.167 912.666 486.159ZM912.661 484.682C913.107 484.682 913.507 484.572 913.859 484.352C914.212 484.133 914.49 483.837 914.695 483.466C914.899 483.095 915.001 482.68 915.001 482.222C915.001 481.775 914.901 481.367 914.7 481C914.503 480.633 914.231 480.341 913.882 480.125C913.537 479.909 913.143 479.801 912.7 479.801C912.363 479.801 912.051 479.866 911.763 479.994C911.479 480.123 911.229 480.301 911.013 480.528C910.797 480.756 910.626 481.017 910.501 481.312C910.38 481.604 910.32 481.913 910.32 482.239C910.32 482.674 910.42 483.078 910.621 483.449C910.825 483.82 911.104 484.119 911.456 484.347C911.812 484.57 912.214 484.682 912.661 484.682ZM918.798 489.273V477.273H920.457V478.688H920.599C920.698 478.506 920.84 478.295 921.026 478.057C921.211 477.818 921.469 477.61 921.798 477.432C922.128 477.25 922.563 477.159 923.105 477.159C923.81 477.159 924.438 477.337 924.991 477.693C925.545 478.049 925.978 478.562 926.293 479.233C926.611 479.903 926.77 480.71 926.77 481.653C926.77 482.597 926.613 483.405 926.298 484.08C925.984 484.75 925.552 485.267 925.003 485.631C924.454 485.991 923.827 486.17 923.122 486.17C922.592 486.17 922.158 486.081 921.821 485.903C921.488 485.725 921.226 485.517 921.037 485.278C920.848 485.04 920.702 484.828 920.599 484.642H920.497V489.273H918.798ZM920.463 481.636C920.463 482.25 920.552 482.788 920.73 483.25C920.908 483.712 921.166 484.074 921.503 484.335C921.84 484.593 922.253 484.722 922.741 484.722C923.249 484.722 923.673 484.587 924.014 484.318C924.355 484.045 924.613 483.676 924.787 483.21C924.965 482.744 925.054 482.22 925.054 481.636C925.054 481.061 924.967 480.544 924.793 480.085C924.622 479.627 924.365 479.265 924.02 479C923.679 478.735 923.253 478.602 922.741 478.602C922.249 478.602 921.832 478.729 921.491 478.983C921.154 479.237 920.899 479.591 920.724 480.045C920.55 480.5 920.463 481.03 920.463 481.636ZM929.67 477.273L931.597 480.67L933.54 477.273H935.398L932.676 481.636L935.42 486H933.562L931.597 482.739L929.636 486H927.773L930.489 481.636L927.807 477.273H929.67Z" fill="#0A0D11"/>
<mask id="path-15-inside-3_112_8674" fill="white">
<path d="M64 544H936V592H64V544Z"/>
</mask>
<path d="M936 592V591H64V592V593H936V592Z" fill="black" fill-opacity="0.1" mask="url(#path-15-inside-3_112_8674)"/>
<path d="M65.2784 566V554.364H67.0341V559.42H72.8352V554.364H74.5966V566H72.8352V560.926H67.0341V566H65.2784ZM76.9943 566V564.727L80.9318 560.648C81.3523 560.205 81.6989 559.816 81.9716 559.483C82.2481 559.146 82.4545 558.826 82.5909 558.523C82.7273 558.22 82.7955 557.898 82.7955 557.557C82.7955 557.17 82.7045 556.837 82.5227 556.557C82.3409 556.273 82.0928 556.055 81.7784 555.903C81.464 555.748 81.1098 555.67 80.7159 555.67C80.2992 555.67 79.9356 555.756 79.625 555.926C79.3144 556.097 79.0758 556.337 78.9091 556.648C78.7424 556.958 78.6591 557.322 78.6591 557.739H76.983C76.983 557.03 77.1458 556.411 77.4716 555.881C77.7973 555.35 78.2443 554.939 78.8125 554.648C79.3807 554.352 80.0265 554.205 80.75 554.205C81.4811 554.205 82.125 554.35 82.6818 554.642C83.2424 554.93 83.6799 555.324 83.9943 555.824C84.3087 556.32 84.4659 556.881 84.4659 557.506C84.4659 557.938 84.3845 558.36 84.2216 558.773C84.0625 559.186 83.7841 559.646 83.3864 560.153C82.9886 560.657 82.4356 561.269 81.7273 561.989L79.4148 564.409V564.494H84.6534V566H76.9943Z" fill="#0A0D11"/>
<path d="M446.375 563.727V562.307L451.403 554.364H452.523V556.455H451.812L448.216 562.148V562.239H455.108V563.727H446.375ZM451.892 566V563.295L451.903 562.648V554.364H453.568V566H451.892ZM461.139 566.193C460.241 566.189 459.474 565.953 458.838 565.483C458.202 565.013 457.715 564.33 457.378 563.432C457.041 562.534 456.872 561.453 456.872 560.188C456.872 558.926 457.041 557.848 457.378 556.955C457.719 556.061 458.207 555.379 458.844 554.909C459.484 554.439 460.249 554.205 461.139 554.205C462.029 554.205 462.793 554.441 463.429 554.915C464.065 555.384 464.552 556.066 464.889 556.96C465.23 557.85 465.401 558.926 465.401 560.188C465.401 561.456 465.232 562.54 464.895 563.438C464.558 564.331 464.071 565.015 463.435 565.489C462.798 565.958 462.033 566.193 461.139 566.193ZM461.139 564.676C461.927 564.676 462.543 564.292 462.986 563.523C463.433 562.754 463.656 561.642 463.656 560.188C463.656 559.222 463.554 558.405 463.349 557.739C463.149 557.068 462.859 556.561 462.48 556.216C462.105 555.867 461.658 555.693 461.139 555.693C460.355 555.693 459.74 556.08 459.293 556.852C458.846 557.625 458.62 558.737 458.616 560.188C458.616 561.157 458.717 561.977 458.918 562.648C459.122 563.314 459.412 563.82 459.787 564.165C460.162 564.506 460.613 564.676 461.139 564.676ZM467.439 569.273V557.273H469.098V558.688H469.24C469.339 558.506 469.481 558.295 469.666 558.057C469.852 557.818 470.109 557.61 470.439 557.432C470.768 557.25 471.204 557.159 471.746 557.159C472.45 557.159 473.079 557.337 473.632 557.693C474.185 558.049 474.619 558.562 474.933 559.233C475.251 559.903 475.411 560.71 475.411 561.653C475.411 562.597 475.253 563.405 474.939 564.08C474.625 564.75 474.193 565.267 473.643 565.631C473.094 565.991 472.467 566.17 471.763 566.17C471.232 566.17 470.799 566.081 470.462 565.903C470.128 565.725 469.867 565.517 469.678 565.278C469.488 565.04 469.342 564.828 469.24 564.642H469.138V569.273H467.439ZM469.104 561.636C469.104 562.25 469.193 562.788 469.371 563.25C469.549 563.712 469.806 564.074 470.143 564.335C470.481 564.593 470.893 564.722 471.382 564.722C471.89 564.722 472.314 564.587 472.655 564.318C472.996 564.045 473.253 563.676 473.428 563.21C473.606 562.744 473.695 562.22 473.695 561.636C473.695 561.061 473.607 560.544 473.433 560.085C473.263 559.627 473.005 559.265 472.661 559C472.32 558.735 471.893 558.602 471.382 558.602C470.89 558.602 470.473 558.729 470.132 558.983C469.795 559.237 469.539 559.591 469.365 560.045C469.191 560.5 469.104 561.03 469.104 561.636ZM478.311 557.273L480.237 560.67L482.18 557.273H484.038L481.317 561.636L484.061 566H482.203L480.237 562.739L478.277 566H476.413L479.129 561.636L476.447 557.273H478.311Z" fill="#0A0D11"/>
<path d="M897.953 563.727V562.307L902.982 554.364H904.101V556.455H903.391L899.794 562.148V562.239H906.686V563.727H897.953ZM903.47 566V563.295L903.482 562.648V554.364H905.146V566H903.47ZM912.598 566.159C911.784 566.159 911.064 566.019 910.439 565.739C909.818 565.458 909.331 565.072 908.979 564.58C908.626 564.087 908.452 563.527 908.456 562.898C908.452 562.405 908.553 561.953 908.757 561.54C908.965 561.123 909.248 560.777 909.604 560.5C909.96 560.22 910.357 560.042 910.797 559.966V559.898C910.217 559.758 909.753 559.447 909.405 558.966C909.056 558.485 908.884 557.932 908.888 557.307C908.884 556.712 909.041 556.182 909.359 555.716C909.681 555.246 910.123 554.877 910.683 554.608C911.244 554.339 911.882 554.205 912.598 554.205C913.306 554.205 913.939 554.341 914.496 554.614C915.056 554.883 915.498 555.252 915.82 555.722C916.142 556.187 916.304 556.716 916.308 557.307C916.304 557.932 916.126 558.485 915.774 558.966C915.422 559.447 914.964 559.758 914.399 559.898V559.966C914.835 560.042 915.227 560.22 915.575 560.5C915.928 560.777 916.208 561.123 916.416 561.54C916.628 561.953 916.736 562.405 916.74 562.898C916.736 563.527 916.558 564.087 916.206 564.58C915.854 565.072 915.365 565.458 914.74 565.739C914.119 566.019 913.405 566.159 912.598 566.159ZM912.598 564.722C913.079 564.722 913.496 564.642 913.848 564.483C914.2 564.32 914.473 564.095 914.666 563.807C914.859 563.515 914.958 563.174 914.962 562.784C914.958 562.379 914.852 562.021 914.643 561.71C914.439 561.4 914.161 561.155 913.808 560.977C913.456 560.799 913.053 560.71 912.598 560.71C912.14 560.71 911.732 560.799 911.376 560.977C911.02 561.155 910.74 561.4 910.536 561.71C910.331 562.021 910.231 562.379 910.234 562.784C910.231 563.174 910.323 563.515 910.513 563.807C910.706 564.095 910.981 564.32 911.337 564.483C911.693 564.642 912.113 564.722 912.598 564.722ZM912.598 559.307C912.984 559.307 913.327 559.229 913.626 559.074C913.926 558.919 914.161 558.703 914.331 558.426C914.505 558.15 914.594 557.826 914.598 557.455C914.594 557.091 914.507 556.773 914.337 556.5C914.17 556.227 913.937 556.017 913.638 555.869C913.339 555.718 912.992 555.642 912.598 555.642C912.196 555.642 911.844 555.718 911.541 555.869C911.242 556.017 911.009 556.227 910.842 556.5C910.676 556.773 910.594 557.091 910.598 557.455C910.594 557.826 910.678 558.15 910.848 558.426C911.018 558.703 911.253 558.919 911.553 559.074C911.856 559.229 912.204 559.307 912.598 559.307ZM918.798 569.273V557.273H920.457V558.688H920.599C920.698 558.506 920.84 558.295 921.026 558.057C921.211 557.818 921.469 557.61 921.798 557.432C922.128 557.25 922.563 557.159 923.105 557.159C923.81 557.159 924.438 557.337 924.991 557.693C925.545 558.049 925.978 558.562 926.293 559.233C926.611 559.903 926.77 560.71 926.77 561.653C926.77 562.597 926.613 563.405 926.298 564.08C925.984 564.75 925.552 565.267 925.003 565.631C924.454 565.991 923.827 566.17 923.122 566.17C922.592 566.17 922.158 566.081 921.821 565.903C921.488 565.725 921.226 565.517 921.037 565.278C920.848 565.04 920.702 564.828 920.599 564.642H920.497V569.273H918.798ZM920.463 561.636C920.463 562.25 920.552 562.788 920.73 563.25C920.908 563.712 921.166 564.074 921.503 564.335C921.84 564.593 922.253 564.722 922.741 564.722C923.249 564.722 923.673 564.587 924.014 564.318C924.355 564.045 924.613 563.676 924.787 563.21C924.965 562.744 925.054 562.22 925.054 561.636C925.054 561.061 924.967 560.544 924.793 560.085C924.622 559.627 924.365 559.265 924.02 559C923.679 558.735 923.253 558.602 922.741 558.602C922.249 558.602 921.832 558.729 921.491 558.983C921.154 559.237 920.899 559.591 920.724 560.045C920.55 560.5 920.463 561.03 920.463 561.636ZM929.67 557.273L931.597 560.67L933.54 557.273H935.398L932.676 561.636L935.42 566H933.562L931.597 562.739L929.636 566H927.773L930.489 561.636L927.807 557.273H929.67Z" fill="#0A0D11"/>
<mask id="path-20-inside-4_112_8674" fill="white">
<path d="M64 624H936V672H64V624Z"/>
</mask>
<path d="M936 672V671H64V672V673H936V672Z" fill="black" fill-opacity="0.1" mask="url(#path-20-inside-4_112_8674)"/>
<path d="M65.2784 646V634.364H67.0341V639.42H72.8352V634.364H74.5966V646H72.8352V640.926H67.0341V646H65.2784ZM81.0455 646.159C80.2652 646.159 79.5682 646.025 78.9545 645.756C78.3447 645.487 77.8617 645.114 77.5057 644.636C77.1534 644.155 76.964 643.598 76.9375 642.966H78.7216C78.7443 643.311 78.8598 643.61 79.0682 643.864C79.2803 644.114 79.5568 644.307 79.8977 644.443C80.2386 644.58 80.6174 644.648 81.0341 644.648C81.4924 644.648 81.8977 644.568 82.25 644.409C82.6061 644.25 82.8845 644.028 83.0852 643.744C83.286 643.456 83.3864 643.125 83.3864 642.75C83.3864 642.36 83.286 642.017 83.0852 641.722C82.8883 641.422 82.5985 641.187 82.2159 641.017C81.8371 640.847 81.3788 640.761 80.8409 640.761H79.858V639.33H80.8409C81.2727 639.33 81.6515 639.252 81.9773 639.097C82.3068 638.941 82.5644 638.725 82.75 638.449C82.9356 638.169 83.0284 637.841 83.0284 637.466C83.0284 637.106 82.947 636.794 82.7841 636.528C82.625 636.259 82.3977 636.049 82.1023 635.898C81.8106 635.746 81.4659 635.67 81.0682 635.67C80.6894 635.67 80.3352 635.741 80.0057 635.881C79.6799 636.017 79.4148 636.214 79.2102 636.472C79.0057 636.725 78.8958 637.03 78.8807 637.386H77.1818C77.2008 636.758 77.3864 636.205 77.7386 635.727C78.0947 635.25 78.5644 634.877 79.1477 634.608C79.7311 634.339 80.3788 634.205 81.0909 634.205C81.8371 634.205 82.4811 634.35 83.0227 634.642C83.5682 634.93 83.9886 635.314 84.2841 635.795C84.5833 636.277 84.7311 636.803 84.7273 637.375C84.7311 638.027 84.5492 638.58 84.1818 639.034C83.8182 639.489 83.3333 639.794 82.7273 639.949V640.04C83.5 640.157 84.0985 640.464 84.5227 640.96C84.9508 641.456 85.1629 642.072 85.1591 642.807C85.1629 643.447 84.9848 644.021 84.625 644.528C84.2689 645.036 83.7822 645.436 83.1648 645.727C82.5473 646.015 81.8409 646.159 81.0455 646.159Z" fill="#0A0D11"/>
<path d="M450.67 646.159C449.89 646.159 449.193 646.025 448.58 645.756C447.97 645.487 447.487 645.114 447.131 644.636C446.778 644.155 446.589 643.598 446.562 642.966H448.347C448.369 643.311 448.485 643.61 448.693 643.864C448.905 644.114 449.182 644.307 449.523 644.443C449.864 644.58 450.242 644.648 450.659 644.648C451.117 644.648 451.523 644.568 451.875 644.409C452.231 644.25 452.509 644.028 452.71 643.744C452.911 643.456 453.011 643.125 453.011 642.75C453.011 642.36 452.911 642.017 452.71 641.722C452.513 641.422 452.223 641.187 451.841 641.017C451.462 640.847 451.004 640.761 450.466 640.761H449.483V639.33H450.466C450.898 639.33 451.277 639.252 451.602 639.097C451.932 638.941 452.189 638.725 452.375 638.449C452.561 638.169 452.653 637.841 452.653 637.466C452.653 637.106 452.572 636.794 452.409 636.528C452.25 636.259 452.023 636.049 451.727 635.898C451.436 635.746 451.091 635.67 450.693 635.67C450.314 635.67 449.96 635.741 449.631 635.881C449.305 636.017 449.04 636.214 448.835 636.472C448.631 636.725 448.521 637.03 448.506 637.386H446.807C446.826 636.758 447.011 636.205 447.364 635.727C447.72 635.25 448.189 634.877 448.773 634.608C449.356 634.339 450.004 634.205 450.716 634.205C451.462 634.205 452.106 634.35 452.648 634.642C453.193 634.93 453.614 635.314 453.909 635.795C454.208 636.277 454.356 636.803 454.352 637.375C454.356 638.027 454.174 638.58 453.807 639.034C453.443 639.489 452.958 639.794 452.352 639.949V640.04C453.125 640.157 453.723 640.464 454.148 640.96C454.576 641.456 454.788 642.072 454.784 642.807C454.788 643.447 454.61 644.021 454.25 644.528C453.894 645.036 453.407 645.436 452.79 645.727C452.172 646.015 451.466 646.159 450.67 646.159ZM456.932 646V644.727L460.869 640.648C461.29 640.205 461.636 639.816 461.909 639.483C462.186 639.146 462.392 638.826 462.528 638.523C462.665 638.22 462.733 637.898 462.733 637.557C462.733 637.17 462.642 636.837 462.46 636.557C462.278 636.273 462.03 636.055 461.716 635.903C461.402 635.748 461.047 635.67 460.653 635.67C460.237 635.67 459.873 635.756 459.562 635.926C459.252 636.097 459.013 636.337 458.847 636.648C458.68 636.958 458.597 637.322 458.597 637.739H456.92C456.92 637.03 457.083 636.411 457.409 635.881C457.735 635.35 458.182 634.939 458.75 634.648C459.318 634.352 459.964 634.205 460.688 634.205C461.419 634.205 462.063 634.35 462.619 634.642C463.18 634.93 463.617 635.324 463.932 635.824C464.246 636.32 464.403 636.881 464.403 637.506C464.403 637.938 464.322 638.36 464.159 638.773C464 639.186 463.722 639.646 463.324 640.153C462.926 640.657 462.373 641.269 461.665 641.989L459.352 644.409V644.494H464.591V646H456.932ZM466.767 649.273V637.273H468.426V638.688H468.568C468.667 638.506 468.809 638.295 468.994 638.057C469.18 637.818 469.438 637.61 469.767 637.432C470.097 637.25 470.532 637.159 471.074 637.159C471.778 637.159 472.407 637.337 472.96 637.693C473.513 638.049 473.947 638.562 474.261 639.233C474.58 639.903 474.739 640.71 474.739 641.653C474.739 642.597 474.581 643.405 474.267 644.08C473.953 644.75 473.521 645.267 472.972 645.631C472.422 645.991 471.795 646.17 471.091 646.17C470.561 646.17 470.127 646.081 469.79 645.903C469.456 645.725 469.195 645.517 469.006 645.278C468.816 645.04 468.67 644.828 468.568 644.642H468.466V649.273H466.767ZM468.432 641.636C468.432 642.25 468.521 642.788 468.699 643.25C468.877 643.712 469.134 644.074 469.472 644.335C469.809 644.593 470.222 644.722 470.71 644.722C471.218 644.722 471.642 644.587 471.983 644.318C472.324 644.045 472.581 643.676 472.756 643.21C472.934 642.744 473.023 642.22 473.023 641.636C473.023 641.061 472.936 640.544 472.761 640.085C472.591 639.627 472.333 639.265 471.989 639C471.648 638.735 471.222 638.602 470.71 638.602C470.218 638.602 469.801 638.729 469.46 638.983C469.123 639.237 468.867 639.591 468.693 640.045C468.519 640.5 468.432 641.03 468.432 641.636ZM477.639 637.273L479.565 640.67L481.509 637.273H483.366L480.645 641.636L483.389 646H481.531L479.565 642.739L477.605 646H475.741L478.457 641.636L475.776 637.273H477.639Z" fill="#0A0D11"/>
<path d="M897.734 643.727V642.307L902.763 634.364H903.882V636.455H903.172L899.575 642.148V642.239H906.467V643.727H897.734ZM903.251 646V643.295L903.263 642.648V634.364H904.928V646H903.251ZM912.499 646.193C911.601 646.189 910.834 645.953 910.197 645.483C909.561 645.013 909.074 644.33 908.737 643.432C908.4 642.534 908.232 641.453 908.232 640.188C908.232 638.926 908.4 637.848 908.737 636.955C909.078 636.061 909.567 635.379 910.203 634.909C910.843 634.439 911.608 634.205 912.499 634.205C913.389 634.205 914.152 634.441 914.788 634.915C915.425 635.384 915.911 636.066 916.249 636.96C916.589 637.85 916.76 638.926 916.76 640.188C916.76 641.456 916.591 642.54 916.254 643.438C915.917 644.331 915.43 645.015 914.794 645.489C914.158 645.958 913.393 646.193 912.499 646.193ZM912.499 644.676C913.286 644.676 913.902 644.292 914.345 643.523C914.792 642.754 915.016 641.642 915.016 640.188C915.016 639.222 914.913 638.405 914.709 637.739C914.508 637.068 914.218 636.561 913.839 636.216C913.464 635.867 913.018 635.693 912.499 635.693C911.714 635.693 911.099 636.08 910.652 636.852C910.205 637.625 909.98 638.737 909.976 640.188C909.976 641.157 910.076 641.977 910.277 642.648C910.482 643.314 910.771 643.82 911.146 644.165C911.521 644.506 911.972 644.676 912.499 644.676ZM918.798 649.273V637.273H920.457V638.688H920.599C920.698 638.506 920.84 638.295 921.026 638.057C921.211 637.818 921.469 637.61 921.798 637.432C922.128 637.25 922.563 637.159 923.105 637.159C923.81 637.159 924.438 637.337 924.991 637.693C925.545 638.049 925.978 638.562 926.293 639.233C926.611 639.903 926.77 640.71 926.77 641.653C926.77 642.597 926.613 643.405 926.298 644.08C925.984 644.75 925.552 645.267 925.003 645.631C924.454 645.991 923.827 646.17 923.122 646.17C922.592 646.17 922.158 646.081 921.821 645.903C921.488 645.725 921.226 645.517 921.037 645.278C920.848 645.04 920.702 644.828 920.599 644.642H920.497V649.273H918.798ZM920.463 641.636C920.463 642.25 920.552 642.788 920.73 643.25C920.908 643.712 921.166 644.074 921.503 644.335C921.84 644.593 922.253 644.722 922.741 644.722C923.249 644.722 923.673 644.587 924.014 644.318C924.355 644.045 924.613 643.676 924.787 643.21C924.965 642.744 925.054 642.22 925.054 641.636C925.054 641.061 924.967 640.544 924.793 640.085C924.622 639.627 924.365 639.265 924.02 639C923.679 638.735 923.253 638.602 922.741 638.602C922.249 638.602 921.832 638.729 921.491 638.983C921.154 639.237 920.899 639.591 920.724 640.045C920.55 640.5 920.463 641.03 920.463 641.636ZM929.67 637.273L931.597 640.67L933.54 637.273H935.398L932.676 641.636L935.42 646H933.562L931.597 642.739L929.636 646H927.773L930.489 641.636L927.807 637.273H929.67Z" fill="#0A0D11"/>
<path d="M65.2784 726V714.364H67.0341V719.42H72.8352V714.364H74.5966V726H72.8352V720.926H67.0341V726H65.2784ZM81.4091 714.364V726H79.6477V716.125H79.5795L76.7955 717.943V716.261L79.6989 714.364H81.4091Z" fill="#0A0D11"/>
<path d="M446.619 726V724.727L450.557 720.648C450.977 720.205 451.324 719.816 451.597 719.483C451.873 719.146 452.08 718.826 452.216 718.523C452.352 718.22 452.42 717.898 452.42 717.557C452.42 717.17 452.33 716.837 452.148 716.557C451.966 716.273 451.718 716.055 451.403 715.903C451.089 715.748 450.735 715.67 450.341 715.67C449.924 715.67 449.561 715.756 449.25 715.926C448.939 716.097 448.701 716.337 448.534 716.648C448.367 716.958 448.284 717.322 448.284 717.739H446.608C446.608 717.03 446.771 716.411 447.097 715.881C447.422 715.35 447.869 714.939 448.438 714.648C449.006 714.352 449.652 714.205 450.375 714.205C451.106 714.205 451.75 714.35 452.307 714.642C452.867 714.93 453.305 715.324 453.619 715.824C453.934 716.32 454.091 716.881 454.091 717.506C454.091 717.938 454.009 718.36 453.847 718.773C453.688 719.186 453.409 719.646 453.011 720.153C452.614 720.657 452.061 721.269 451.352 721.989L449.04 724.409V724.494H454.278V726H446.619ZM455.938 723.727V722.307L460.966 714.364H462.085V716.455H461.375L457.778 722.148V722.239H464.67V723.727H455.938ZM461.455 726V723.295L461.466 722.648V714.364H463.131V726H461.455ZM466.673 729.273V717.273H468.332V718.688H468.474C468.573 718.506 468.715 718.295 468.901 718.057C469.086 717.818 469.344 717.61 469.673 717.432C470.003 717.25 470.438 717.159 470.98 717.159C471.685 717.159 472.313 717.337 472.866 717.693C473.42 718.049 473.853 718.562 474.168 719.233C474.486 719.903 474.645 720.71 474.645 721.653C474.645 722.597 474.488 723.405 474.173 724.08C473.859 724.75 473.427 725.267 472.878 725.631C472.329 725.991 471.702 726.17 470.997 726.17C470.467 726.17 470.033 726.081 469.696 725.903C469.363 725.725 469.101 725.517 468.912 725.278C468.723 725.04 468.577 724.828 468.474 724.642H468.372V729.273H466.673ZM468.338 721.636C468.338 722.25 468.427 722.788 468.605 723.25C468.783 723.712 469.041 724.074 469.378 724.335C469.715 724.593 470.128 724.722 470.616 724.722C471.124 724.722 471.548 724.587 471.889 724.318C472.23 724.045 472.488 723.676 472.662 723.21C472.84 722.744 472.929 722.22 472.929 721.636C472.929 721.061 472.842 720.544 472.668 720.085C472.497 719.627 472.24 719.265 471.895 719C471.554 718.735 471.128 718.602 470.616 718.602C470.124 718.602 469.707 718.729 469.366 718.983C469.029 719.237 468.774 719.591 468.599 720.045C468.425 720.5 468.338 721.03 468.338 721.636ZM477.545 717.273L479.472 720.67L481.415 717.273H483.273L480.551 721.636L483.295 726H481.438L479.472 722.739L477.511 726H475.648L478.364 721.636L475.682 717.273H477.545Z" fill="#0A0D11"/>
<path d="M902.342 726.159C901.562 726.159 900.865 726.025 900.251 725.756C899.642 725.487 899.159 725.114 898.803 724.636C898.45 724.155 898.261 723.598 898.234 722.966H900.018C900.041 723.311 900.157 723.61 900.365 723.864C900.577 724.114 900.854 724.307 901.195 724.443C901.536 724.58 901.914 724.648 902.331 724.648C902.789 724.648 903.195 724.568 903.547 724.409C903.903 724.25 904.181 724.028 904.382 723.744C904.583 723.456 904.683 723.125 904.683 722.75C904.683 722.36 904.583 722.017 904.382 721.722C904.185 721.422 903.895 721.187 903.513 721.017C903.134 720.847 902.676 720.761 902.138 720.761H901.155V719.33H902.138C902.57 719.33 902.948 719.252 903.274 719.097C903.604 718.941 903.861 718.725 904.047 718.449C904.232 718.169 904.325 717.841 904.325 717.466C904.325 717.106 904.244 716.794 904.081 716.528C903.922 716.259 903.695 716.049 903.399 715.898C903.107 715.746 902.763 715.67 902.365 715.67C901.986 715.67 901.632 715.741 901.303 715.881C900.977 716.017 900.712 716.214 900.507 716.472C900.303 716.725 900.193 717.03 900.178 717.386H898.479C898.498 716.758 898.683 716.205 899.036 715.727C899.392 715.25 899.861 714.877 900.445 714.608C901.028 714.339 901.676 714.205 902.388 714.205C903.134 714.205 903.778 714.35 904.32 714.642C904.865 714.93 905.286 715.314 905.581 715.795C905.88 716.277 906.028 716.803 906.024 717.375C906.028 718.027 905.846 718.58 905.479 719.034C905.115 719.489 904.63 719.794 904.024 719.949V720.04C904.797 720.157 905.395 720.464 905.82 720.96C906.248 721.456 906.46 722.072 906.456 722.807C906.46 723.447 906.282 724.021 905.922 724.528C905.566 725.036 905.079 725.436 904.462 725.727C903.844 726.015 903.138 726.159 902.342 726.159ZM912.666 726.159C912.147 726.152 911.636 726.057 911.132 725.875C910.632 725.693 910.178 725.39 909.768 724.966C909.359 724.542 909.032 723.972 908.786 723.256C908.543 722.54 908.422 721.646 908.422 720.574C908.422 719.559 908.522 718.657 908.723 717.869C908.928 717.081 909.221 716.417 909.604 715.875C909.986 715.33 910.448 714.915 910.99 714.631C911.532 714.347 912.14 714.205 912.814 714.205C913.507 714.205 914.123 714.341 914.661 714.614C915.198 714.886 915.634 715.263 915.967 715.744C916.304 716.225 916.518 716.773 916.609 717.386H914.876C914.759 716.902 914.526 716.506 914.178 716.199C913.829 715.892 913.375 715.739 912.814 715.739C911.962 715.739 911.297 716.11 910.82 716.852C910.346 717.595 910.107 718.627 910.104 719.949H910.189C910.39 719.619 910.636 719.339 910.928 719.108C911.223 718.873 911.553 718.693 911.916 718.568C912.284 718.439 912.67 718.375 913.075 718.375C913.75 718.375 914.359 718.54 914.905 718.869C915.454 719.195 915.892 719.646 916.217 720.222C916.543 720.797 916.706 721.456 916.706 722.199C916.706 722.941 916.537 723.614 916.2 724.216C915.867 724.818 915.397 725.295 914.791 725.648C914.185 725.996 913.477 726.167 912.666 726.159ZM912.661 724.682C913.107 724.682 913.507 724.572 913.859 724.352C914.212 724.133 914.49 723.837 914.695 723.466C914.899 723.095 915.001 722.68 915.001 722.222C915.001 721.775 914.901 721.367 914.7 721C914.503 720.633 914.231 720.341 913.882 720.125C913.537 719.909 913.143 719.801 912.7 719.801C912.363 719.801 912.051 719.866 911.763 719.994C911.479 720.123 911.229 720.301 911.013 720.528C910.797 720.756 910.626 721.017 910.501 721.312C910.38 721.604 910.32 721.913 910.32 722.239C910.32 722.674 910.42 723.078 910.621 723.449C910.825 723.82 911.104 724.119 911.456 724.347C911.812 724.57 912.214 724.682 912.661 724.682ZM918.798 729.273V717.273H920.457V718.688H920.599C920.698 718.506 920.84 718.295 921.026 718.057C921.211 717.818 921.469 717.61 921.798 717.432C922.128 717.25 922.563 717.159 923.105 717.159C923.81 717.159 924.438 717.337 924.991 717.693C925.545 718.049 925.978 718.562 926.293 719.233C926.611 719.903 926.77 720.71 926.77 721.653C926.77 722.597 926.613 723.405 926.298 724.08C925.984 724.75 925.552 725.267 925.003 725.631C924.454 725.991 923.827 726.17 923.122 726.17C922.592 726.17 922.158 726.081 921.821 725.903C921.488 725.725 921.226 725.517 921.037 725.278C920.848 725.04 920.702 724.828 920.599 724.642H920.497V729.273H918.798ZM920.463 721.636C920.463 722.25 920.552 722.788 920.73 723.25C920.908 723.712 921.166 724.074 921.503 724.335C921.84 724.593 922.253 724.722 922.741 724.722C923.249 724.722 923.673 724.587 924.014 724.318C924.355 724.045 924.613 723.676 924.787 723.21C924.965 722.744 925.054 722.22 925.054 721.636C925.054 721.061 924.967 720.544 924.793 720.085C924.622 719.627 924.365 719.265 924.02 719C923.679 718.735 923.253 718.602 922.741 718.602C922.249 718.602 921.832 718.729 921.491 718.983C921.154 719.237 920.899 719.591 920.724 720.045C920.55 720.5 920.463 721.03 920.463 721.636ZM929.67 717.273L931.597 720.67L933.54 717.273H935.398L932.676 721.636L935.42 726H933.562L931.597 722.739L929.636 726H927.773L930.489 721.636L927.807 717.273H929.67Z" fill="#0A0D11"/>
</g>
<g filter="url(#filter0_f_112_8674)">
<rect width="1000" height="277" transform="translate(0 544)" fill="url(#paint0_linear_112_8674)" fill-opacity="0.8"/>
</g>
</g>
<defs>
<filter id="filter0_f_112_8674" x="-3" y="541" width="1006" height="283" filterUnits="userSpaceOnUse" color-interpolation-filters="sRGB">
<feFlood flood-opacity="0" result="BackgroundImageFix"/>
<feBlend mode="normal" in="SourceGraphic" in2="BackgroundImageFix" result="shape"/>
<feGaussianBlur stdDeviation="1.5" result="effect1_foregroundBlur_112_8674"/>
</filter>
<linearGradient id="paint0_linear_112_8674" x1="500" y1="32.4942" x2="500" y2="277" gradientUnits="userSpaceOnUse">
<stop stop-color="#E7E7E7" stop-opacity="0"/>
<stop offset="1" stop-color="#E7E7E7"/>
</linearGradient>
<clipPath id="clip0_112_8674">
<rect width="1000" height="752" rx="24" fill="white"/>
</clipPath>
<clipPath id="clip1_112_8674">
<rect width="872" height="688" fill="white" transform="translate(64 64)"/>
</clipPath>
</defs>
</svg>
