<svg width="1000" height="752" viewBox="0 0 1000 752" fill="none" xmlns="http://www.w3.org/2000/svg">
<g clip-path="url(#clip0_112_10260)">
<rect width="1000" height="752" rx="32" fill="#E7E7E7"/>
<g clip-path="url(#clip1_112_10260)">
<path d="M97.92 111.352C97.92 115.448 96.768 118.413 94.464 120.248C92.16 122.083 88.512 123 83.52 123H67.84V82.872H83.52C88.0427 82.872 91.2427 83.64 93.12 85.176C95.04 86.712 96 89.336 96 93.048C96 95.5653 95.616 97.4853 94.848 98.808C94.08 100.131 92.672 101.091 90.624 101.688C93.056 102.115 94.8693 103.139 96.064 104.76C97.3013 106.339 97.92 108.536 97.92 111.352ZM88.896 94.136C88.896 92.3013 88.4907 91.0427 87.68 90.36C86.912 89.6347 85.5253 89.272 83.52 89.272H75.52V99.64H83.52C85.44 99.64 86.8053 99.2133 87.616 98.36C88.4693 97.5067 88.896 96.0987 88.896 94.136ZM90.496 110.84C90.496 108.877 89.9627 107.512 88.896 106.744C87.872 105.976 86.08 105.592 83.52 105.592H75.52V116.344H83.52C86.08 116.344 87.872 115.939 88.896 115.128C89.9627 114.317 90.496 112.888 90.496 110.84ZM110.194 80.44V123H102.77V80.44H110.194ZM124.261 86.904H116.389V80.44H124.261V86.904ZM124.069 123H116.645V91.384H124.069V123ZM137.944 123H130.52V91.384H136.92L137.24 94.584H137.432C138.925 93.2613 140.525 92.3013 142.232 91.704C143.981 91.064 146.029 90.744 148.376 90.744C151.875 90.744 154.541 91.6187 156.376 93.368C158.211 95.1173 159.128 97.6987 159.128 101.112V123H151.704V102.072C151.704 100.536 151.192 99.384 150.168 98.616C149.187 97.8053 147.715 97.4 145.752 97.4C144.344 97.4 142.979 97.592 141.656 97.976C140.333 98.3173 139.096 98.8507 137.944 99.576V123ZM172.882 110.008V123H165.458V80.44H172.882V103.992H175.57L185.042 91.384H193.874L181.778 106.68L194.514 123H185.362L175.634 110.008H172.882ZM220.418 115.256V121.272C219.351 121.912 217.666 122.467 215.362 122.936C213.1 123.363 210.732 123.576 208.258 123.576C203.223 123.576 199.596 122.296 197.378 119.736C195.202 117.176 194.114 112.952 194.114 107.064C194.114 101.389 195.266 97.2507 197.57 94.648C199.874 92.0453 203.522 90.744 208.514 90.744C213.335 90.744 216.748 91.7467 218.754 93.752C220.759 95.7573 221.762 99.192 221.762 104.056C221.762 104.952 221.74 105.784 221.698 106.552C221.655 107.277 221.57 108.301 221.442 109.624H201.602C201.644 112.269 202.22 114.125 203.33 115.192C204.482 116.259 206.508 116.792 209.41 116.792C211.33 116.792 213.314 116.643 215.362 116.344C217.41 116.045 219.095 115.683 220.418 115.256ZM208.514 97.208C205.911 97.208 204.098 97.72 203.074 98.744C202.092 99.768 201.602 101.624 201.602 104.312H214.978V102.968C214.935 100.792 214.444 99.2987 213.506 98.488C212.567 97.6347 210.903 97.208 208.514 97.208ZM234.319 123H226.895V91.384H233.743L234.063 93.944H234.255C235.834 93.0053 237.434 92.28 239.055 91.768C240.676 91.256 242.255 91 243.791 91C244.218 91 244.495 91 244.623 91C244.794 91 244.922 91.0213 245.007 91.064V98.232C244.751 98.1467 244.41 98.104 243.983 98.104C243.599 98.0613 242.916 98.04 241.935 98.04C240.442 98.04 239.055 98.168 237.775 98.424C236.495 98.68 235.343 99.0427 234.319 99.512V123Z" fill="#0A0D11"/>
<path d="M68.128 198H64.096L71.776 177.936H75.744L83.296 198H79.264L77.824 193.904H69.536L68.128 198ZM73.664 181.616C73.4293 182.427 73.1627 183.28 72.864 184.176C72.5867 185.072 72.32 185.904 72.064 186.672L70.656 190.736H76.704L75.296 186.672C75.0613 185.989 74.7947 185.2 74.496 184.304C74.1973 183.387 73.92 182.491 73.664 181.616ZM88.8783 198.288C87.2569 198.288 86.0623 197.893 85.2943 197.104C84.5476 196.293 84.1743 195.035 84.1743 193.328C84.1743 191.579 84.6223 190.341 85.5182 189.616C86.4356 188.891 88.0036 188.528 90.2223 188.528C90.8409 188.528 91.4703 188.56 92.1103 188.624C92.7503 188.688 93.3049 188.773 93.7743 188.88V187.536C93.7743 186.704 93.5183 186.096 93.0063 185.712C92.4943 185.328 91.6836 185.136 90.5743 185.136C89.5716 185.136 88.6756 185.168 87.8863 185.232C87.1183 185.296 86.3823 185.403 85.6783 185.552V182.448C86.4889 182.256 87.3636 182.117 88.3023 182.032C89.2623 181.925 90.3929 181.872 91.6943 181.872C93.6356 181.872 95.0863 182.32 96.0463 183.216C97.0063 184.091 97.4863 185.413 97.4863 187.184V198H94.0623L93.9023 196.592H93.8383C93.1556 197.104 92.3663 197.52 91.4703 197.84C90.5956 198.139 89.7316 198.288 88.8783 198.288ZM90.6703 191.184C89.5183 191.184 88.7289 191.323 88.3023 191.6C87.8756 191.856 87.6623 192.357 87.6623 193.104C87.6623 193.829 87.8329 194.352 88.1743 194.672C88.5369 194.971 89.1449 195.12 89.9983 195.12C90.6169 195.12 91.2676 195.035 91.9503 194.864C92.6543 194.672 93.2623 194.437 93.7743 194.16V191.44C93.2623 191.355 92.7503 191.291 92.2383 191.248C91.7476 191.205 91.2249 191.184 90.6703 191.184ZM116.116 192.176C116.116 194.224 115.54 195.707 114.388 196.624C113.236 197.541 111.412 198 108.916 198H101.076V177.936H108.916C111.178 177.936 112.778 178.32 113.716 179.088C114.676 179.856 115.156 181.168 115.156 183.024C115.156 184.283 114.964 185.243 114.58 185.904C114.196 186.565 113.492 187.045 112.468 187.344C113.684 187.557 114.591 188.069 115.188 188.88C115.807 189.669 116.116 190.768 116.116 192.176ZM111.604 183.568C111.604 182.651 111.402 182.021 110.996 181.68C110.612 181.317 109.919 181.136 108.916 181.136H104.916V186.32H108.916C109.876 186.32 110.559 186.107 110.964 185.68C111.391 185.253 111.604 184.549 111.604 183.568ZM112.404 191.92C112.404 190.939 112.138 190.256 111.604 189.872C111.092 189.488 110.196 189.296 108.916 189.296H104.916V194.672H108.916C110.196 194.672 111.092 194.469 111.604 194.064C112.138 193.659 112.404 192.944 112.404 191.92ZM127.367 181.872C129.501 181.872 131.015 182.501 131.911 183.76C132.807 184.997 133.255 187.067 133.255 189.968C133.255 192.912 132.669 195.035 131.495 196.336C130.343 197.637 128.434 198.288 125.767 198.288C124.402 198.288 123.122 198.213 121.927 198.064C120.754 197.915 119.698 197.701 118.759 197.424V176.72H122.471V183.12C123.218 182.715 124.018 182.405 124.871 182.192C125.725 181.979 126.557 181.872 127.367 181.872ZM129.543 189.968C129.543 188.112 129.309 186.853 128.839 186.192C128.391 185.531 127.453 185.2 126.023 185.2C125.405 185.2 124.775 185.275 124.135 185.424C123.517 185.552 122.962 185.733 122.471 185.968V194.544C122.855 194.651 123.293 194.725 123.783 194.768C124.274 194.811 124.85 194.832 125.511 194.832C127.154 194.832 128.231 194.501 128.743 193.84C129.277 193.179 129.543 191.888 129.543 189.968ZM144.616 194.672C145.49 194.672 146.418 194.576 147.4 194.384C148.402 194.192 149.298 193.936 150.088 193.616V197.04C148.914 197.509 147.858 197.829 146.92 198C146.002 198.192 145.042 198.288 144.04 198.288C140.861 198.288 138.642 197.499 137.384 195.92C136.125 194.32 135.496 191.653 135.496 187.92C135.496 184.357 136.242 181.755 137.736 180.112C139.229 178.448 141.629 177.616 144.936 177.616C145.917 177.616 146.792 177.637 147.56 177.68C148.328 177.723 149.021 177.797 149.64 177.904V181.264C148.829 181.2 148.04 181.157 147.272 181.136C146.525 181.093 145.746 181.072 144.936 181.072C142.781 181.072 141.32 181.573 140.552 182.576C139.805 183.579 139.432 185.36 139.432 187.92C139.432 190.48 139.773 192.251 140.456 193.232C141.16 194.192 142.546 194.672 144.616 194.672ZM163.902 194V197.104C163.347 197.424 162.515 197.701 161.406 197.936C160.318 198.171 159.187 198.288 158.014 198.288C155.753 198.288 154.163 197.68 153.246 196.464C152.329 195.248 151.87 193.115 151.87 190.064C151.87 187.056 152.457 184.944 153.63 183.728C154.825 182.491 156.873 181.872 159.774 181.872C160.478 181.872 161.107 181.893 161.662 181.936C162.238 181.957 162.846 182.011 163.486 182.096V185.392C162.654 185.328 161.929 185.285 161.31 185.264C160.691 185.221 160.179 185.2 159.774 185.2C158.025 185.2 156.883 185.509 156.35 186.128C155.838 186.747 155.582 188.059 155.582 190.064C155.582 192.005 155.785 193.285 156.19 193.904C156.617 194.523 157.491 194.832 158.814 194.832C159.689 194.832 160.585 194.757 161.502 194.608C162.441 194.437 163.241 194.235 163.902 194ZM73.568 234H69.728V217.296L64.384 217.968V214.704L73.568 213.616V234ZM89.1588 230.384V234H76.5188V230.384L83.5588 222.736C84.1561 222.096 84.5721 221.509 84.8068 220.976C85.0628 220.443 85.1908 219.877 85.1908 219.28C85.1908 218.576 84.9881 218.032 84.5828 217.648C84.1988 217.264 83.6228 217.072 82.8548 217.072C82.0441 217.072 81.0201 217.157 79.7828 217.328C78.5668 217.477 77.7988 217.605 77.4788 217.712V214.352C78.3108 214.117 79.2601 213.936 80.3268 213.808C81.3934 213.68 82.4601 213.616 83.5268 213.616C85.2761 213.616 86.6308 214.075 87.5908 214.992C88.5508 215.888 89.0308 217.147 89.0308 218.768C89.0308 219.835 88.8494 220.805 88.4868 221.68C88.1241 222.533 87.5161 223.419 86.6628 224.336L81.0628 230.384H89.1588ZM102.953 218.768C102.953 220.005 102.675 221.019 102.121 221.808C101.587 222.576 100.798 223.109 99.7525 223.408V223.472C101.075 223.579 102.067 224.037 102.729 224.848C103.411 225.659 103.753 226.811 103.753 228.304C103.753 230.245 103.166 231.728 101.993 232.752C100.841 233.776 99.1658 234.288 96.9685 234.288C95.7098 234.288 94.5792 234.224 93.5765 234.096C92.5952 233.989 91.8272 233.829 91.2725 233.616V230.288C92.0618 230.459 92.8405 230.587 93.6085 230.672C94.3978 230.736 95.3045 230.768 96.3285 230.768C97.6725 230.768 98.6432 230.555 99.2405 230.128C99.8592 229.68 100.169 228.965 100.169 227.984C100.169 227.067 99.9018 226.395 99.3685 225.968C98.8352 225.541 98.0032 225.328 96.8725 225.328H93.5125V222.096H96.1685C97.2138 222.096 98.0032 221.883 98.5365 221.456C99.0912 221.008 99.3685 220.347 99.3685 219.472C99.3685 218.576 99.1445 217.947 98.6965 217.584C98.2485 217.2 97.5125 217.008 96.4885 217.008C95.7845 217.008 94.8778 217.083 93.7685 217.232C92.6805 217.36 92.0192 217.467 91.7845 217.552V214.384C92.4458 214.171 93.3098 213.989 94.3765 213.84C95.4645 213.691 96.5312 213.616 97.5765 213.616C99.3472 213.616 100.681 214.053 101.577 214.928C102.494 215.803 102.953 217.083 102.953 218.768ZM120.843 225.712V229.072H118.379V234H114.539V229.072H105.803V225.712L108.171 213.936H111.851L109.707 225.712H114.539V217.456H118.379V225.712H120.843ZM135.228 228.016C135.228 230.043 134.663 231.6 133.532 232.688C132.423 233.755 130.823 234.288 128.732 234.288C127.324 234.288 126.097 234.224 125.052 234.096C124.007 233.989 123.196 233.829 122.62 233.616V230.224C123.388 230.373 124.177 230.491 124.988 230.576C125.82 230.64 126.716 230.672 127.676 230.672C129.02 230.672 129.969 230.469 130.524 230.064C131.1 229.637 131.388 228.933 131.388 227.952C131.388 226.971 131.121 226.288 130.588 225.904C130.076 225.52 129.063 225.328 127.548 225.328C126.716 225.328 125.969 225.36 125.308 225.424C124.668 225.467 124.06 225.541 123.484 225.648V213.936H133.948V217.392H127.324V222.256C127.793 222.213 128.209 222.181 128.572 222.16C128.956 222.139 129.319 222.128 129.66 222.128C131.644 222.128 133.063 222.608 133.916 223.568C134.791 224.507 135.228 225.989 135.228 228.016ZM144.764 234.288C142.034 234.288 140.124 233.563 139.036 232.112C137.948 230.661 137.404 228.123 137.404 224.496C137.404 220.699 138.13 217.936 139.58 216.208C141.031 214.48 143.346 213.616 146.524 213.616C147.079 213.616 147.655 213.648 148.252 213.712C148.85 213.755 149.298 213.808 149.596 213.872V217.136C149.084 217.072 148.572 217.029 148.06 217.008C147.548 216.987 147.036 216.976 146.524 216.976C144.732 216.976 143.452 217.36 142.684 218.128C141.938 218.875 141.479 220.229 141.308 222.192C142.162 221.723 142.983 221.392 143.772 221.2C144.562 221.008 145.415 220.912 146.332 220.912C148.146 220.912 149.49 221.435 150.364 222.48C151.239 223.504 151.676 225.083 151.676 227.216C151.676 229.435 151.068 231.173 149.852 232.432C148.636 233.669 146.94 234.288 144.764 234.288ZM147.964 227.376C147.964 226.16 147.74 225.317 147.292 224.848C146.866 224.357 146.076 224.112 144.924 224.112C144.327 224.112 143.687 224.197 143.004 224.368C142.322 224.539 141.724 224.763 141.212 225.04C141.234 227.301 141.479 228.837 141.948 229.648C142.418 230.437 143.314 230.832 144.636 230.832C145.746 230.832 146.578 230.544 147.132 229.968C147.687 229.392 147.964 228.528 147.964 227.376ZM165.726 213.936V217.392L157.246 234H152.926L161.63 217.392H152.958V213.936H165.726ZM181.83 228.56C181.83 230.544 181.254 231.995 180.102 232.912C178.972 233.829 177.169 234.288 174.694 234.288C172.177 234.288 170.364 233.851 169.254 232.976C168.166 232.101 167.622 230.661 167.622 228.656C167.622 227.312 167.942 226.213 168.582 225.36C169.222 224.485 170.129 223.92 171.302 223.664C170.172 223.365 169.329 222.821 168.774 222.032C168.22 221.243 167.953 220.197 167.974 218.896C167.974 217.083 168.508 215.749 169.574 214.896C170.662 214.043 172.369 213.616 174.694 213.616C177.126 213.616 178.865 214.021 179.91 214.832C180.956 215.643 181.478 216.987 181.478 218.864C181.478 220.165 181.201 221.211 180.646 222C180.092 222.789 179.249 223.344 178.118 223.664C179.313 223.92 180.23 224.475 180.87 225.328C181.51 226.16 181.83 227.237 181.83 228.56ZM178.054 219.44C178.054 218.523 177.788 217.861 177.254 217.456C176.742 217.051 175.889 216.848 174.694 216.848C173.521 216.848 172.678 217.051 172.166 217.456C171.654 217.861 171.398 218.533 171.398 219.472C171.398 220.475 171.654 221.2 172.166 221.648C172.7 222.075 173.542 222.288 174.694 222.288C175.868 222.288 176.721 222.064 177.254 221.616C177.788 221.168 178.054 220.443 178.054 219.44ZM178.246 228.048C178.246 227.088 177.969 226.395 177.414 225.968C176.86 225.541 175.953 225.328 174.694 225.328C173.457 225.328 172.561 225.552 172.006 226C171.473 226.427 171.206 227.131 171.206 228.112C171.206 229.115 171.473 229.84 172.006 230.288C172.561 230.715 173.457 230.928 174.694 230.928C175.953 230.928 176.86 230.704 177.414 230.256C177.969 229.808 178.246 229.072 178.246 228.048ZM190.904 213.616C193.613 213.616 195.491 214.341 196.536 215.792C197.603 217.221 198.136 219.76 198.136 223.408C198.136 227.205 197.4 229.968 195.928 231.696C194.477 233.424 192.163 234.288 188.984 234.288C188.429 234.288 187.832 234.256 187.192 234.192C186.552 234.149 186.083 234.096 185.784 234.032V230.672C186.147 230.715 186.595 230.757 187.128 230.8C187.683 230.821 188.301 230.832 188.984 230.832C190.755 230.832 192.024 230.459 192.792 229.712C193.56 228.944 194.029 227.6 194.2 225.68C193.389 226.107 192.6 226.427 191.832 226.64C191.064 226.832 190.253 226.928 189.4 226.928C187.523 226.928 186.125 226.416 185.208 225.392C184.312 224.347 183.864 222.747 183.864 220.592C183.864 218.395 184.483 216.688 185.72 215.472C186.957 214.235 188.685 213.616 190.904 213.616ZM190.904 217.008C189.816 217.008 188.995 217.296 188.44 217.872C187.885 218.427 187.608 219.269 187.608 220.4C187.608 221.659 187.821 222.533 188.248 223.024C188.696 223.493 189.528 223.728 190.744 223.728C191.405 223.728 192.024 223.653 192.6 223.504C193.176 223.355 193.741 223.109 194.296 222.768C194.275 220.485 194.029 218.96 193.56 218.192C193.112 217.403 192.227 217.008 190.904 217.008ZM216.303 223.92C216.303 227.739 215.727 230.427 214.575 231.984C213.444 233.52 211.418 234.288 208.495 234.288C206.66 234.288 205.22 234.064 204.175 233.616C203.151 233.168 202.372 232.453 201.839 231.472C201.434 230.704 201.135 229.723 200.943 228.528C200.751 227.312 200.655 225.776 200.655 223.92C200.655 220.144 201.231 217.488 202.383 215.952C203.535 214.395 205.572 213.616 208.495 213.616C210.33 213.616 211.759 213.84 212.783 214.288C213.807 214.715 214.586 215.429 215.119 216.432C215.524 217.179 215.823 218.149 216.015 219.344C216.207 220.539 216.303 222.064 216.303 223.92ZM212.431 223.92C212.431 221.147 212.175 219.312 211.663 218.416C211.172 217.52 210.116 217.072 208.495 217.072C206.916 217.072 205.86 217.531 205.327 218.448C204.815 219.365 204.559 221.189 204.559 223.92C204.559 226.672 204.804 228.485 205.295 229.36C205.807 230.235 206.874 230.672 208.495 230.672C210.074 230.672 211.119 230.224 211.631 229.328C212.164 228.411 212.431 226.608 212.431 223.92ZM73.28 267.472C72.2773 267.472 71.5307 267.216 71.04 266.704C70.5493 266.171 70.304 265.371 70.304 264.304C70.304 263.195 70.5813 262.416 71.136 261.968C71.712 261.499 72.6933 261.264 74.08 261.264C74.4427 261.264 74.816 261.285 75.2 261.328C75.584 261.349 75.9147 261.392 76.192 261.456V260.816C76.192 260.325 76.032 259.963 75.712 259.728C75.4133 259.472 74.944 259.344 74.304 259.344C73.664 259.344 73.088 259.365 72.576 259.408C72.064 259.451 71.616 259.525 71.232 259.632V257.392C71.7227 257.264 72.2667 257.179 72.864 257.136C73.4827 257.072 74.1867 257.04 74.976 257.04C76.192 257.04 77.0987 257.328 77.696 257.904C78.2933 258.459 78.592 259.301 78.592 260.432V264.464C78.592 264.741 78.6347 264.944 78.72 265.072C78.8053 265.179 78.9333 265.232 79.104 265.232C79.5947 265.232 80 264.827 80.32 264.016C80.6613 263.184 80.832 262.128 80.832 260.848C80.832 258.821 80.32 257.285 79.296 256.24C78.2933 255.195 76.7893 254.672 74.784 254.672C72.2453 254.672 70.4533 255.259 69.408 256.432C68.384 257.605 67.872 259.611 67.872 262.448C67.872 265.029 68.4693 266.907 69.664 268.08C70.8587 269.253 72.8 269.84 75.488 269.84C76.448 269.84 77.3867 269.733 78.304 269.52C79.2213 269.307 80.032 269.008 80.736 268.624V271.152C80.0107 271.579 79.1467 271.899 78.144 272.112C77.1413 272.325 76.032 272.432 74.816 272.432C71.5733 272.432 69.1413 271.6 67.52 269.936C65.8987 268.272 65.088 265.776 65.088 262.448C65.088 259.056 65.8987 256.496 67.52 254.768C69.1627 253.04 71.5733 252.176 74.752 252.176C77.568 252.176 79.712 252.901 81.184 254.352C82.6773 255.781 83.424 257.84 83.424 260.528C83.424 262.619 82.9867 264.304 82.112 265.584C81.2587 266.843 80.128 267.472 78.72 267.472C78.2507 267.472 77.8453 267.365 77.504 267.152C77.184 266.939 76.9387 266.629 76.768 266.224C76.3627 266.608 75.8507 266.917 75.232 267.152C74.6133 267.365 73.9627 267.472 73.28 267.472ZM74.464 263.024C73.76 263.024 73.2907 263.099 73.056 263.248C72.8213 263.397 72.704 263.696 72.704 264.144C72.704 264.571 72.8 264.88 72.992 265.072C73.2053 265.243 73.5467 265.328 74.016 265.328C74.4213 265.328 74.816 265.275 75.2 265.168C75.6053 265.04 75.936 264.891 76.192 264.72V263.184C75.9573 263.12 75.7013 263.077 75.424 263.056C75.168 263.035 74.848 263.024 74.464 263.024ZM101.5 254.224V256.688H98.4275L97.4675 262.896H100.38V265.392H97.0515L96.2835 270H93.6915L94.4275 265.392H90.2035L89.4675 270H86.8435L87.6115 265.392H84.8915V262.896H88.0275L89.0195 256.688H86.0115V254.224H89.4995L90.1715 249.936H92.7635L92.0595 254.224H96.2835L96.9875 249.936H99.5795L98.8755 254.224H101.5ZM94.8435 262.896L95.8355 256.688H91.6435L90.6195 262.896H94.8435ZM111.084 270.224V272.976H108.492V270.256C107.468 270.213 106.476 270.117 105.516 269.968C104.578 269.797 103.82 269.605 103.244 269.392V265.776C104.14 266.053 105.143 266.277 106.252 266.448C107.383 266.597 108.503 266.672 109.612 266.672C110.786 266.672 111.607 266.491 112.076 266.128C112.567 265.765 112.812 265.083 112.812 264.08C112.812 263.461 112.706 263.013 112.492 262.736C112.279 262.459 111.82 262.213 111.116 262L107.212 260.976C105.676 260.549 104.62 259.963 104.044 259.216C103.49 258.448 103.212 257.381 103.212 256.016C103.212 254.139 103.639 252.688 104.492 251.664C105.367 250.619 106.7 249.979 108.492 249.744V246.96H111.084V249.616C111.874 249.637 112.599 249.701 113.26 249.808C113.943 249.893 114.615 250.021 115.276 250.192V253.648C113.463 253.328 112.3 253.157 111.788 253.136C111.298 253.093 110.796 253.072 110.284 253.072C109.132 253.072 108.3 253.285 107.788 253.712C107.276 254.117 107.02 254.789 107.02 255.728C107.02 256.261 107.127 256.667 107.34 256.944C107.575 257.2 107.959 257.403 108.492 257.552L112.364 258.608C113.431 258.907 114.199 259.173 114.668 259.408C115.138 259.643 115.511 259.92 115.788 260.24C116.13 260.645 116.375 261.147 116.524 261.744C116.695 262.341 116.78 263.077 116.78 263.952C116.78 265.957 116.311 267.461 115.372 268.464C114.455 269.445 113.026 270.032 111.084 270.224ZM126.459 270.224V272.976H123.867V270.256C122.843 270.213 121.851 270.117 120.891 269.968C119.953 269.797 119.195 269.605 118.619 269.392V265.776C119.515 266.053 120.518 266.277 121.627 266.448C122.758 266.597 123.878 266.672 124.987 266.672C126.161 266.672 126.982 266.491 127.451 266.128C127.942 265.765 128.187 265.083 128.187 264.08C128.187 263.461 128.081 263.013 127.867 262.736C127.654 262.459 127.195 262.213 126.491 262L122.587 260.976C121.051 260.549 119.995 259.963 119.419 259.216C118.865 258.448 118.587 257.381 118.587 256.016C118.587 254.139 119.014 252.688 119.867 251.664C120.742 250.619 122.075 249.979 123.867 249.744V246.96H126.459V249.616C127.249 249.637 127.974 249.701 128.635 249.808C129.318 249.893 129.99 250.021 130.651 250.192V253.648C128.838 253.328 127.675 253.157 127.163 253.136C126.673 253.093 126.171 253.072 125.659 253.072C124.507 253.072 123.675 253.285 123.163 253.712C122.651 254.117 122.395 254.789 122.395 255.728C122.395 256.261 122.502 256.667 122.715 256.944C122.95 257.2 123.334 257.403 123.867 257.552L127.739 258.608C128.806 258.907 129.574 259.173 130.043 259.408C130.513 259.643 130.886 259.92 131.163 260.24C131.505 260.645 131.75 261.147 131.899 261.744C132.07 262.341 132.155 263.077 132.155 263.952C132.155 265.957 131.686 267.461 130.747 268.464C129.83 269.445 128.401 270.032 126.459 270.224ZM141.93 254.736C141.93 256.528 141.61 257.819 140.97 258.608C140.33 259.376 139.264 259.76 137.77 259.76C136.256 259.76 135.178 259.376 134.538 258.608C133.898 257.84 133.578 256.549 133.578 254.736C133.578 252.944 133.898 251.664 134.538 250.896C135.178 250.128 136.256 249.744 137.77 249.744C139.264 249.744 140.33 250.128 140.97 250.896C141.61 251.664 141.93 252.944 141.93 254.736ZM149.482 249.936L139.882 270H137.258L146.858 249.936H149.482ZM139.37 254.736C139.37 253.691 139.253 252.955 139.018 252.528C138.784 252.101 138.368 251.888 137.77 251.888C137.173 251.888 136.757 252.101 136.522 252.528C136.288 252.955 136.17 253.691 136.17 254.736C136.17 255.76 136.288 256.475 136.522 256.88C136.757 257.285 137.173 257.488 137.77 257.488C138.368 257.488 138.784 257.285 139.018 256.88C139.253 256.475 139.37 255.76 139.37 254.736ZM153.162 265.136C153.162 266.949 152.842 268.24 152.202 269.008C151.562 269.776 150.496 270.16 149.002 270.16C147.509 270.16 146.442 269.776 145.802 269.008C145.162 268.24 144.842 266.949 144.842 265.136C144.842 263.344 145.162 262.064 145.802 261.296C146.442 260.528 147.509 260.144 149.002 260.144C150.496 260.144 151.562 260.528 152.202 261.296C152.842 262.064 153.162 263.344 153.162 265.136ZM150.602 265.136C150.602 264.091 150.485 263.355 150.25 262.928C150.016 262.501 149.6 262.288 149.002 262.288C148.405 262.288 147.989 262.501 147.754 262.928C147.52 263.355 147.402 264.091 147.402 265.136C147.402 266.16 147.52 266.875 147.754 267.28C147.989 267.685 148.405 267.888 149.002 267.888C149.6 267.888 150.016 267.685 150.25 267.28C150.485 266.875 150.602 266.16 150.602 265.136ZM159.668 258.32H156.244L160.308 249.936H163.412L167.444 258.32H164.052L161.876 253.2L159.668 258.32ZM187.38 261.616V268.368C186.697 268.944 185.705 269.413 184.404 269.776C183.102 270.117 181.673 270.288 180.116 270.288C176.937 270.288 174.612 269.435 173.14 267.728C171.689 266 170.964 263.28 170.964 259.568C170.964 256.261 171.689 253.776 173.14 252.112C174.612 250.448 176.798 249.616 179.7 249.616C181.812 249.616 183.444 250.117 184.596 251.12C185.748 252.101 186.324 253.488 186.324 255.28C186.324 255.899 186.249 256.475 186.1 257.008C185.972 257.541 185.769 258.032 185.492 258.48H191.508V261.616H187.38ZM182.708 255.504C182.708 254.715 182.42 254.107 181.844 253.68C181.289 253.232 180.489 253.008 179.444 253.008C177.801 253.008 176.617 253.477 175.892 254.416C175.188 255.333 174.836 256.88 174.836 259.056C177.63 259.013 179.636 258.725 180.852 258.192C182.089 257.659 182.708 256.763 182.708 255.504ZM180.18 266.768C180.99 266.768 181.716 266.715 182.356 266.608C183.017 266.501 183.486 266.363 183.764 266.192V260.144C182.846 260.741 181.662 261.189 180.212 261.488C178.761 261.787 177.022 261.947 174.996 261.968C175.209 263.675 175.721 264.901 176.532 265.648C177.342 266.395 178.558 266.768 180.18 266.768ZM199.651 255.696L201.923 258.576L199.779 260.08L197.827 257.072L195.779 260.048L193.699 258.512L196.003 255.696L192.483 254.64L193.347 252.208L196.675 253.52L196.515 249.936H199.107L198.947 253.52L202.371 252.272L203.171 254.736L199.651 255.696ZM207.877 259.984C207.877 262.288 208.069 264.496 208.453 266.608C208.837 268.699 209.381 270.448 210.085 271.856L207.813 272.56C206.875 270.896 206.149 268.987 205.637 266.832C205.147 264.656 204.901 262.373 204.901 259.984C204.901 257.509 205.147 255.195 205.637 253.04C206.128 250.885 206.853 248.997 207.813 247.376L210.021 248.08C209.339 249.467 208.805 251.205 208.421 253.296C208.059 255.365 207.877 257.595 207.877 259.984ZM213.757 259.984C213.757 257.595 213.565 255.365 213.181 253.296C212.818 251.205 212.295 249.467 211.613 248.08L213.821 247.376C214.781 248.997 215.506 250.885 215.997 253.04C216.487 255.195 216.733 257.509 216.733 259.984C216.733 262.373 216.477 264.656 215.965 266.832C215.474 268.987 214.759 270.896 213.821 272.56L211.549 271.856C212.253 270.448 212.797 268.699 213.181 266.608C213.565 264.496 213.757 262.288 213.757 259.984ZM231.892 271.248V274.096H218.804V271.248H231.892ZM247.629 257.936V261.424H242.637V266.48H239.053V261.424H233.997V257.936H239.053V252.976H242.637V257.936H247.629Z" fill="#0A0D11"/>
<mask id="path-4-inside-1_112_10260" fill="white">
<path d="M64 348H936V396H64V348Z"/>
</mask>
<path d="M936 396V394H64V396V398H936V396Z" fill="black" mask="url(#path-4-inside-1_112_10260)"/>
<path d="M67.6 371H65.2V358.46H67.6V363.54H73.08V358.46H75.48V371H73.08V365.72H67.6V371ZM85.5758 368.58V370.46C85.2424 370.66 84.7158 370.833 83.9958 370.98C83.2891 371.113 82.5491 371.18 81.7758 371.18C80.2024 371.18 79.0691 370.78 78.3758 369.98C77.6958 369.18 77.3558 367.86 77.3558 366.02C77.3558 364.247 77.7158 362.953 78.4358 362.14C79.1558 361.327 80.2958 360.92 81.8558 360.92C83.3624 360.92 84.4291 361.233 85.0558 361.86C85.6824 362.487 85.9958 363.56 85.9958 365.08C85.9958 365.36 85.9891 365.62 85.9758 365.86C85.9624 366.087 85.9358 366.407 85.8958 366.82H79.6958C79.7091 367.647 79.8891 368.227 80.2358 368.56C80.5958 368.893 81.2291 369.06 82.1358 369.06C82.7358 369.06 83.3558 369.013 83.9958 368.92C84.6358 368.827 85.1624 368.713 85.5758 368.58ZM81.8558 362.94C81.0424 362.94 80.4758 363.1 80.1558 363.42C79.8491 363.74 79.6958 364.32 79.6958 365.16H83.8758V364.74C83.8624 364.06 83.7091 363.593 83.4158 363.34C83.1224 363.073 82.6024 362.94 81.8558 362.94ZM90.0567 371.18C89.0434 371.18 88.2967 370.933 87.8167 370.44C87.3501 369.933 87.1167 369.147 87.1167 368.08C87.1167 366.987 87.3967 366.213 87.9567 365.76C88.5301 365.307 89.5101 365.08 90.8967 365.08C91.2834 365.08 91.6767 365.1 92.0767 365.14C92.4767 365.18 92.8234 365.233 93.1167 365.3V364.46C93.1167 363.94 92.9567 363.56 92.6367 363.32C92.3167 363.08 91.8101 362.96 91.1167 362.96C90.4901 362.96 89.9301 362.98 89.4367 363.02C88.9567 363.06 88.4967 363.127 88.0567 363.22V361.28C88.5634 361.16 89.1101 361.073 89.6967 361.02C90.2967 360.953 91.0034 360.92 91.8167 360.92C93.0301 360.92 93.9367 361.2 94.5367 361.76C95.1367 362.307 95.4367 363.133 95.4367 364.24V371H93.2967L93.1967 370.12H93.1567C92.7301 370.44 92.2367 370.7 91.6767 370.9C91.1301 371.087 90.5901 371.18 90.0567 371.18ZM91.1767 366.74C90.4567 366.74 89.9634 366.827 89.6967 367C89.4301 367.16 89.2967 367.473 89.2967 367.94C89.2967 368.393 89.4034 368.72 89.6167 368.92C89.8434 369.107 90.2234 369.2 90.7567 369.2C91.1434 369.2 91.5501 369.147 91.9767 369.04C92.4167 368.92 92.7967 368.773 93.1167 368.6V366.9C92.7967 366.847 92.4767 366.807 92.1567 366.78C91.8501 366.753 91.5234 366.74 91.1767 366.74ZM103.9 357.7H106.22V371H104.18L104.04 370.08H103.94C103.567 370.453 103.12 370.733 102.6 370.92C102.094 371.093 101.507 371.18 100.84 371.18C99.5205 371.18 98.5738 370.78 98.0005 369.98C97.4405 369.18 97.1605 367.867 97.1605 366.04C97.1605 364.24 97.5071 362.94 98.2005 362.14C98.9071 361.327 100.067 360.92 101.68 360.92C102.107 360.92 102.507 360.953 102.88 361.02C103.267 361.073 103.607 361.153 103.9 361.26V357.7ZM102 363C100.974 363 100.294 363.207 99.9605 363.62C99.6405 364.033 99.4805 364.84 99.4805 366.04C99.4805 367.2 99.6205 367.987 99.9005 368.4C100.194 368.813 100.787 369.02 101.68 369.02C102.107 369.02 102.507 368.98 102.88 368.9C103.254 368.807 103.594 368.673 103.9 368.5V363.34C103.62 363.22 103.327 363.133 103.02 363.08C102.714 363.027 102.374 363 102 363ZM110.721 357.7V371H108.401V357.7H110.721ZM115.273 359.72H112.813V357.7H115.273V359.72ZM115.213 371H112.893V361.12H115.213V371ZM119.705 371H117.385V361.12H119.385L119.485 362.12H119.545C120.012 361.707 120.512 361.407 121.045 361.22C121.592 361.02 122.232 360.92 122.965 360.92C124.058 360.92 124.892 361.193 125.465 361.74C126.038 362.287 126.325 363.093 126.325 364.16V371H124.005V364.46C124.005 363.98 123.845 363.62 123.525 363.38C123.218 363.127 122.758 363 122.145 363C121.705 363 121.278 363.06 120.865 363.18C120.452 363.287 120.065 363.453 119.705 363.68V371ZM136.259 368.58V370.46C135.926 370.66 135.399 370.833 134.679 370.98C133.973 371.113 133.233 371.18 132.459 371.18C130.886 371.18 129.753 370.78 129.059 369.98C128.379 369.18 128.039 367.86 128.039 366.02C128.039 364.247 128.399 362.953 129.119 362.14C129.839 361.327 130.979 360.92 132.539 360.92C134.046 360.92 135.113 361.233 135.739 361.86C136.366 362.487 136.679 363.56 136.679 365.08C136.679 365.36 136.673 365.62 136.659 365.86C136.646 366.087 136.619 366.407 136.579 366.82H130.379C130.393 367.647 130.573 368.227 130.919 368.56C131.279 368.893 131.913 369.06 132.819 369.06C133.419 369.06 134.039 369.013 134.679 368.92C135.319 368.827 135.846 368.713 136.259 368.58ZM132.539 362.94C131.726 362.94 131.159 363.1 130.839 363.42C130.533 363.74 130.379 364.32 130.379 365.16H134.559V364.74C134.546 364.06 134.393 363.593 134.099 363.34C133.806 363.073 133.286 362.94 132.539 362.94ZM142.14 362.92C141.433 362.92 140.947 362.993 140.68 363.14C140.427 363.273 140.3 363.573 140.3 364.04C140.3 364.267 140.353 364.44 140.46 364.56C140.567 364.667 140.747 364.74 141 364.78L143.46 365.14C144.247 365.247 144.793 365.493 145.1 365.88C145.42 366.267 145.58 366.88 145.58 367.72C145.58 368.933 145.3 369.813 144.74 370.36C144.18 370.907 143.227 371.18 141.88 371.18C141.107 371.18 140.4 371.147 139.76 371.08C139.12 371.013 138.58 370.913 138.14 370.78V368.72C138.553 368.827 139.06 368.92 139.66 369C140.26 369.067 140.867 369.1 141.48 369.1C142.173 369.1 142.64 369.013 142.88 368.84C143.133 368.667 143.26 368.34 143.26 367.86C143.26 367.62 143.2 367.44 143.08 367.32C142.96 367.187 142.76 367.1 142.48 367.06L139.98 366.7C139.3 366.607 138.8 366.353 138.48 365.94C138.16 365.513 138 364.9 138 364.1C138 363.02 138.327 362.22 138.98 361.7C139.647 361.18 140.653 360.92 142 360.92C142.547 360.92 143.047 360.933 143.5 360.96C143.953 360.987 144.42 361.04 144.9 361.12V363.1C144.553 363.047 144.133 363.007 143.64 362.98C143.16 362.94 142.66 362.92 142.14 362.92Z" fill="#0A0D11"/>
<path d="M451.5 366.02L448.72 365.36C447.8 365.147 447.153 364.8 446.78 364.32C446.407 363.827 446.22 363.127 446.22 362.22C446.22 360.86 446.593 359.86 447.34 359.22C448.087 358.58 449.247 358.26 450.82 358.26C451.473 358.26 452.053 358.293 452.56 358.36C453.08 358.413 453.56 358.5 454 358.62V360.78C453.24 360.633 452.633 360.54 452.18 360.5C451.727 360.447 451.26 360.42 450.78 360.42C449.98 360.42 449.413 360.547 449.08 360.8C448.747 361.04 448.58 361.46 448.58 362.06C448.58 362.407 448.647 362.673 448.78 362.86C448.927 363.033 449.167 363.16 449.5 363.24L452.2 363.88C452.827 364.027 453.293 364.18 453.6 364.34C453.907 364.487 454.16 364.673 454.36 364.9C454.56 365.153 454.707 365.467 454.8 365.84C454.907 366.213 454.96 366.673 454.96 367.22C454.96 368.633 454.587 369.647 453.84 370.26C453.093 370.873 451.933 371.18 450.36 371.18C449.547 371.18 448.76 371.127 448 371.02C447.253 370.913 446.667 370.78 446.24 370.62V368.36C446.813 368.533 447.46 368.673 448.18 368.78C448.913 368.873 449.64 368.92 450.36 368.92C451.147 368.92 451.693 368.813 452 368.6C452.32 368.373 452.48 367.94 452.48 367.3C452.48 366.9 452.413 366.613 452.28 366.44C452.16 366.253 451.9 366.113 451.5 366.02ZM458.921 359.72H456.461V357.7H458.921V359.72ZM458.861 371H456.541V361.12H458.861V371ZM467.994 368.98V371H460.454V368.98L465.054 363.06H460.814V361.12H467.654V363.06L463.094 368.98H467.994ZM477.232 368.58V370.46C476.899 370.66 476.372 370.833 475.652 370.98C474.945 371.113 474.205 371.18 473.432 371.18C471.859 371.18 470.725 370.78 470.032 369.98C469.352 369.18 469.012 367.86 469.012 366.02C469.012 364.247 469.372 362.953 470.092 362.14C470.812 361.327 471.952 360.92 473.512 360.92C475.019 360.92 476.085 361.233 476.712 361.86C477.339 362.487 477.652 363.56 477.652 365.08C477.652 365.36 477.645 365.62 477.632 365.86C477.619 366.087 477.592 366.407 477.552 366.82H471.352C471.365 367.647 471.545 368.227 471.892 368.56C472.252 368.893 472.885 369.06 473.792 369.06C474.392 369.06 475.012 369.013 475.652 368.92C476.292 368.827 476.819 368.713 477.232 368.58ZM473.512 362.94C472.699 362.94 472.132 363.1 471.812 363.42C471.505 363.74 471.352 364.32 471.352 365.16H475.532V364.74C475.519 364.06 475.365 363.593 475.072 363.34C474.779 363.073 474.259 362.94 473.512 362.94Z" fill="#0A0D11"/>
<path d="M836.04 368.74V371H828.2V358.46H830.6V368.74H836.04ZM839.816 359.72H837.356V357.7H839.816V359.72ZM839.756 371H837.436V361.12H839.756V371ZM844.248 371H841.928V361.12H843.928L844.028 362.12H844.088C844.555 361.707 845.055 361.407 845.588 361.22C846.135 361.02 846.775 360.92 847.508 360.92C848.601 360.92 849.435 361.193 850.008 361.74C850.581 362.287 850.868 363.093 850.868 364.16V371H848.548V364.46C848.548 363.98 848.388 363.62 848.068 363.38C847.761 363.127 847.301 363 846.688 363C846.248 363 845.821 363.06 845.408 363.18C844.995 363.287 844.608 363.453 844.248 363.68V371ZM860.802 368.58V370.46C860.469 370.66 859.942 370.833 859.222 370.98C858.516 371.113 857.776 371.18 857.002 371.18C855.429 371.18 854.296 370.78 853.602 369.98C852.922 369.18 852.582 367.86 852.582 366.02C852.582 364.247 852.942 362.953 853.662 362.14C854.382 361.327 855.522 360.92 857.082 360.92C858.589 360.92 859.656 361.233 860.282 361.86C860.909 362.487 861.222 363.56 861.222 365.08C861.222 365.36 861.216 365.62 861.202 365.86C861.189 366.087 861.162 366.407 861.122 366.82H854.922C854.936 367.647 855.116 368.227 855.462 368.56C855.822 368.893 856.456 369.06 857.362 369.06C857.962 369.06 858.582 369.013 859.222 368.92C859.862 368.827 860.389 368.713 860.802 368.58ZM857.082 362.94C856.269 362.94 855.702 363.1 855.382 363.42C855.076 363.74 854.922 364.32 854.922 365.16H859.102V364.74C859.089 364.06 858.936 363.593 858.642 363.34C858.349 363.073 857.829 362.94 857.082 362.94ZM868.686 371H866.286V358.46H868.686V363.54H874.166V358.46H876.566V371H874.166V365.72H868.686V371ZM886.662 368.58V370.46C886.328 370.66 885.802 370.833 885.082 370.98C884.375 371.113 883.635 371.18 882.862 371.18C881.288 371.18 880.155 370.78 879.462 369.98C878.782 369.18 878.442 367.86 878.442 366.02C878.442 364.247 878.802 362.953 879.522 362.14C880.242 361.327 881.382 360.92 882.942 360.92C884.448 360.92 885.515 361.233 886.142 361.86C886.768 362.487 887.082 363.56 887.082 365.08C887.082 365.36 887.075 365.62 887.062 365.86C887.048 366.087 887.022 366.407 886.982 366.82H880.782C880.795 367.647 880.975 368.227 881.322 368.56C881.682 368.893 882.315 369.06 883.222 369.06C883.822 369.06 884.442 369.013 885.082 368.92C885.722 368.827 886.248 368.713 886.662 368.58ZM882.942 362.94C882.128 362.94 881.562 363.1 881.242 363.42C880.935 363.74 880.782 364.32 880.782 365.16H884.962V364.74C884.948 364.06 884.795 363.593 884.502 363.34C884.208 363.073 883.688 362.94 882.942 362.94ZM891.222 359.72H888.762V357.7H891.222V359.72ZM891.162 371H888.842V361.12H891.162V371ZM897.574 374.24C896.881 374.24 896.221 374.193 895.594 374.1C894.981 374.02 894.488 373.907 894.114 373.76V371.76C894.421 371.867 894.881 371.953 895.494 372.02C896.121 372.1 896.741 372.14 897.354 372.14C898.208 372.14 898.794 371.987 899.114 371.68C899.448 371.373 899.621 370.827 899.634 370.04V369.48C899.141 369.747 898.628 369.953 898.094 370.1C897.561 370.247 897.034 370.32 896.514 370.32C895.221 370.32 894.301 369.96 893.754 369.24C893.208 368.52 892.934 367.313 892.934 365.62C892.934 363.927 893.301 362.72 894.034 362C894.781 361.28 896.034 360.92 897.794 360.92C898.474 360.92 899.221 360.96 900.034 361.04C900.861 361.12 901.501 361.207 901.954 361.3V369.34C901.954 371.153 901.628 372.42 900.974 373.14C900.321 373.873 899.188 374.24 897.574 374.24ZM897.794 363C896.714 363 896.021 363.167 895.714 363.5C895.408 363.82 895.254 364.527 895.254 365.62C895.254 366.633 895.381 367.313 895.634 367.66C895.901 367.993 896.454 368.16 897.294 368.16C897.654 368.16 898.034 368.12 898.434 368.04C898.848 367.947 899.248 367.827 899.634 367.68V363.18C899.354 363.127 899.054 363.087 898.734 363.06C898.428 363.02 898.114 363 897.794 363ZM906.455 371H904.135V357.7H906.455V361.86C907.015 361.553 907.575 361.32 908.135 361.16C908.695 361 909.235 360.92 909.755 360.92C910.862 360.92 911.688 361.193 912.235 361.74C912.795 362.273 913.075 363.08 913.075 364.16V371H910.755V364.46C910.755 363.953 910.615 363.587 910.335 363.36C910.068 363.12 909.635 363 909.035 363C908.622 363 908.188 363.047 907.735 363.14C907.282 363.233 906.855 363.36 906.455 363.52V371ZM921.253 368.84V370.82C921.026 370.913 920.706 370.993 920.293 371.06C919.893 371.14 919.526 371.18 919.193 371.18C917.926 371.18 917.019 370.907 916.473 370.36C915.926 369.8 915.653 368.873 915.653 367.58V363.06H914.333V361.12H915.713L916.033 358.76H917.973V361.12H921.133V363.06H917.973V367.5C917.973 368.087 918.099 368.487 918.353 368.7C918.606 368.913 919.059 369.02 919.713 369.02C919.939 369.02 920.206 369.007 920.513 368.98C920.819 368.94 921.066 368.893 921.253 368.84Z" fill="#0A0D11"/>
<mask id="path-9-inside-2_112_10260" fill="white">
<path d="M64 428H936V476H64V428Z"/>
</mask>
<path d="M936 476V475H64V476V477H936V476Z" fill="black" fill-opacity="0.1" mask="url(#path-9-inside-2_112_10260)"/>
<path d="M66.88 450H64.96V439.968H66.88V444.032H71.264V439.968H73.184V450H71.264V445.776H66.88V450ZM78.9246 450H77.0046V441.648L74.3326 441.984V440.352L78.9246 439.808V450Z" fill="#0A0D11"/>
<path d="M449.804 450.144C448.439 450.144 447.484 449.781 446.94 449.056C446.396 448.331 446.124 447.061 446.124 445.248C446.124 443.349 446.487 441.968 447.212 441.104C447.937 440.24 449.095 439.808 450.684 439.808C450.961 439.808 451.249 439.824 451.548 439.856C451.847 439.877 452.071 439.904 452.22 439.936V441.568C451.964 441.536 451.708 441.515 451.452 441.504C451.196 441.493 450.94 441.488 450.684 441.488C449.788 441.488 449.148 441.68 448.764 442.064C448.391 442.437 448.161 443.115 448.076 444.096C448.503 443.861 448.913 443.696 449.308 443.6C449.703 443.504 450.129 443.456 450.588 443.456C451.495 443.456 452.167 443.717 452.604 444.24C453.041 444.752 453.26 445.541 453.26 446.608C453.26 447.717 452.956 448.587 452.348 449.216C451.74 449.835 450.892 450.144 449.804 450.144ZM451.404 446.688C451.404 446.08 451.292 445.659 451.068 445.424C450.855 445.179 450.46 445.056 449.884 445.056C449.585 445.056 449.265 445.099 448.924 445.184C448.583 445.269 448.284 445.381 448.028 445.52C448.039 446.651 448.161 447.419 448.396 447.824C448.631 448.219 449.079 448.416 449.74 448.416C450.295 448.416 450.711 448.272 450.988 447.984C451.265 447.696 451.404 447.264 451.404 446.688ZM461.672 445.856V447.536H460.44V450H458.52V447.536H454.152V445.856L455.336 439.968H457.176L456.104 445.856H458.52V441.728H460.44V445.856H461.672ZM464.736 452.432H462.88V442.096H464.496L464.608 442.816H464.688C464.987 442.528 465.344 442.309 465.76 442.16C466.176 442.011 466.645 441.936 467.168 441.936C468.235 441.936 468.992 442.256 469.44 442.896C469.899 443.525 470.128 444.571 470.128 446.032C470.128 447.483 469.845 448.533 469.28 449.184C468.715 449.824 467.787 450.144 466.496 450.144C466.133 450.144 465.803 450.117 465.504 450.064C465.205 450.021 464.949 449.957 464.736 449.872V452.432ZM468.272 446.032C468.272 445.104 468.149 444.469 467.904 444.128C467.669 443.776 467.205 443.6 466.512 443.6C466.181 443.6 465.867 443.637 465.568 443.712C465.269 443.787 464.992 443.893 464.736 444.032V448.16C464.928 448.245 465.147 448.309 465.392 448.352C465.648 448.395 465.936 448.416 466.256 448.416C467.077 448.416 467.616 448.256 467.872 447.936C468.139 447.605 468.272 446.971 468.272 446.032ZM475.065 445.888L477.593 450H475.545L473.913 447.168L472.297 450H470.361L472.905 445.888L470.441 442.096H472.617L474.057 444.672L475.577 442.096H477.513L475.065 445.888Z" fill="#0A0D11"/>
<path d="M912.707 439.968V441.696L908.467 450H906.307L910.659 441.696H906.323V439.968H912.707ZM919.767 448.192V450H913.447V448.192L916.967 444.368C917.266 444.048 917.474 443.755 917.591 443.488C917.719 443.221 917.783 442.939 917.783 442.64C917.783 442.288 917.682 442.016 917.479 441.824C917.287 441.632 916.999 441.536 916.615 441.536C916.21 441.536 915.698 441.579 915.079 441.664C914.471 441.739 914.087 441.803 913.927 441.856V440.176C914.343 440.059 914.818 439.968 915.351 439.904C915.884 439.84 916.418 439.808 916.951 439.808C917.826 439.808 918.503 440.037 918.983 440.496C919.463 440.944 919.703 441.573 919.703 442.384C919.703 442.917 919.612 443.403 919.431 443.84C919.25 444.267 918.946 444.709 918.519 445.168L915.719 448.192H919.767ZM923.08 452.432H921.224V442.096H922.84L922.952 442.816H923.032C923.33 442.528 923.688 442.309 924.104 442.16C924.52 442.011 924.989 441.936 925.512 441.936C926.578 441.936 927.336 442.256 927.784 442.896C928.242 443.525 928.472 444.571 928.472 446.032C928.472 447.483 928.189 448.533 927.624 449.184C927.058 449.824 926.13 450.144 924.84 450.144C924.477 450.144 924.146 450.117 923.848 450.064C923.549 450.021 923.293 449.957 923.08 449.872V452.432ZM926.616 446.032C926.616 445.104 926.493 444.469 926.248 444.128C926.013 443.776 925.549 443.6 924.856 443.6C924.525 443.6 924.21 443.637 923.912 443.712C923.613 443.787 923.336 443.893 923.08 444.032V448.16C923.272 448.245 923.49 448.309 923.736 448.352C923.992 448.395 924.28 448.416 924.6 448.416C925.421 448.416 925.96 448.256 926.216 447.936C926.482 447.605 926.616 446.971 926.616 446.032ZM933.409 445.888L935.937 450H933.889L932.257 447.168L930.641 450H928.705L931.249 445.888L928.785 442.096H930.961L932.401 444.672L933.921 442.096H935.857L933.409 445.888Z" fill="#0A0D11"/>
<mask id="path-14-inside-3_112_10260" fill="white">
<path d="M64 508H936V556H64V508Z"/>
</mask>
<path d="M936 556V555H64V556V557H936V556Z" fill="black" fill-opacity="0.1" mask="url(#path-14-inside-3_112_10260)"/>
<path d="M66.88 530H64.96V519.968H66.88V524.032H71.264V519.968H73.184V530H71.264V525.776H66.88V530ZM80.8606 528.192V530H74.5406V528.192L78.0606 524.368C78.3593 524.048 78.5673 523.755 78.6846 523.488C78.8126 523.221 78.8766 522.939 78.8766 522.64C78.8766 522.288 78.7753 522.016 78.5726 521.824C78.3806 521.632 78.0926 521.536 77.7086 521.536C77.3033 521.536 76.7913 521.579 76.1726 521.664C75.5646 521.739 75.1806 521.803 75.0206 521.856V520.176C75.4366 520.059 75.9113 519.968 76.4446 519.904C76.978 519.84 77.5113 519.808 78.0446 519.808C78.9193 519.808 79.5966 520.037 80.0766 520.496C80.5566 520.944 80.7966 521.573 80.7966 522.384C80.7966 522.917 80.706 523.403 80.5246 523.84C80.3433 524.267 80.0393 524.709 79.6126 525.168L76.8126 528.192H80.8606Z" fill="#0A0D11"/>
<path d="M452.364 527.008C452.364 528.021 452.081 528.8 451.516 529.344C450.961 529.877 450.161 530.144 449.116 530.144C448.412 530.144 447.799 530.112 447.276 530.048C446.753 529.995 446.348 529.915 446.06 529.808V528.112C446.444 528.187 446.839 528.245 447.244 528.288C447.66 528.32 448.108 528.336 448.588 528.336C449.26 528.336 449.735 528.235 450.012 528.032C450.3 527.819 450.444 527.467 450.444 526.976C450.444 526.485 450.311 526.144 450.044 525.952C449.788 525.76 449.281 525.664 448.524 525.664C448.108 525.664 447.735 525.68 447.404 525.712C447.084 525.733 446.78 525.771 446.492 525.824V519.968H451.724V521.696H448.412V524.128C448.647 524.107 448.855 524.091 449.036 524.08C449.228 524.069 449.409 524.064 449.58 524.064C450.572 524.064 451.281 524.304 451.708 524.784C452.145 525.253 452.364 525.995 452.364 527.008ZM457.132 530.144C455.767 530.144 454.812 529.781 454.268 529.056C453.724 528.331 453.452 527.061 453.452 525.248C453.452 523.349 453.815 521.968 454.54 521.104C455.265 520.24 456.423 519.808 458.012 519.808C458.289 519.808 458.577 519.824 458.876 519.856C459.175 519.877 459.399 519.904 459.548 519.936V521.568C459.292 521.536 459.036 521.515 458.78 521.504C458.524 521.493 458.268 521.488 458.012 521.488C457.116 521.488 456.476 521.68 456.092 522.064C455.719 522.437 455.489 523.115 455.404 524.096C455.831 523.861 456.241 523.696 456.636 523.6C457.031 523.504 457.457 523.456 457.916 523.456C458.823 523.456 459.495 523.717 459.932 524.24C460.369 524.752 460.588 525.541 460.588 526.608C460.588 527.717 460.284 528.587 459.676 529.216C459.068 529.835 458.22 530.144 457.132 530.144ZM458.732 526.688C458.732 526.08 458.62 525.659 458.396 525.424C458.183 525.179 457.788 525.056 457.212 525.056C456.913 525.056 456.593 525.099 456.252 525.184C455.911 525.269 455.612 525.381 455.356 525.52C455.367 526.651 455.489 527.419 455.724 527.824C455.959 528.219 456.407 528.416 457.068 528.416C457.623 528.416 458.039 528.272 458.316 527.984C458.593 527.696 458.732 527.264 458.732 526.688ZM463.752 532.432H461.896V522.096H463.512L463.624 522.816H463.704C464.002 522.528 464.36 522.309 464.776 522.16C465.192 522.011 465.661 521.936 466.184 521.936C467.25 521.936 468.008 522.256 468.456 522.896C468.914 523.525 469.144 524.571 469.144 526.032C469.144 527.483 468.861 528.533 468.296 529.184C467.73 529.824 466.802 530.144 465.512 530.144C465.149 530.144 464.818 530.117 464.52 530.064C464.221 530.021 463.965 529.957 463.752 529.872V532.432ZM467.288 526.032C467.288 525.104 467.165 524.469 466.92 524.128C466.685 523.776 466.221 523.6 465.528 523.6C465.197 523.6 464.882 523.637 464.584 523.712C464.285 523.787 464.008 523.893 463.752 524.032V528.16C463.944 528.245 464.162 528.309 464.408 528.352C464.664 528.395 464.952 528.416 465.272 528.416C466.093 528.416 466.632 528.256 466.888 527.936C467.154 527.605 467.288 526.971 467.288 526.032ZM474.081 525.888L476.609 530H474.561L472.929 527.168L471.312 530H469.377L471.921 525.888L469.457 522.096H471.633L473.073 524.672L474.593 522.096H476.529L474.081 525.888Z" fill="#0A0D11"/>
<path d="M908.148 530.144C906.782 530.144 905.828 529.781 905.284 529.056C904.74 528.331 904.468 527.061 904.468 525.248C904.468 523.349 904.83 521.968 905.556 521.104C906.281 520.24 907.438 519.808 909.028 519.808C909.305 519.808 909.593 519.824 909.892 519.856C910.19 519.877 910.414 519.904 910.564 519.936V521.568C910.308 521.536 910.052 521.515 909.796 521.504C909.54 521.493 909.284 521.488 909.028 521.488C908.132 521.488 907.492 521.68 907.108 522.064C906.734 522.437 906.505 523.115 906.42 524.096C906.846 523.861 907.257 523.696 907.652 523.6C908.046 523.504 908.473 523.456 908.932 523.456C909.838 523.456 910.51 523.717 910.948 524.24C911.385 524.752 911.604 525.541 911.604 526.608C911.604 527.717 911.3 528.587 910.692 529.216C910.084 529.835 909.236 530.144 908.148 530.144ZM909.748 526.688C909.748 526.08 909.636 525.659 909.412 525.424C909.198 525.179 908.804 525.056 908.228 525.056C907.929 525.056 907.609 525.099 907.268 525.184C906.926 525.269 906.628 525.381 906.372 525.52C906.382 526.651 906.505 527.419 906.74 527.824C906.974 528.219 907.422 528.416 908.084 528.416C908.638 528.416 909.054 528.272 909.332 527.984C909.609 527.696 909.748 527.264 909.748 526.688ZM920.015 525.856V527.536H918.783V530H916.863V527.536H912.495V525.856L913.679 519.968H915.519L914.447 525.856H916.863V521.728H918.783V525.856H920.015ZM923.08 532.432H921.224V522.096H922.84L922.952 522.816H923.032C923.33 522.528 923.688 522.309 924.104 522.16C924.52 522.011 924.989 521.936 925.512 521.936C926.578 521.936 927.336 522.256 927.784 522.896C928.242 523.525 928.472 524.571 928.472 526.032C928.472 527.483 928.189 528.533 927.624 529.184C927.058 529.824 926.13 530.144 924.84 530.144C924.477 530.144 924.146 530.117 923.848 530.064C923.549 530.021 923.293 529.957 923.08 529.872V532.432ZM926.616 526.032C926.616 525.104 926.493 524.469 926.248 524.128C926.013 523.776 925.549 523.6 924.856 523.6C924.525 523.6 924.21 523.637 923.912 523.712C923.613 523.787 923.336 523.893 923.08 524.032V528.16C923.272 528.245 923.49 528.309 923.736 528.352C923.992 528.395 924.28 528.416 924.6 528.416C925.421 528.416 925.96 528.256 926.216 527.936C926.482 527.605 926.616 526.971 926.616 526.032ZM933.409 525.888L935.937 530H933.889L932.257 527.168L930.641 530H928.705L931.249 525.888L928.785 522.096H930.961L932.401 524.672L933.921 522.096H935.857L933.409 525.888Z" fill="#0A0D11"/>
<mask id="path-19-inside-4_112_10260" fill="white">
<path d="M64 588H936V636H64V588Z"/>
</mask>
<path d="M936 636V635H64V636V637H936V636Z" fill="black" fill-opacity="0.1" mask="url(#path-19-inside-4_112_10260)"/>
<path d="M66.88 610H64.96V599.968H66.88V604.032H71.264V599.968H73.184V610H71.264V605.776H66.88V610ZM80.4606 602.384C80.4606 603.003 80.322 603.509 80.0446 603.904C79.778 604.288 79.3833 604.555 78.8606 604.704V604.736C79.522 604.789 80.018 605.019 80.3486 605.424C80.69 605.829 80.8606 606.405 80.8606 607.152C80.8606 608.123 80.5673 608.864 79.9806 609.376C79.4046 609.888 78.5673 610.144 77.4686 610.144C76.8393 610.144 76.274 610.112 75.7726 610.048C75.282 609.995 74.898 609.915 74.6206 609.808V608.144C75.0153 608.229 75.4046 608.293 75.7886 608.336C76.1833 608.368 76.6366 608.384 77.1486 608.384C77.8206 608.384 78.306 608.277 78.6046 608.064C78.914 607.84 79.0686 607.483 79.0686 606.992C79.0686 606.533 78.9353 606.197 78.6686 605.984C78.402 605.771 77.986 605.664 77.4206 605.664H75.7406V604.048H77.0686C77.5913 604.048 77.986 603.941 78.2526 603.728C78.53 603.504 78.6686 603.173 78.6686 602.736C78.6686 602.288 78.5566 601.973 78.3326 601.792C78.1086 601.6 77.7406 601.504 77.2286 601.504C76.8766 601.504 76.4233 601.541 75.8686 601.616C75.3246 601.68 74.994 601.733 74.8766 601.776V600.192C75.2073 600.085 75.6393 599.995 76.1726 599.92C76.7166 599.845 77.25 599.808 77.7726 599.808C78.658 599.808 79.3246 600.027 79.7726 600.464C80.2313 600.901 80.4606 601.541 80.4606 602.384Z" fill="#0A0D11"/>
<path d="M453.484 605.856V607.536H452.252V610H450.332V607.536H445.964V605.856L447.148 599.968H448.988L447.916 605.856H450.332V601.728H452.252V605.856H453.484ZM461.525 607.28C461.525 608.272 461.237 608.997 460.661 609.456C460.095 609.915 459.194 610.144 457.957 610.144C456.698 610.144 455.791 609.925 455.237 609.488C454.693 609.051 454.421 608.331 454.421 607.328C454.421 606.656 454.581 606.107 454.901 605.68C455.221 605.243 455.674 604.96 456.261 604.832C455.695 604.683 455.274 604.411 454.997 604.016C454.719 603.621 454.586 603.099 454.597 602.448C454.597 601.541 454.863 600.875 455.397 600.448C455.941 600.021 456.794 599.808 457.957 599.808C459.173 599.808 460.042 600.011 460.565 600.416C461.087 600.821 461.349 601.493 461.349 602.432C461.349 603.083 461.21 603.605 460.933 604C460.655 604.395 460.234 604.672 459.669 604.832C460.266 604.96 460.725 605.237 461.045 605.664C461.365 606.08 461.525 606.619 461.525 607.28ZM459.637 602.72C459.637 602.261 459.503 601.931 459.237 601.728C458.981 601.525 458.554 601.424 457.957 601.424C457.37 601.424 456.949 601.525 456.693 601.728C456.437 601.931 456.309 602.267 456.309 602.736C456.309 603.237 456.437 603.6 456.693 603.824C456.959 604.037 457.381 604.144 457.957 604.144C458.543 604.144 458.97 604.032 459.237 603.808C459.503 603.584 459.637 603.221 459.637 602.72ZM459.733 607.024C459.733 606.544 459.594 606.197 459.317 605.984C459.039 605.771 458.586 605.664 457.957 605.664C457.338 605.664 456.89 605.776 456.613 606C456.346 606.213 456.213 606.565 456.213 607.056C456.213 607.557 456.346 607.92 456.613 608.144C456.89 608.357 457.338 608.464 457.957 608.464C458.586 608.464 459.039 608.352 459.317 608.128C459.594 607.904 459.733 607.536 459.733 607.024ZM464.845 612.432H462.989V602.096H464.605L464.717 602.816H464.797C465.096 602.528 465.453 602.309 465.869 602.16C466.285 602.011 466.755 601.936 467.277 601.936C468.344 601.936 469.101 602.256 469.549 602.896C470.008 603.525 470.237 604.571 470.237 606.032C470.237 607.483 469.955 608.533 469.389 609.184C468.824 609.824 467.896 610.144 466.605 610.144C466.243 610.144 465.912 610.117 465.613 610.064C465.315 610.021 465.059 609.957 464.845 609.872V612.432ZM468.381 606.032C468.381 605.104 468.259 604.469 468.013 604.128C467.779 603.776 467.315 603.6 466.621 603.6C466.291 603.6 465.976 603.637 465.677 603.712C465.379 603.787 465.101 603.893 464.845 604.032V608.16C465.037 608.245 465.256 608.309 465.501 608.352C465.757 608.395 466.045 608.416 466.365 608.416C467.187 608.416 467.725 608.256 467.981 607.936C468.248 607.605 468.381 606.971 468.381 606.032ZM475.174 605.888L477.702 610H475.654L474.022 607.168L472.406 610H470.47L473.014 605.888L470.55 602.096H472.726L474.166 604.672L475.686 602.096H477.622L475.174 605.888Z" fill="#0A0D11"/>
<path d="M911.692 607.008C911.692 608.021 911.409 608.8 910.844 609.344C910.289 609.877 909.489 610.144 908.444 610.144C907.74 610.144 907.127 610.112 906.604 610.048C906.081 609.995 905.676 609.915 905.388 609.808V608.112C905.772 608.187 906.167 608.245 906.572 608.288C906.988 608.32 907.436 608.336 907.916 608.336C908.588 608.336 909.063 608.235 909.34 608.032C909.628 607.819 909.772 607.467 909.772 606.976C909.772 606.485 909.639 606.144 909.372 605.952C909.116 605.76 908.609 605.664 907.852 605.664C907.436 605.664 907.063 605.68 906.732 605.712C906.412 605.733 906.108 605.771 905.82 605.824V599.968H911.052V601.696H907.74V604.128C907.975 604.107 908.183 604.091 908.364 604.08C908.556 604.069 908.737 604.064 908.908 604.064C909.9 604.064 910.609 604.304 911.036 604.784C911.473 605.253 911.692 605.995 911.692 607.008ZM916.46 610.144C915.095 610.144 914.14 609.781 913.596 609.056C913.052 608.331 912.78 607.061 912.78 605.248C912.78 603.349 913.143 601.968 913.868 601.104C914.594 600.24 915.751 599.808 917.34 599.808C917.618 599.808 917.906 599.824 918.204 599.856C918.503 599.877 918.727 599.904 918.876 599.936V601.568C918.62 601.536 918.364 601.515 918.108 601.504C917.852 601.493 917.596 601.488 917.34 601.488C916.444 601.488 915.804 601.68 915.42 602.064C915.047 602.437 914.818 603.115 914.732 604.096C915.159 603.861 915.57 603.696 915.964 603.6C916.359 603.504 916.786 603.456 917.244 603.456C918.151 603.456 918.823 603.717 919.26 604.24C919.698 604.752 919.916 605.541 919.916 606.608C919.916 607.717 919.612 608.587 919.004 609.216C918.396 609.835 917.548 610.144 916.46 610.144ZM918.06 606.688C918.06 606.08 917.948 605.659 917.724 605.424C917.511 605.179 917.116 605.056 916.54 605.056C916.242 605.056 915.922 605.099 915.58 605.184C915.239 605.269 914.94 605.381 914.684 605.52C914.695 606.651 914.818 607.419 915.052 607.824C915.287 608.219 915.735 608.416 916.396 608.416C916.951 608.416 917.367 608.272 917.644 607.984C917.922 607.696 918.06 607.264 918.06 606.688ZM923.08 612.432H921.224V602.096H922.84L922.952 602.816H923.032C923.33 602.528 923.688 602.309 924.104 602.16C924.52 602.011 924.989 601.936 925.512 601.936C926.578 601.936 927.336 602.256 927.784 602.896C928.242 603.525 928.472 604.571 928.472 606.032C928.472 607.483 928.189 608.533 927.624 609.184C927.058 609.824 926.13 610.144 924.84 610.144C924.477 610.144 924.146 610.117 923.848 610.064C923.549 610.021 923.293 609.957 923.08 609.872V612.432ZM926.616 606.032C926.616 605.104 926.493 604.469 926.248 604.128C926.013 603.776 925.549 603.6 924.856 603.6C924.525 603.6 924.21 603.637 923.912 603.712C923.613 603.787 923.336 603.893 923.08 604.032V608.16C923.272 608.245 923.49 608.309 923.736 608.352C923.992 608.395 924.28 608.416 924.6 608.416C925.421 608.416 925.96 608.256 926.216 607.936C926.482 607.605 926.616 606.971 926.616 606.032ZM933.409 605.888L935.937 610H933.889L932.257 607.168L930.641 610H928.705L931.249 605.888L928.785 602.096H930.961L932.401 604.672L933.921 602.096H935.857L933.409 605.888Z" fill="#0A0D11"/>
<mask id="path-24-inside-5_112_10260" fill="white">
<path d="M64 668H936V716H64V668Z"/>
</mask>
<path d="M936 716V715H64V716V717H936V716Z" fill="black" fill-opacity="0.1" mask="url(#path-24-inside-5_112_10260)"/>
<path d="M66.88 690H64.96V679.968H66.88V684.032H71.264V679.968H73.184V690H71.264V685.776H66.88V690ZM82.1246 685.856V687.536H80.8926V690H78.9726V687.536H74.6046V685.856L75.7886 679.968H77.6286L76.5566 685.856H78.9726V681.728H80.8926V685.856H82.1246Z" fill="#0A0D11"/>
<path d="M453.484 685.856V687.536H452.252V690H450.332V687.536H445.964V685.856L447.148 679.968H448.988L447.916 685.856H450.332V681.728H452.252V685.856H453.484ZM462.277 684.96C462.277 686.869 461.989 688.213 461.413 688.992C460.847 689.76 459.834 690.144 458.373 690.144C457.455 690.144 456.735 690.032 456.213 689.808C455.701 689.584 455.311 689.227 455.045 688.736C454.842 688.352 454.693 687.861 454.597 687.264C454.501 686.656 454.453 685.888 454.453 684.96C454.453 683.072 454.741 681.744 455.317 680.976C455.893 680.197 456.911 679.808 458.373 679.808C459.29 679.808 460.005 679.92 460.517 680.144C461.029 680.357 461.418 680.715 461.685 681.216C461.887 681.589 462.037 682.075 462.133 682.672C462.229 683.269 462.277 684.032 462.277 684.96ZM460.341 684.96C460.341 683.573 460.213 682.656 459.957 682.208C459.711 681.76 459.183 681.536 458.373 681.536C457.583 681.536 457.055 681.765 456.789 682.224C456.533 682.683 456.405 683.595 456.405 684.96C456.405 686.336 456.527 687.243 456.773 687.68C457.029 688.117 457.562 688.336 458.373 688.336C459.162 688.336 459.685 688.112 459.941 687.664C460.207 687.205 460.341 686.304 460.341 684.96ZM465.658 692.432H463.802V682.096H465.418L465.53 682.816H465.61C465.909 682.528 466.266 682.309 466.682 682.16C467.098 682.011 467.567 681.936 468.09 681.936C469.157 681.936 469.914 682.256 470.362 682.896C470.821 683.525 471.05 684.571 471.05 686.032C471.05 687.483 470.767 688.533 470.202 689.184C469.637 689.824 468.709 690.144 467.418 690.144C467.055 690.144 466.725 690.117 466.426 690.064C466.127 690.021 465.871 689.957 465.658 689.872V692.432ZM469.194 686.032C469.194 685.104 469.071 684.469 468.826 684.128C468.591 683.776 468.127 683.6 467.434 683.6C467.103 683.6 466.789 683.637 466.49 683.712C466.191 683.787 465.914 683.893 465.658 684.032V688.16C465.85 688.245 466.069 688.309 466.314 688.352C466.57 688.395 466.858 688.416 467.178 688.416C467.999 688.416 468.538 688.256 468.794 687.936C469.061 687.605 469.194 686.971 469.194 686.032ZM475.987 685.888L478.515 690H476.467L474.835 687.168L473.219 690H471.283L473.827 685.888L471.363 682.096H473.539L474.979 684.672L476.499 682.096H478.435L475.987 685.888Z" fill="#0A0D11"/>
<path d="M911.718 685.856V687.536H910.486V690H908.566V687.536H904.198V685.856L905.382 679.968H907.222L906.15 685.856H908.566V681.728H910.486V685.856H911.718ZM919.759 687.28C919.759 688.272 919.471 688.997 918.895 689.456C918.33 689.915 917.428 690.144 916.191 690.144C914.932 690.144 914.026 689.925 913.471 689.488C912.927 689.051 912.655 688.331 912.655 687.328C912.655 686.656 912.815 686.107 913.135 685.68C913.455 685.243 913.908 684.96 914.495 684.832C913.93 684.683 913.508 684.411 913.231 684.016C912.954 683.621 912.82 683.099 912.831 682.448C912.831 681.541 913.098 680.875 913.631 680.448C914.175 680.021 915.028 679.808 916.191 679.808C917.407 679.808 918.276 680.011 918.799 680.416C919.322 680.821 919.583 681.493 919.583 682.432C919.583 683.083 919.444 683.605 919.167 684C918.89 684.395 918.468 684.672 917.903 684.832C918.5 684.96 918.959 685.237 919.279 685.664C919.599 686.08 919.759 686.619 919.759 687.28ZM917.871 682.72C917.871 682.261 917.738 681.931 917.471 681.728C917.215 681.525 916.788 681.424 916.191 681.424C915.604 681.424 915.183 681.525 914.927 681.728C914.671 681.931 914.543 682.267 914.543 682.736C914.543 683.237 914.671 683.6 914.927 683.824C915.194 684.037 915.615 684.144 916.191 684.144C916.778 684.144 917.204 684.032 917.471 683.808C917.738 683.584 917.871 683.221 917.871 682.72ZM917.967 687.024C917.967 686.544 917.828 686.197 917.551 685.984C917.274 685.771 916.82 685.664 916.191 685.664C915.572 685.664 915.124 685.776 914.847 686C914.58 686.213 914.447 686.565 914.447 687.056C914.447 687.557 914.58 687.92 914.847 688.144C915.124 688.357 915.572 688.464 916.191 688.464C916.82 688.464 917.274 688.352 917.551 688.128C917.828 687.904 917.967 687.536 917.967 687.024ZM923.08 692.432H921.224V682.096H922.84L922.952 682.816H923.032C923.33 682.528 923.688 682.309 924.104 682.16C924.52 682.011 924.989 681.936 925.512 681.936C926.578 681.936 927.336 682.256 927.784 682.896C928.242 683.525 928.472 684.571 928.472 686.032C928.472 687.483 928.189 688.533 927.624 689.184C927.058 689.824 926.13 690.144 924.84 690.144C924.477 690.144 924.146 690.117 923.848 690.064C923.549 690.021 923.293 689.957 923.08 689.872V692.432ZM926.616 686.032C926.616 685.104 926.493 684.469 926.248 684.128C926.013 683.776 925.549 683.6 924.856 683.6C924.525 683.6 924.21 683.637 923.912 683.712C923.613 683.787 923.336 683.893 923.08 684.032V688.16C923.272 688.245 923.49 688.309 923.736 688.352C923.992 688.395 924.28 688.416 924.6 688.416C925.421 688.416 925.96 688.256 926.216 687.936C926.482 687.605 926.616 686.971 926.616 686.032ZM933.409 685.888L935.937 690H933.889L932.257 687.168L930.641 690H928.705L931.249 685.888L928.785 682.096H930.961L932.401 684.672L933.921 682.096H935.857L933.409 685.888Z" fill="#0A0D11"/>
</g>
<g filter="url(#filter0_f_112_10260)">
<rect width="1000" height="277" transform="translate(0 544)" fill="url(#paint0_linear_112_10260)" fill-opacity="0.8"/>
</g>
</g>
<defs>
<filter id="filter0_f_112_10260" x="-3" y="541" width="1006" height="283" filterUnits="userSpaceOnUse" color-interpolation-filters="sRGB">
<feFlood flood-opacity="0" result="BackgroundImageFix"/>
<feBlend mode="normal" in="SourceGraphic" in2="BackgroundImageFix" result="shape"/>
<feGaussianBlur stdDeviation="1.5" result="effect1_foregroundBlur_112_10260"/>
</filter>
<linearGradient id="paint0_linear_112_10260" x1="500" y1="32.4942" x2="500" y2="277" gradientUnits="userSpaceOnUse">
<stop stop-color="#E7E7E7" stop-opacity="0"/>
<stop offset="1" stop-color="#E7E7E7"/>
</linearGradient>
<clipPath id="clip0_112_10260">
<rect width="1000" height="752" rx="32" fill="white"/>
</clipPath>
<clipPath id="clip1_112_10260">
<rect width="872" height="732" fill="white" transform="translate(64 64)"/>
</clipPath>
</defs>
</svg>
