<svg width="32" height="32" viewBox="0 0 32 32" fill="none" xmlns="http://www.w3.org/2000/svg">
<path d="M12 29.3337H20C22.2133 29.3337 24 27.547 24 25.3337V6.66699C24 4.45366 22.2133 2.66699 20 2.66699H12C9.78667 2.66699 8 4.45366 8 6.66699V25.3337C8 27.547 9.78667 29.3337 12 29.3337Z" fill="#0A0D11"/>
<path d="M5.99935 7.90629V24.093C5.99935 24.5196 5.61268 24.8263 5.19935 24.7463C3.22602 24.3863 2.66602 23.2396 2.66602 20.4396V11.5596C2.66602 8.75963 3.22602 7.61296 5.19935 7.25296C5.61268 7.17296 5.99935 7.47963 5.99935 7.90629Z" fill="#0A0D11"/>
<path d="M29.3333 11.5596V20.4396C29.3333 23.2396 28.7733 24.3863 26.8 24.7463C26.3867 24.8263 26 24.5063 26 24.093V7.90629C26 7.47963 26.3867 7.17296 26.8 7.25296C28.7733 7.61296 29.3333 8.75963 29.3333 11.5596Z" fill="#0A0D11"/>
</svg>
