<svg width="24" height="27" viewBox="0 0 24 27" fill="none" xmlns="http://www.w3.org/2000/svg">
<path d="M20 0H4C1.78667 0 0 1.77333 0 3.96V18.5067C0 20.6933 1.78667 22.48 4 22.48H5.01333C6.06667 22.48 7.09333 22.8933 7.84 23.64L10.12 25.8933C11.16 26.92 12.84 26.92 13.88 25.8933L16.16 23.64C16.9067 22.8933 17.9333 22.48 18.9867 22.48H20C22.2133 22.48 24 20.6933 24 18.5067V3.96C24 1.77333 22.2133 0 20 0ZM12 4.73333C13.44 4.73333 14.6 5.90667 14.6 7.33333C14.6 8.74667 13.48 9.88 12.0933 9.93333C12.04 9.93333 11.96 9.93333 11.8933 9.93333C10.4933 9.88 9.38667 8.74667 9.38667 7.33333C9.4 5.90667 10.56 4.73333 12 4.73333ZM15.6667 16.92C13.6533 18.2667 10.3467 18.2667 8.33333 16.92C6.56 15.7467 6.56 13.8 8.33333 12.6133C10.36 11.2667 13.6667 11.2667 15.6667 12.6133C17.44 13.8 17.44 15.7333 15.6667 16.92Z" fill="#0A0D11"/>
</svg>
